<svg width="18" height="18" viewBox="0 0 18 18" fill="none" xmlns="http://www.w3.org/2000/svg">
<path opacity="0.4" d="M16.1261 8.1493C16.1115 7.7973 16.0528 7.45263 15.9428 7.12263C15.4368 5.53863 13.9555 4.39463 12.2102 4.39463H10.1641C9.7388 4.39463 9.70947 4.35063 9.48214 4.04996L8.4555 2.68596C7.97883 2.04796 7.60481 1.6593 6.40947 1.6593H4.70079C2.91146 1.6593 1.45947 3.1113 1.45947 4.90063V7.11529V12.4026C1.45947 14.566 3.2195 16.326 5.38283 16.326H12.2028C14.3662 16.326 16.1261 14.566 16.1261 12.4026V8.31063C16.1335 8.26663 16.1335 8.20063 16.1261 8.1493Z" fill="#9D9E9F"/>
<path d="M11.4251 14.6466C9.87782 14.7566 9.87782 17.0006 11.4251 17.1106H15.0992C15.5465 17.1106 15.9718 16.9492 16.3018 16.6486C17.3871 15.7026 16.8078 13.7959 15.3778 13.6199C14.8644 10.5253 10.3838 11.6986 11.4471 14.6466" fill="#9D9E9F"/>
</svg>
