<svg width="18" height="18" viewBox="0 0 18 18" fill="none" xmlns="http://www.w3.org/2000/svg">
<path opacity="0.4" d="M12.1425 1.5H5.8575C3.1275 1.5 1.5 3.1275 1.5 5.8575V12.135C1.5 14.8725 3.1275 16.5 5.8575 16.5H12.135C14.865 16.5 16.4925 14.8725 16.4925 12.1425V5.8575C16.5 3.1275 14.8725 1.5 12.1425 1.5Z" fill="#9D9E9F"/>
<path d="M12.6226 7.05749C12.5701 6.92999 12.4651 6.82499 12.3376 6.77249C12.2776 6.74999 12.2101 6.73499 12.1426 6.73499H10.7476C10.4551 6.73499 10.2226 6.96749 10.2226 7.25999C10.2226 7.55249 10.4551 7.78499 10.7476 7.78499H10.8826L9.30008 9.36749L8.53508 8.22749C8.44508 8.09999 8.31008 8.00999 8.15258 7.99499C7.98758 7.97999 7.84508 8.03249 7.73258 8.14499L5.49758 10.38C5.29508 10.5825 5.29508 10.9125 5.49758 11.1225C5.60258 11.2275 5.73008 11.2725 5.86508 11.2725C6.00008 11.2725 6.13508 11.22 6.23258 11.1225L8.01758 9.33749L8.78258 10.4775C8.87258 10.605 9.00758 10.695 9.16508 10.71C9.33008 10.725 9.47258 10.6725 9.58508 10.56L11.6251 8.51999V8.65499C11.6251 8.94749 11.8576 9.17999 12.1501 9.17999C12.4426 9.17999 12.6751 8.94749 12.6751 8.65499V7.25249C12.6601 7.18499 12.6526 7.11749 12.6226 7.05749Z" fill="#9D9E9F"/>
</svg>
