<svg width="18" height="18" viewBox="0 0 18 18" fill="none" xmlns="http://www.w3.org/2000/svg">
<path opacity="0.4" d="M12.1423 1.5H5.86482C3.13482 1.5 1.50732 3.1275 1.50732 5.8575V12.135C1.50732 14.865 3.13482 16.4925 5.86482 16.4925H12.1423C14.8723 16.4925 16.4998 14.865 16.4998 12.135V5.8575C16.4998 3.1275 14.8723 1.5 12.1423 1.5Z" fill="#9D9E9F"/>
<path d="M8.62485 6.0675V12.9375C8.62485 13.2075 8.35485 13.3875 8.10735 13.2825C7.19985 12.8925 6.01483 12.5325 5.18983 12.4275L5.04733 12.4125C4.58983 12.3525 4.21484 11.925 4.21484 11.46V5.68499C4.21484 5.11499 4.67985 4.6875 5.24985 4.7325C6.18735 4.8075 7.57485 5.25751 8.44485 5.75251C8.55735 5.80501 8.62485 5.9325 8.62485 6.0675Z" fill="#9D9E9F"/>
<path d="M13.785 5.77499V11.4525C13.785 11.9175 13.41 12.345 12.9525 12.405L12.795 12.42C11.9775 12.5325 10.8 12.885 9.8925 13.2675C9.645 13.3725 9.375 13.1925 9.375 12.9225V6.05997C9.375 5.92497 9.4425 5.7975 9.5625 5.73C10.4325 5.2425 11.79 4.80748 12.7125 4.72498H12.7425C13.32 4.73248 13.785 5.19749 13.785 5.77499Z" fill="#9D9E9F"/>
</svg>
