<svg width="12" height="12" viewBox="0 0 12 12" fill="none" xmlns="http://www.w3.org/2000/svg">
<path d="M5.80016 0.213989C5.99271 0.213989 6.17737 0.290478 6.31352 0.42663C6.44967 0.562781 6.52616 0.747442 6.52616 0.939989V5.27399H10.8602C11.0527 5.27399 11.2374 5.35048 11.3735 5.48663C11.5097 5.62278 11.5862 5.80744 11.5862 5.99999C11.5862 6.19254 11.5097 6.3772 11.3735 6.51335C11.2374 6.6495 11.0527 6.72599 10.8602 6.72599H6.52616V11.06C6.52616 11.2525 6.44967 11.4372 6.31352 11.5733C6.17737 11.7095 5.99271 11.786 5.80016 11.786C5.60761 11.786 5.42295 11.7095 5.2868 11.5733C5.15065 11.4372 5.07416 11.2525 5.07416 11.06V6.72599H0.74016C0.547613 6.72599 0.362952 6.6495 0.226801 6.51335C0.0906492 6.3772 0.0141602 6.19254 0.0141602 5.99999C0.0141602 5.80744 0.0906492 5.62278 0.226801 5.48663C0.362952 5.35048 0.547613 5.27399 0.74016 5.27399H5.07416V0.939989C5.07416 0.747442 5.15065 0.562781 5.2868 0.42663C5.42295 0.290478 5.60761 0.213989 5.80016 0.213989Z" fill="#474644" fill-opacity="0.6"/>
</svg>
