<svg width="12" height="12" viewBox="0 0 12 12" fill="none" xmlns="http://www.w3.org/2000/svg">
<path d="M9.5 5C9.36739 5 9.24021 5.05268 9.14645 5.14645C9.05268 5.24021 9 5.36739 9 5.5V7.19L8.26 6.45C7.99871 6.19077 7.64556 6.04531 7.2775 6.04531C6.90944 6.04531 6.55629 6.19077 6.295 6.45L5.945 6.805L4.705 5.56C4.44371 5.30077 4.09056 5.15531 3.7225 5.15531C3.35444 5.15531 3.00129 5.30077 2.74 5.56L2 6.305V3.5C2 3.36739 2.05268 3.24021 2.14645 3.14645C2.24021 3.05268 2.36739 3 2.5 3H6.5C6.63261 3 6.75979 2.94732 6.85355 2.85355C6.94732 2.75979 7 2.63261 7 2.5C7 2.36739 6.94732 2.24021 6.85355 2.14645C6.75979 2.05268 6.63261 2 6.5 2H2.5C2.10218 2 1.72064 2.15804 1.43934 2.43934C1.15804 2.72064 1 3.10218 1 3.5V9.61C1.00132 9.97824 1.14819 10.331 1.40858 10.5914C1.66897 10.8518 2.02175 10.9987 2.39 11H8.61C8.74549 10.9989 8.88015 10.9787 9.01 10.94C9.29872 10.859 9.55289 10.6855 9.73353 10.4462C9.91417 10.2069 10.0113 9.91486 10.01 9.615V5.5C10.01 5.43349 9.99676 5.36764 9.97101 5.30632C9.94526 5.245 9.90753 5.18943 9.86004 5.14286C9.81254 5.0963 9.75624 5.05968 9.69441 5.03515C9.63259 5.01062 9.5665 4.99867 9.5 5ZM2.5 10C2.36739 10 2.24021 9.94732 2.14645 9.85355C2.05268 9.75979 2 9.63261 2 9.5V7.715L3.445 6.27C3.51808 6.19733 3.61694 6.15654 3.72 6.15654C3.82306 6.15654 3.92192 6.19733 3.995 6.27L7.73 10H2.5ZM9 9.5C8.99679 9.59682 8.96552 9.69062 8.91 9.77L6.65 7.5L7.005 7.15C7.04085 7.11341 7.08363 7.08435 7.13085 7.06451C7.17807 7.04466 7.22878 7.03444 7.28 7.03444C7.33122 7.03444 7.38193 7.04466 7.42915 7.06451C7.47637 7.08435 7.51915 7.11341 7.555 7.15L9 8.605V9.5ZM10.5 2H10V1.5C10 1.36739 9.94732 1.24021 9.85355 1.14645C9.75979 1.05268 9.63261 1 9.5 1C9.36739 1 9.24021 1.05268 9.14645 1.14645C9.05268 1.24021 9 1.36739 9 1.5V2H8.5C8.36739 2 8.24021 2.05268 8.14645 2.14645C8.05268 2.24021 8 2.36739 8 2.5C8 2.63261 8.05268 2.75979 8.14645 2.85355C8.24021 2.94732 8.36739 3 8.5 3H9V3.5C9 3.63261 9.05268 3.75979 9.14645 3.85355C9.24021 3.94732 9.36739 4 9.5 4C9.63261 4 9.75979 3.94732 9.85355 3.85355C9.94732 3.75979 10 3.63261 10 3.5V3H10.5C10.6326 3 10.7598 2.94732 10.8536 2.85355C10.9473 2.75979 11 2.63261 11 2.5C11 2.36739 10.9473 2.24021 10.8536 2.14645C10.7598 2.05268 10.6326 2 10.5 2Z" fill="#91918E"/>
</svg>
