<svg width="16" height="12" viewBox="0 0 16 12" fill="none" xmlns="http://www.w3.org/2000/svg">
<path d="M1.24963 0C1.05072 0 0.859956 0.0790178 0.719304 0.21967C0.578651 0.360322 0.499634 0.551088 0.499634 0.75V11.25C0.499634 11.4489 0.578651 11.6397 0.719304 11.7803C0.859956 11.921 1.05072 12 1.24963 12C1.44855 12 1.63931 11.921 1.77996 11.7803C1.92062 11.6397 1.99963 11.4489 1.99963 11.25V0.75C1.99963 0.551088 1.92062 0.360322 1.77996 0.21967C1.63931 0.0790178 1.44855 0 1.24963 0ZM15.4396 5.715C15.4039 5.62294 15.3504 5.53883 15.2821 5.4675L12.2821 2.4675C12.2122 2.39757 12.1292 2.3421 12.0378 2.30426C11.9465 2.26641 11.8485 2.24693 11.7496 2.24693C11.5499 2.24693 11.3584 2.32627 11.2171 2.4675C11.0759 2.60873 10.9966 2.80027 10.9966 3C10.9966 3.19973 11.0759 3.39127 11.2171 3.5325L12.9421 5.25H4.24963C4.05072 5.25 3.85996 5.32902 3.7193 5.46967C3.57865 5.61032 3.49963 5.80109 3.49963 6C3.49963 6.19891 3.57865 6.38968 3.7193 6.53033C3.85996 6.67098 4.05072 6.75 4.24963 6.75H12.9421L11.2171 8.4675C11.1468 8.53722 11.091 8.62017 11.053 8.71157C11.0149 8.80296 10.9953 8.90099 10.9953 9C10.9953 9.09901 11.0149 9.19704 11.053 9.28843C11.091 9.37983 11.1468 9.46278 11.2171 9.5325C11.2869 9.60279 11.3698 9.65859 11.4612 9.69667C11.5526 9.73475 11.6506 9.75435 11.7496 9.75435C11.8486 9.75435 11.9467 9.73475 12.0381 9.69667C12.1295 9.65859 12.2124 9.60279 12.2821 9.5325L15.2821 6.5325C15.3504 6.46117 15.4039 6.37706 15.4396 6.285C15.5146 6.1024 15.5146 5.8976 15.4396 5.715Z" fill="#8B8A89"/>
</svg>
