<svg width="21" height="20" viewBox="0 0 21 20" fill="none" xmlns="http://www.w3.org/2000/svg">
<path d="M15.254 4.12494C14.2175 3.26738 12.9725 2.69934 11.6454 2.47847C10.3184 2.2576 8.95649 2.39176 7.69804 2.86734C6.43959 3.34293 5.32937 4.143 4.48008 5.18634C3.63078 6.22968 3.07264 7.47915 2.86232 8.80792C2.65199 10.1367 2.79697 11.4975 3.28253 12.7521C3.7681 14.0067 4.57696 15.1105 5.62701 15.9515C6.67707 16.7925 7.93094 17.3407 9.26134 17.5405C10.5917 17.7402 11.9513 17.5845 13.202 17.0889C13.3528 17.0256 13.4728 16.9058 13.5362 16.755C13.5996 16.6043 13.6014 16.4347 13.5413 16.2826C13.4811 16.1305 13.3637 16.0081 13.2142 15.9416C13.0648 15.8752 12.8953 15.8699 12.742 15.9269C11.3892 16.4631 9.8937 16.5203 8.50385 16.0892C7.114 15.6581 5.91344 14.7645 5.10155 13.5568C4.28965 12.3492 3.91528 10.9002 4.0406 9.45037C4.16592 8.00059 4.78339 6.6373 5.79047 5.58688C6.79754 4.53647 8.13363 3.86215 9.57685 3.6759C11.0201 3.48966 12.4836 3.80269 13.7243 4.56301C14.9651 5.32334 15.9084 6.48521 16.3977 7.85568C16.887 9.22615 16.8927 10.7227 16.414 12.0969C16.255 12.5539 15.76 12.8749 15.136 12.8749C14.7966 12.8749 14.471 12.7401 14.2309 12.5C13.9909 12.26 13.856 11.9344 13.856 11.5949V7.07894C13.856 6.91318 13.7902 6.75421 13.673 6.637C13.5558 6.51979 13.3968 6.45394 13.231 6.45394C13.0653 6.45394 12.9063 6.51979 12.7891 6.637C12.6719 6.75421 12.606 6.91318 12.606 7.07894V7.29294C11.952 6.73794 11.11 6.45394 10.223 6.45394C9.25404 6.45394 8.34504 6.79194 7.67704 7.45394C7.00504 8.11894 6.61904 9.06794 6.61904 10.2049C6.61904 11.3419 7.00404 12.3029 7.66904 12.9829C8.33404 13.6619 9.24404 14.0229 10.223 14.0229C11.202 14.0229 12.116 13.6629 12.786 12.9859C12.836 12.9366 12.8837 12.8856 12.929 12.8329C13.149 13.2249 13.4694 13.5512 13.8573 13.7783C14.2452 14.0054 14.6866 14.125 15.136 14.1249C16.146 14.1249 17.217 13.5919 17.595 12.5069C18.1064 11.0378 18.1563 9.44741 17.7378 7.94916C17.3194 6.4509 16.4527 5.11648 15.254 4.12494ZM7.86904 10.2049C7.86904 9.35894 8.14904 8.74494 8.55604 8.34294C8.96604 7.93694 9.54604 7.70394 10.223 7.70394C10.9 7.70394 11.489 7.93794 11.906 8.34494C12.318 8.74894 12.603 9.36294 12.603 10.2049C12.603 11.0489 12.317 11.6829 11.899 12.1049C11.478 12.5299 10.889 12.7739 10.223 12.7739C9.55604 12.7739 8.97604 12.5309 8.56304 12.1079C8.15104 11.6879 7.86904 11.0519 7.86904 10.2049Z" fill="#474644" fill-opacity="0.6"/>
</svg>
