<svg width="28" height="22" viewBox="0 0 28 22" fill="none" xmlns="http://www.w3.org/2000/svg">
<path opacity="0.4" d="M15.375 7.25V13.25H4.7625C3.585 13.25 2.625 14.21 2.625 15.3875V7.25C2.625 4.25 3.375 3.5 6.375 3.5H11.625C14.625 3.5 15.375 4.25 15.375 7.25Z" fill="#9D9E9F"/>
<path d="M15.375 13.25V15.875C15.375 17.3225 14.1975 18.5 12.75 18.5H5.25C3.8025 18.5 2.625 17.3225 2.625 15.875V15.3875C2.625 14.21 3.585 13.25 4.7625 13.25H15.375Z" fill="#9D9E9F"/>
<path d="M12 7.8125H6C5.6925 7.8125 5.4375 7.5575 5.4375 7.25C5.4375 6.9425 5.6925 6.6875 6 6.6875H12C12.3075 6.6875 12.5625 6.9425 12.5625 7.25C12.5625 7.5575 12.3075 7.8125 12 7.8125Z" fill="#9D9E9F"/>
<path d="M9.75 10.4375H6C5.6925 10.4375 5.4375 10.1825 5.4375 9.875C5.4375 9.5675 5.6925 9.3125 6 9.3125H9.75C10.0575 9.3125 10.3125 9.5675 10.3125 9.875C10.3125 10.1825 10.0575 10.4375 9.75 10.4375Z" fill="#9D9E9F"/>
</svg>
