<svg width="28" height="22" viewBox="0 0 28 22" fill="none" xmlns="http://www.w3.org/2000/svg">
<path d="M17 8C18.6569 8 20 9.34315 20 11C20 12.6569 18.6569 14 17 14L3 14C1.34315 14 -7.24234e-08 12.6569 0 11C7.24234e-08 9.34315 1.34315 8 3 8L17 8Z" fill="#888870"/>
<path d="M13 18C13 19.6569 11.6569 21 10 21C8.34314 21 7 19.6569 7 18L7 4C7 2.34315 8.34315 1 10 1C11.6569 1 13 2.34315 13 4L13 18Z" fill="#888870"/>
<path d="M17.264 14.0208C18.4356 15.1924 18.4356 17.0919 17.264 18.2635C16.0924 19.435 14.1929 19.435 13.0213 18.2635L3.12184 8.36396C1.95027 7.19239 1.95027 5.29289 3.12184 4.12132C4.29342 2.94975 6.19291 2.94975 7.36448 4.12132L17.264 14.0208Z" fill="#EDEDDF"/>
<path d="M7.36493 18.2635C6.19335 19.4351 4.29386 19.4351 3.12229 18.2635C1.95071 17.0919 1.95071 15.1924 3.12229 14.0208L13.0218 4.12136C14.1934 2.94978 16.0928 2.94978 17.2644 4.12136C18.436 5.29293 18.436 7.19242 17.2644 8.364L7.36493 18.2635Z" fill="#EDEDDF"/>
<path fill-rule="evenodd" clip-rule="evenodd" d="M10.0679 6.2869C9.84697 6.2869 9.66788 6.46599 9.66788 6.6869V9.71494C9.66788 9.83611 9.66788 9.89669 9.64392 9.92474C9.62313 9.94908 9.59195 9.962 9.56003 9.95949C9.52326 9.95659 9.48042 9.91375 9.39474 9.82808L5.68382 6.11716C5.52761 5.96095 5.27435 5.96095 5.11814 6.11716C4.96193 6.27337 4.96193 6.52663 5.11814 6.68284L8.82906 10.3938C8.91473 10.4794 8.95757 10.5223 8.96047 10.5591C8.96298 10.591 8.95006 10.6222 8.92572 10.6429C8.89767 10.6669 8.83708 10.6669 8.71592 10.6669H5.71788C5.49696 10.6669 5.31788 10.846 5.31788 11.0669C5.31788 11.2878 5.49696 11.4669 5.71788 11.4669H8.71592C8.83709 11.4669 8.89767 11.4669 8.92572 11.4909C8.95006 11.5117 8.96298 11.5428 8.96047 11.5747C8.95757 11.6115 8.91474 11.6544 8.82906 11.74L5.11813 15.451C4.96192 15.6072 4.96192 15.8604 5.11813 16.0167C5.27434 16.1729 5.52761 16.1729 5.68382 16.0167L9.39474 12.3057C9.48042 12.2201 9.52326 12.1772 9.56003 12.1743C9.59195 12.1718 9.62313 12.1847 9.64392 12.2091C9.66788 12.2371 9.66788 12.2977 9.66788 12.4189V15.4469C9.66788 15.6678 9.84697 15.8469 10.0679 15.8469C10.2888 15.8469 10.4679 15.6678 10.4679 15.4469V12.4189C10.4679 12.2977 10.4679 12.2371 10.4918 12.2091C10.5126 12.1847 10.5438 12.1718 10.5757 12.1743C10.6125 12.1772 10.6553 12.22 10.741 12.3057L14.4519 16.0167C14.6082 16.1729 14.8614 16.1729 15.0176 16.0167C15.1738 15.8604 15.1738 15.6072 15.0176 15.451L11.3067 11.74C11.221 11.6544 11.1782 11.6115 11.1753 11.5748C11.1728 11.5428 11.1857 11.5117 11.21 11.4909C11.2381 11.4669 11.2987 11.4669 11.4198 11.4669H14.4179C14.6388 11.4669 14.8179 11.2878 14.8179 11.0669C14.8179 10.846 14.6388 10.6669 14.4179 10.6669H11.4198C11.2987 10.6669 11.2381 10.6669 11.21 10.6429C11.1857 10.6222 11.1728 10.591 11.1753 10.5591C11.1782 10.5223 11.221 10.4794 11.3067 10.3938L15.0176 6.68284C15.1738 6.52663 15.1738 6.27337 15.0176 6.11716C14.8614 5.96095 14.6082 5.96095 14.4519 6.11716L10.741 9.82808C10.6553 9.91376 10.6125 9.9566 10.5757 9.95949C10.5438 9.962 10.5126 9.94908 10.4918 9.92474C10.4679 9.89669 10.4679 9.83611 10.4679 9.71495V6.6869C10.4679 6.46599 10.2888 6.2869 10.0679 6.2869Z" fill="#888870"/>
</svg>
