<svg width="28" height="22" viewBox="0 0 28 22" fill="none" xmlns="http://www.w3.org/2000/svg">
<path d="M4.73992 12.0238C2.51102 11.1069 3.19305 4.25492 5.48453 4.25C7.8625 4.25352 6.46891 8.34641 4.73992 12.0238Z" fill="#9D9E9F" fill-opacity="0.3"/>
<path d="M16.3125 13.8125H4.49019C4.67722 13.4441 4.86496 13.0651 5.05269 12.6798C6.10316 12.7958 7.34629 12.061 8.76097 10.4846C8.80316 10.6013 8.85027 10.7216 8.9016 10.8432C9.35933 11.9155 9.94996 12.5265 10.6594 12.6608C11.3864 12.8014 12.1064 12.4337 12.8447 11.5484C13.3243 12.1159 14.3086 12.6875 16.3125 12.6875C16.4617 12.6875 16.6048 12.6282 16.7103 12.5227C16.8158 12.4173 16.875 12.2742 16.875 12.125C16.875 11.9758 16.8158 11.8327 16.7103 11.7273C16.6048 11.6218 16.4617 11.5625 16.3125 11.5625C14.1589 11.5625 13.5317 10.8179 13.5 10.422C13.4966 10.2912 13.4477 10.1656 13.3616 10.067C13.2756 9.96834 13.1578 9.9028 13.0286 9.88164C12.8995 9.86049 12.767 9.88505 12.6539 9.95109C12.5409 10.0171 12.4545 10.1205 12.4095 10.2434C11.5538 11.5266 11.0468 11.5892 10.8626 11.5555C10.2769 11.4451 9.73199 10.0838 9.54847 9.1993C9.52446 9.08759 9.46699 8.98584 9.38373 8.90759C9.30046 8.82935 9.19533 8.77832 9.08235 8.76129C8.96936 8.74427 8.85386 8.76206 8.75124 8.81229C8.64861 8.86253 8.56371 8.94282 8.50785 9.0425C7.11566 10.7736 6.18191 11.3628 5.59621 11.5133C6.19316 10.1858 6.63894 9.0207 6.92441 8.03984C7.40394 6.39172 7.4391 5.2393 7.03058 4.51719C6.81965 4.14031 6.37738 3.69102 5.49004 3.6875H5.47246C4.34746 3.69523 3.46152 4.76328 3.03824 6.61953C2.78582 7.72414 2.74433 8.9532 2.92363 9.99453C3.10293 11.0359 3.47629 11.7882 4.01699 12.2368C3.75543 12.7803 3.48754 13.3112 3.22738 13.8139H1.68754C1.53835 13.8139 1.39528 13.8732 1.28979 13.9787C1.1843 14.0841 1.12504 14.2272 1.12504 14.3764C1.12504 14.5256 1.1843 14.6687 1.28979 14.7742C1.39528 14.8796 1.53835 14.9389 1.68754 14.9389H2.63043C1.83449 16.4155 1.21574 17.4448 1.2059 17.4617C1.16579 17.5251 1.13876 17.5958 1.12638 17.6697C1.114 17.7437 1.11652 17.8193 1.1338 17.8923C1.15108 17.9652 1.18277 18.034 1.22701 18.0945C1.27124 18.155 1.32713 18.2061 1.39139 18.2447C1.45564 18.2834 1.52697 18.3087 1.60118 18.3194C1.67539 18.3301 1.75097 18.3258 1.8235 18.3068C1.89603 18.2878 1.96404 18.2546 2.02352 18.2089C2.083 18.1633 2.13276 18.1062 2.16988 18.0411C2.18043 18.0228 2.9623 16.7199 3.9066 14.9389H16.3125C16.4617 14.9389 16.6048 14.8796 16.7103 14.7742C16.8158 14.6687 16.875 14.5256 16.875 14.3764C16.875 14.2272 16.8158 14.0841 16.7103 13.9787C16.6048 13.8732 16.4617 13.8139 16.3125 13.8139V13.8125ZM13.5 10.4375V10.4227C13.5005 10.4276 13.5005 10.4326 13.5 10.4375ZM4.13371 6.86984C4.41425 5.64078 4.95566 4.8125 5.48441 4.8125C5.85355 4.8125 5.9766 4.94328 6.04691 5.07055C6.25785 5.44531 6.50535 6.77141 4.52465 11.1434C3.94879 10.3496 3.75261 8.53906 4.13371 6.86984Z" fill="#9D9E9F"/>
</svg>
