<svg width="28" height="22" viewBox="0 0 28 22" fill="none" xmlns="http://www.w3.org/2000/svg">
<path opacity="0.4" d="M1.5 11.66V10.34C1.5 9.55995 2.1375 8.91495 2.925 8.91495C4.2825 8.91495 4.8375 7.95495 4.155 6.77745C3.765 6.10245 3.9975 5.22495 4.68 4.83495L5.9775 4.09245C6.57 3.73995 7.335 3.94995 7.6875 4.54245L7.77 4.68495C8.445 5.86245 9.555 5.86245 10.2375 4.68495L10.32 4.54245C10.6725 3.94995 11.4375 3.73995 12.03 4.09245L13.3275 4.83495C14.01 5.22495 14.2425 6.10245 13.8525 6.77745C13.17 7.95495 13.725 8.91495 15.0825 8.91495C15.8625 8.91495 16.5075 9.55245 16.5075 10.34V11.66C16.5075 12.44 15.87 13.085 15.0825 13.085C13.725 13.085 13.17 14.045 13.8525 15.2225C14.2425 15.905 14.01 16.775 13.3275 17.165L12.03 17.9075C11.4375 18.26 10.6725 18.05 10.32 17.4575L10.2375 17.315C9.5625 16.1375 8.4525 16.1375 7.77 17.315L7.6875 17.4575C7.335 18.05 6.57 18.26 5.9775 17.9075L4.68 17.165C3.9975 16.775 3.765 15.8975 4.155 15.2225C4.8375 14.045 4.2825 13.085 2.925 13.085C2.1375 13.085 1.5 12.44 1.5 11.66Z" fill="#9D9E9F"/>
<path d="M9 13.4375C10.3462 13.4375 11.4375 12.3462 11.4375 11C11.4375 9.65381 10.3462 8.5625 9 8.5625C7.65381 8.5625 6.5625 9.65381 6.5625 11C6.5625 12.3462 7.65381 13.4375 9 13.4375Z" fill="#9D9E9F"/>
</svg>
