<svg width="28" height="22" viewBox="0 0 28 22" fill="none" xmlns="http://www.w3.org/2000/svg">
<path d="M12.9677 5.10499L12.9152 7.94748C12.9077 8.33748 13.1552 8.85499 13.4702 9.08749L15.3302 10.4975C16.5227 11.3975 16.3277 12.5 14.9027 12.95L12.4802 13.7075C12.0752 13.835 11.6477 14.2775 11.5427 14.69L10.9652 16.895C10.5077 18.635 9.36768 18.8075 8.42268 17.2775L7.10268 15.14C6.86268 14.75 6.29268 14.4575 5.84268 14.48L3.33771 14.6075C1.54521 14.6975 1.0352 13.6625 2.2052 12.2975L3.69019 10.5725C3.96769 10.25 4.09518 9.64999 3.96768 9.24499L3.21022 6.82248C2.76772 5.39748 3.56271 4.60999 4.98021 5.07499L7.19272 5.80249C7.56772 5.92249 8.13021 5.83999 8.44521 5.60749L10.7552 3.94248C12.0002 3.04248 12.9977 3.56749 12.9677 5.10499Z" fill="#9D9E9F"/>
<path opacity="0.4" d="M16.0798 17.3525L13.8072 15.08C13.5897 14.8625 13.2297 14.8625 13.0122 15.08C12.7947 15.2975 12.7947 15.6575 13.0122 15.875L15.2848 18.1475C15.3973 18.26 15.5397 18.3125 15.6822 18.3125C15.8247 18.3125 15.9673 18.26 16.0798 18.1475C16.2973 17.93 16.2973 17.57 16.0798 17.3525Z" fill="#9D9E9F"/>
</svg>
