<svg width="18" height="18" viewBox="0 0 18 18" fill="none" xmlns="http://www.w3.org/2000/svg">
<path opacity="0.4" d="M9 3.97478V15.9973C8.8725 15.9973 8.7375 15.9748 8.6325 15.9148L8.6025 15.8998C7.1625 15.1123 4.65 14.2873 3.0225 14.0698L2.805 14.0398C2.085 13.9498 1.5 13.2748 1.5 12.5548V3.49478C1.5 2.60228 2.2275 1.92728 3.12 2.00228C4.695 2.12978 7.08 2.92478 8.415 3.75728L8.6025 3.86978C8.715 3.93728 8.8575 3.97478 9 3.97478Z" fill="#9D9E9F"/>
<path d="M16.5 3.50264V12.5551C16.5 13.2751 15.915 13.9501 15.195 14.0401L14.9475 14.0701C13.3125 14.2876 10.7925 15.1201 9.3525 15.9151C9.255 15.9751 9.135 15.9976 9 15.9976V3.97514C9.1425 3.97514 9.285 3.93764 9.3975 3.87014L9.525 3.78764C10.86 2.94764 13.2525 2.14514 14.8275 2.01014H14.8725C15.765 1.93514 16.5 2.60264 16.5 3.50264Z" fill="#9D9E9F"/>
<path d="M5.8125 6.93018H4.125C3.8175 6.93018 3.5625 6.67518 3.5625 6.36768C3.5625 6.06018 3.8175 5.80518 4.125 5.80518H5.8125C6.12 5.80518 6.375 6.06018 6.375 6.36768C6.375 6.67518 6.12 6.93018 5.8125 6.93018Z" fill="#9D9E9F"/>
<path d="M6.375 9.18018H4.125C3.8175 9.18018 3.5625 8.92518 3.5625 8.61768C3.5625 8.31018 3.8175 8.05518 4.125 8.05518H6.375C6.6825 8.05518 6.9375 8.31018 6.9375 8.61768C6.9375 8.92518 6.6825 9.18018 6.375 9.18018Z" fill="#9D9E9F"/>
</svg>
