<svg width="18" height="18" viewBox="0 0 18 18" fill="none" xmlns="http://www.w3.org/2000/svg">
<path opacity="0.4" d="M15.375 5.25V11.25H4.7625C3.585 11.25 2.625 12.21 2.625 13.3875V5.25C2.625 2.25 3.375 1.5 6.375 1.5H11.625C14.625 1.5 15.375 2.25 15.375 5.25Z" fill="#9D9E9F"/>
<path d="M15.375 11.25V13.875C15.375 15.3225 14.1975 16.5 12.75 16.5H5.25C3.8025 16.5 2.625 15.3225 2.625 13.875V13.3875C2.625 12.21 3.585 11.25 4.7625 11.25H15.375Z" fill="#9D9E9F"/>
<path d="M12 5.8125H6C5.6925 5.8125 5.4375 5.5575 5.4375 5.25C5.4375 4.9425 5.6925 4.6875 6 4.6875H12C12.3075 4.6875 12.5625 4.9425 12.5625 5.25C12.5625 5.5575 12.3075 5.8125 12 5.8125Z" fill="#9D9E9F"/>
<path d="M9.75 8.4375H6C5.6925 8.4375 5.4375 8.1825 5.4375 7.875C5.4375 7.5675 5.6925 7.3125 6 7.3125H9.75C10.0575 7.3125 10.3125 7.5675 10.3125 7.875C10.3125 8.1825 10.0575 8.4375 9.75 8.4375Z" fill="#9D9E9F"/>
</svg>
