<svg width="36" height="36" viewBox="0 0 36 36" fill="none" xmlns="http://www.w3.org/2000/svg">
<path d="M15.7916 6.55147V9.24935H13.6333C11.2854 9.24935 10.1042 10.4306 10.1042 12.7785V26.7493H6.38545C4.30004 26.7493 3.25 25.6993 3.25 23.6139V6.55147C3.25 4.46605 4.30004 3.41602 6.38545 3.41602H12.6563C14.7417 3.41602 15.7916 4.46605 15.7916 6.55147Z" fill="#888870" fill-opacity="0.533333"/>
<path opacity="0.4" d="M25.6649 12.7791V29.0542C25.6649 31.4021 24.4983 32.5833 22.1503 32.5833H13.6336C11.2857 32.5833 10.1045 31.4021 10.1045 29.0542V12.7791C10.1045 10.4312 11.2857 9.25 13.6336 9.25H22.1503C24.4983 9.25 25.6649 10.4312 25.6649 12.7791Z" fill="#888870" fill-opacity="0.533333"/>
<path d="M32.4166 6.55147V23.6139C32.4166 25.6993 31.3666 26.7493 29.2812 26.7493H25.6645V12.7785C25.6645 10.4306 24.4979 9.24935 22.15 9.24935H19.875V6.55147C19.875 4.46605 20.9249 3.41602 23.0104 3.41602H29.2812C31.3666 3.41602 32.4166 4.46605 32.4166 6.55147Z" fill="#888870"/>
<path d="M20.7503 17.6348H14.917C14.3191 17.6348 13.8232 17.1389 13.8232 16.541C13.8232 15.9431 14.3191 15.4473 14.917 15.4473H20.7503C21.3482 15.4473 21.8441 15.9431 21.8441 16.541C21.8441 17.1389 21.3482 17.6348 20.7503 17.6348Z" fill="#888870"/>
<path d="M20.7503 22.0098H14.917C14.3191 22.0098 13.8232 21.5139 13.8232 20.916C13.8232 20.3181 14.3191 19.8223 14.917 19.8223H20.7503C21.3482 19.8223 21.8441 20.3181 21.8441 20.916C21.8441 21.5139 21.3482 22.0098 20.7503 22.0098Z" fill="#888870"/>
<path d="M18.9272 28.209V32.584H16.7397V28.209C16.7397 27.6111 17.2356 27.1152 17.8335 27.1152C18.4314 27.1152 18.9272 27.6111 18.9272 28.209Z" fill="#888870"/>
</svg>
