<svg width="20" height="20" viewBox="0 0 20 20" fill="none" xmlns="http://www.w3.org/2000/svg">
<path d="M13.9582 2.9665V1.6665C13.9582 1.32484 13.6749 1.0415 13.3332 1.0415C12.9915 1.0415 12.7082 1.32484 12.7082 1.6665V2.9165H7.29153V1.6665C7.29153 1.32484 7.0082 1.0415 6.66653 1.0415C6.32486 1.0415 6.04153 1.32484 6.04153 1.6665V2.9665C3.79153 3.17484 2.69987 4.5165 2.5332 6.50817C2.51653 6.74984 2.71653 6.94983 2.94987 6.94983H17.0499C17.2915 6.94983 17.4915 6.7415 17.4665 6.50817C17.2999 4.5165 16.2082 3.17484 13.9582 2.9665Z" fill="#9D9E9F"/>
<path opacity="0.4" d="M16.6667 8.2002C17.125 8.2002 17.5 8.5752 17.5 9.03353V14.1669C17.5 16.6669 16.25 18.3335 13.3333 18.3335H6.66667C3.75 18.3335 2.5 16.6669 2.5 14.1669V9.03353C2.5 8.5752 2.875 8.2002 3.33333 8.2002H16.6667Z" fill="#9D9E9F"/>
<path d="M7.08333 12.5002C6.86667 12.5002 6.65 12.4085 6.49167 12.2585C6.34167 12.1002 6.25 11.8836 6.25 11.6669C6.25 11.4502 6.34167 11.2336 6.49167 11.0752C6.725 10.8419 7.09167 10.7669 7.4 10.9002C7.50833 10.9419 7.6 11.0002 7.675 11.0752C7.825 11.2336 7.91667 11.4502 7.91667 11.6669C7.91667 11.8836 7.825 12.1002 7.675 12.2585C7.51667 12.4085 7.3 12.5002 7.08333 12.5002Z" fill="#9D9E9F"/>
<path d="M10.0003 12.5002C9.78366 12.5002 9.56699 12.4085 9.40866 12.2585C9.25866 12.1002 9.16699 11.8836 9.16699 11.6669C9.16699 11.4502 9.25866 11.2336 9.40866 11.0752C9.48366 11.0002 9.57532 10.9419 9.68366 10.9002C9.99199 10.7669 10.3587 10.8419 10.592 11.0752C10.742 11.2336 10.8337 11.4502 10.8337 11.6669C10.8337 11.8836 10.742 12.1002 10.592 12.2585C10.5503 12.2919 10.5087 12.3252 10.467 12.3585C10.417 12.3919 10.367 12.4169 10.317 12.4336C10.267 12.4586 10.217 12.4752 10.167 12.4836C10.1087 12.4919 10.0587 12.5002 10.0003 12.5002Z" fill="#9D9E9F"/>
<path d="M12.9163 12.5002C12.6997 12.5002 12.483 12.4085 12.3247 12.2585C12.1747 12.1002 12.083 11.8835 12.083 11.6668C12.083 11.4502 12.1747 11.2335 12.3247 11.0752C12.408 11.0002 12.4913 10.9418 12.5997 10.9002C12.7497 10.8335 12.9163 10.8168 13.083 10.8502C13.133 10.8585 13.183 10.8752 13.233 10.9002C13.283 10.9168 13.333 10.9419 13.383 10.9752C13.4247 11.0085 13.4663 11.0418 13.508 11.0752C13.658 11.2335 13.7497 11.4502 13.7497 11.6668C13.7497 11.8835 13.658 12.1002 13.508 12.2585C13.4663 12.2918 13.4247 12.3252 13.383 12.3585C13.333 12.3918 13.283 12.4169 13.233 12.4335C13.183 12.4585 13.133 12.4752 13.083 12.4835C13.0247 12.4918 12.9663 12.5002 12.9163 12.5002Z" fill="#9D9E9F"/>
<path d="M7.08333 15.4167C6.975 15.4167 6.86667 15.3917 6.76667 15.35C6.65833 15.3084 6.575 15.25 6.49167 15.175C6.34167 15.0167 6.25 14.8 6.25 14.5833C6.25 14.3667 6.34167 14.15 6.49167 13.9917C6.575 13.9167 6.65833 13.8583 6.76667 13.8167C6.91667 13.75 7.08333 13.7333 7.25 13.7667C7.3 13.775 7.35 13.7917 7.4 13.8167C7.45 13.8333 7.5 13.8584 7.55 13.8917C7.59167 13.925 7.63333 13.9584 7.675 13.9917C7.825 14.15 7.91667 14.3667 7.91667 14.5833C7.91667 14.8 7.825 15.0167 7.675 15.175C7.63333 15.2083 7.59167 15.25 7.55 15.275C7.5 15.3083 7.45 15.3334 7.4 15.35C7.35 15.375 7.3 15.3917 7.25 15.4C7.19167 15.4084 7.14167 15.4167 7.08333 15.4167Z" fill="#9D9E9F"/>
<path d="M10.0003 15.4165C9.78366 15.4165 9.56699 15.3248 9.40866 15.1748C9.25866 15.0165 9.16699 14.7998 9.16699 14.5832C9.16699 14.3665 9.25866 14.1498 9.40866 13.9915C9.71699 13.6832 10.2837 13.6832 10.592 13.9915C10.742 14.1498 10.8337 14.3665 10.8337 14.5832C10.8337 14.7998 10.742 15.0165 10.592 15.1748C10.4337 15.3248 10.217 15.4165 10.0003 15.4165Z" fill="#9D9E9F"/>
<path d="M12.9163 15.4165C12.6997 15.4165 12.483 15.3248 12.3247 15.1748C12.1747 15.0165 12.083 14.7998 12.083 14.5832C12.083 14.3665 12.1747 14.1498 12.3247 13.9915C12.633 13.6832 13.1997 13.6832 13.508 13.9915C13.658 14.1498 13.7497 14.3665 13.7497 14.5832C13.7497 14.7998 13.658 15.0165 13.508 15.1748C13.3497 15.3248 13.133 15.4165 12.9163 15.4165Z" fill="#9D9E9F"/>
</svg>
