<svg width="18" height="18" viewBox="0 0 18 18" fill="none" xmlns="http://www.w3.org/2000/svg">
<path opacity="0.4" d="M1.5 9.65995V8.33995C1.5 7.55995 2.1375 6.91495 2.925 6.91495C4.2825 6.91495 4.8375 5.95495 4.155 4.77745C3.765 4.10245 3.9975 3.22495 4.68 2.83495L5.9775 2.09245C6.57 1.73995 7.335 1.94995 7.6875 2.54245L7.77 2.68495C8.445 3.86245 9.555 3.86245 10.2375 2.68495L10.32 2.54245C10.6725 1.94995 11.4375 1.73995 12.03 2.09245L13.3275 2.83495C14.01 3.22495 14.2425 4.10245 13.8525 4.77745C13.17 5.95495 13.725 6.91495 15.0825 6.91495C15.8625 6.91495 16.5075 7.55245 16.5075 8.33995V9.65995C16.5075 10.44 15.87 11.085 15.0825 11.085C13.725 11.085 13.17 12.045 13.8525 13.2225C14.2425 13.905 14.01 14.775 13.3275 15.165L12.03 15.9075C11.4375 16.26 10.6725 16.05 10.32 15.4575L10.2375 15.315C9.5625 14.1375 8.4525 14.1375 7.77 15.315L7.6875 15.4575C7.335 16.05 6.57 16.26 5.9775 15.9075L4.68 15.165C3.9975 14.775 3.765 13.8975 4.155 13.2225C4.8375 12.045 4.2825 11.085 2.925 11.085C2.1375 11.085 1.5 10.44 1.5 9.65995Z" fill="#9D9E9F"/>
<path d="M9 11.4375C10.3462 11.4375 11.4375 10.3462 11.4375 9C11.4375 7.65381 10.3462 6.5625 9 6.5625C7.65381 6.5625 6.5625 7.65381 6.5625 9C6.5625 10.3462 7.65381 11.4375 9 11.4375Z" fill="#9D9E9F"/>
</svg>
