<svg width="14" height="14" viewBox="0 0 14 14" fill="none" xmlns="http://www.w3.org/2000/svg">
<path d="M6.99974 7.70872L1.75374 12.9547C1.66041 13.0481 1.54574 13.0981 1.40974 13.1047C1.27374 13.1114 1.15241 13.0614 1.04574 12.9547C0.939075 12.8481 0.885742 12.7301 0.885742 12.6007C0.885742 12.4714 0.939075 12.3534 1.04574 12.2467L6.29174 7.00072L1.04574 1.75472C0.952409 1.66139 0.902409 1.54672 0.895742 1.41072C0.889075 1.27472 0.939075 1.15339 1.04574 1.04672C1.15241 0.940052 1.27041 0.886719 1.39974 0.886719C1.52908 0.886719 1.64708 0.940052 1.75374 1.04672L6.99974 6.29272L12.2457 1.04672C12.3391 0.953385 12.4541 0.903385 12.5907 0.896719C12.7261 0.890052 12.8471 0.940052 12.9537 1.04672C13.0604 1.15339 13.1137 1.27139 13.1137 1.40072C13.1137 1.53005 13.0604 1.64805 12.9537 1.75472L7.70774 7.00072L12.9537 12.2467C13.0471 12.3401 13.0971 12.4551 13.1037 12.5917C13.1104 12.7271 13.0604 12.8481 12.9537 12.9547C12.8471 13.0614 12.7291 13.1147 12.5997 13.1147C12.4704 13.1147 12.3524 13.0614 12.2457 12.9547L6.99974 7.70872Z" fill="#32302C"/>
</svg>
