<svg width="18" height="19" viewBox="0 0 18 19" fill="none" xmlns="http://www.w3.org/2000/svg">
<path opacity="0.4" d="M15.375 7.9882H13.2075C11.43 7.9882 9.9825 6.5407 9.9825 4.7632V2.5957C9.9825 2.1832 9.645 1.8457 9.2325 1.8457H6.0525C3.7425 1.8457 1.875 3.3457 1.875 6.0232V12.6682C1.875 15.3457 3.7425 16.8457 6.0525 16.8457H11.9475C14.2575 16.8457 16.125 15.3457 16.125 12.6682V8.7382C16.125 8.3257 15.7875 7.9882 15.375 7.9882Z" fill="white"/>
<path d="M11.8498 2.00356C11.5423 1.69606 11.0098 1.90606 11.0098 2.33356V4.95106C11.0098 6.04606 11.9398 6.95356 13.0723 6.95356C13.7848 6.96106 14.7748 6.96106 15.6223 6.96106C16.0498 6.96106 16.2748 6.45856 15.9748 6.15856C14.8948 5.07106 12.9598 3.11356 11.8498 2.00356Z" fill="white"/>
<path d="M10.125 10.6582H5.625C5.3175 10.6582 5.0625 10.4032 5.0625 10.0957C5.0625 9.7882 5.3175 9.5332 5.625 9.5332H10.125C10.4325 9.5332 10.6875 9.7882 10.6875 10.0957C10.6875 10.4032 10.4325 10.6582 10.125 10.6582Z" fill="white"/>
<path d="M8.625 13.6582H5.625C5.3175 13.6582 5.0625 13.4032 5.0625 13.0957C5.0625 12.7882 5.3175 12.5332 5.625 12.5332H8.625C8.9325 12.5332 9.1875 12.7882 9.1875 13.0957C9.1875 13.4032 8.9325 13.6582 8.625 13.6582Z" fill="white"/>
</svg>
