<svg width="18" height="18" viewBox="0 0 18 18" fill="none" xmlns="http://www.w3.org/2000/svg">
<path opacity="0.4" d="M15.375 7.6425H13.2075C11.43 7.6425 9.9825 6.195 9.9825 4.4175V2.25C9.9825 1.8375 9.645 1.5 9.2325 1.5H6.0525C3.7425 1.5 1.875 3 1.875 5.6775V12.3225C1.875 15 3.7425 16.5 6.0525 16.5H11.9475C14.2575 16.5 16.125 15 16.125 12.3225V8.3925C16.125 7.98 15.7875 7.6425 15.375 7.6425Z" fill="#9D9E9F"/>
<path d="M11.8498 1.65737C11.5423 1.34987 11.0098 1.55987 11.0098 1.98737V4.60487C11.0098 5.69987 11.9398 6.60737 13.0723 6.60737C13.7848 6.61487 14.7748 6.61487 15.6223 6.61487C16.0498 6.61487 16.2748 6.11237 15.9748 5.81237C14.8948 4.72487 12.9598 2.76737 11.8498 1.65737Z" fill="#9D9E9F"/>
<path d="M8.3699 9.5477C7.9274 9.4052 7.4549 9.4877 7.1249 9.7502C6.7799 9.4877 6.3224 9.4052 5.8874 9.5477C4.9349 9.8552 4.6349 10.9427 4.8974 11.7752C5.3024 13.0502 6.6449 13.7027 7.1324 13.7027C7.6049 13.7027 8.9699 13.0277 9.3674 11.7752C9.6224 10.9427 9.3224 9.8552 8.3699 9.5477Z" fill="#9D9E9F"/>
</svg>
