<svg width="14" height="14" viewBox="0 0 14 14" fill="none" xmlns="http://www.w3.org/2000/svg">
<path d="M6.29329 3.05281C6.52714 3.01696 6.76339 2.99913 6.99996 2.99947C9.11996 2.99947 11.1133 4.52614 12.2733 6.99947C12.0959 7.37587 11.8955 7.741 11.6733 8.09281C11.6027 8.20201 11.5657 8.32946 11.5666 8.45947C11.5681 8.60496 11.6172 8.74598 11.7063 8.86099C11.7954 8.976 11.9197 9.05871 12.0602 9.09648C12.2007 9.13425 12.3497 9.12502 12.4845 9.07019C12.6193 9.01536 12.7324 8.91794 12.8066 8.79281C13.1172 8.30476 13.3871 7.79191 13.6133 7.25947C13.6491 7.17629 13.6675 7.08669 13.6675 6.99614C13.6675 6.90559 13.6491 6.81599 13.6133 6.73281C12.2666 3.60614 9.73329 1.66614 6.99996 1.66614C6.68707 1.66456 6.37468 1.69134 6.06663 1.74614C5.97908 1.76102 5.89532 1.793 5.82013 1.84026C5.74494 1.88751 5.6798 1.94911 5.62842 2.02154C5.57704 2.09397 5.54042 2.17581 5.52067 2.26239C5.50092 2.34897 5.49841 2.43859 5.51329 2.52614C5.52818 2.61369 5.56016 2.69745 5.60741 2.77263C5.65467 2.84782 5.71627 2.91297 5.7887 2.96435C5.86112 3.01573 5.94297 3.05234 6.02954 3.0721C6.11612 3.09185 6.20575 3.09436 6.29329 3.07947V3.05281ZM1.47329 0.526139C1.41114 0.46398 1.33734 0.414673 1.25613 0.381033C1.17491 0.347392 1.08787 0.330078 0.999961 0.330078C0.912055 0.330078 0.825009 0.347392 0.743795 0.381033C0.66258 0.414673 0.588786 0.46398 0.526627 0.526139C0.401092 0.651675 0.330566 0.821938 0.330566 0.999473C0.330566 1.17701 0.401092 1.34727 0.526627 1.47281L2.59329 3.53281C1.65034 4.44049 0.899865 5.5288 0.386627 6.73281C0.349919 6.81692 0.330971 6.9077 0.330971 6.99947C0.330971 7.09124 0.349919 7.18203 0.386627 7.26614C1.73329 10.3928 4.26663 12.3328 6.99996 12.3328C8.19803 12.3245 9.36781 11.9678 10.3666 11.3061L12.5266 13.4728C12.5886 13.5353 12.6623 13.5849 12.7436 13.6187C12.8248 13.6526 12.912 13.67 13 13.67C13.088 13.67 13.1751 13.6526 13.2563 13.6187C13.3376 13.5849 13.4113 13.5353 13.4733 13.4728C13.5358 13.4108 13.5854 13.3371 13.6192 13.2559C13.6531 13.1746 13.6705 13.0875 13.6705 12.9995C13.6705 12.9115 13.6531 12.8243 13.6192 12.7431C13.5854 12.6618 13.5358 12.5881 13.4733 12.5261L1.47329 0.526139ZM5.71329 6.65281L7.34663 8.28614C7.23395 8.31845 7.11717 8.33417 6.99996 8.33281C6.64634 8.33281 6.3072 8.19233 6.05715 7.94228C5.8071 7.69223 5.66663 7.35309 5.66663 6.99947C5.66526 6.88226 5.68098 6.76548 5.71329 6.65281ZM6.99996 10.9995C4.87996 10.9995 2.88663 9.47281 1.73329 6.99947C2.16402 6.04864 2.77534 5.19052 3.53329 4.47281L4.71329 5.66614C4.43613 6.172 4.33045 6.7541 4.41213 7.32511C4.49381 7.89612 4.75844 8.42525 5.16631 8.83312C5.57419 9.241 6.10331 9.50562 6.67432 9.5873C7.24533 9.66898 7.82743 9.56331 8.33329 9.28614L9.39329 10.3328C8.66736 10.7601 7.84224 10.9899 6.99996 10.9995Z" fill="#37352F"/>
</svg>
