<svg width="14" height="11" viewBox="0 0 14 11" fill="none" xmlns="http://www.w3.org/2000/svg">
<path d="M13.6134 5.23366C12.2667 2.10699 9.73338 0.166992 7.00004 0.166992C4.26671 0.166992 1.73338 2.10699 0.386711 5.23366C0.350002 5.31777 0.331055 5.40855 0.331055 5.50033C0.331055 5.5921 0.350002 5.68288 0.386711 5.76699C1.73338 8.89366 4.26671 10.8337 7.00004 10.8337C9.73338 10.8337 12.2667 8.89366 13.6134 5.76699C13.6501 5.68288 13.669 5.5921 13.669 5.50033C13.669 5.40855 13.6501 5.31777 13.6134 5.23366ZM7.00004 9.50033C4.88671 9.50033 2.88671 7.97366 1.73338 5.50033C2.88671 3.02699 4.88671 1.50033 7.00004 1.50033C9.11338 1.50033 11.1134 3.02699 12.2667 5.50033C11.1134 7.97366 9.11338 9.50033 7.00004 9.50033ZM7.00004 2.83366C6.47263 2.83366 5.95706 2.99006 5.51852 3.28307C5.07999 3.57609 4.7382 3.99257 4.53637 4.47984C4.33453 4.96711 4.28172 5.50328 4.38462 6.02057C4.48751 6.53785 4.74149 7.013 5.11443 7.38594C5.48737 7.75888 5.96252 8.01286 6.4798 8.11575C6.99709 8.21865 7.53326 8.16584 8.02053 7.964C8.5078 7.76217 8.92428 7.42038 9.2173 6.98185C9.51031 6.54331 9.66671 6.02774 9.66671 5.50033C9.66671 4.79308 9.38576 4.1148 8.88566 3.61471C8.38557 3.11461 7.70729 2.83366 7.00004 2.83366ZM7.00004 6.83366C6.73634 6.83366 6.47855 6.75546 6.25928 6.60895C6.04002 6.46244 5.86912 6.2542 5.76821 6.01057C5.66729 5.76693 5.64088 5.49885 5.69233 5.2402C5.74378 4.98156 5.87077 4.74399 6.05724 4.55752C6.24371 4.37105 6.48128 4.24406 6.73992 4.19261C6.99857 4.14116 7.26665 4.16757 7.51029 4.26849C7.75392 4.3694 7.96216 4.5403 8.10867 4.75956C8.25518 4.97883 8.33338 5.23662 8.33338 5.50033C8.33338 5.85395 8.1929 6.19309 7.94285 6.44313C7.6928 6.69318 7.35367 6.83366 7.00004 6.83366Z" fill="#37352F"/>
</svg>
