<svg width="19" height="20" viewBox="0 0 19 20" fill="none" xmlns="http://www.w3.org/2000/svg">
<path opacity="0.4" d="M12.6425 2.5H6.3575C3.6275 2.5 2 4.1275 2 6.8575V13.1425C2 15.8725 3.6275 17.5 6.3575 17.5H12.6425C15.3725 17.5 17 15.8725 17 13.1425V6.8575C17 4.1275 15.3725 2.5 12.6425 2.5Z" fill="#9D9E9F"/>
<path d="M14.2324 7.65234C14.2324 7.95984 13.9849 8.21484 13.6699 8.21484H9.73242C9.42492 8.21484 9.16992 7.95984 9.16992 7.65234C9.16992 7.34484 9.42492 7.08984 9.73242 7.08984H13.6699C13.9849 7.08984 14.2324 7.34484 14.2324 7.65234Z" fill="#9D9E9F"/>
<path d="M7.97742 6.92492L6.28992 8.61242C6.17742 8.72492 6.03492 8.77742 5.89242 8.77742C5.74992 8.77742 5.59992 8.72492 5.49492 8.61242L4.93242 8.04992C4.70742 7.83242 4.70742 7.47242 4.93242 7.25492C5.14992 7.03742 5.50242 7.03742 5.72742 7.25492L5.89242 7.41992L7.18242 6.12992C7.39992 5.91242 7.75242 5.91242 7.97742 6.12992C8.19492 6.34742 8.19492 6.70742 7.97742 6.92492Z" fill="#9D9E9F"/>
<path d="M14.2324 12.9023C14.2324 13.2098 13.9849 13.4648 13.6699 13.4648H9.73242C9.42492 13.4648 9.16992 13.2098 9.16992 12.9023C9.16992 12.5948 9.42492 12.3398 9.73242 12.3398H13.6699C13.9849 12.3398 14.2324 12.5948 14.2324 12.9023Z" fill="#9D9E9F"/>
<path d="M7.97742 12.1749L6.28992 13.8624C6.17742 13.9749 6.03492 14.0274 5.89242 14.0274C5.74992 14.0274 5.59992 13.9749 5.49492 13.8624L4.93242 13.2999C4.70742 13.0824 4.70742 12.7224 4.93242 12.5049C5.14992 12.2874 5.50242 12.2874 5.72742 12.5049L5.89242 12.6699L7.18242 11.3799C7.39992 11.1624 7.75242 11.1624 7.97742 11.3799C8.19492 11.5974 8.19492 11.9574 7.97742 12.1749Z" fill="#9D9E9F"/>
</svg>
