<svg width="22" height="22" viewBox="0 0 22 22" fill="none" xmlns="http://www.w3.org/2000/svg">
<path d="M10.9995 3.5C9.0768 3.50548 7.22963 4.24919 5.83951 5.5775V4.25C5.83951 4.05109 5.76049 3.86032 5.61984 3.71967C5.47919 3.57902 5.28842 3.5 5.08951 3.5C4.8906 3.5 4.69983 3.57902 4.55918 3.71967C4.41853 3.86032 4.33951 4.05109 4.33951 4.25V7.625C4.33951 7.82391 4.41853 8.01468 4.55918 8.15533C4.69983 8.29598 4.8906 8.375 5.08951 8.375H8.46451C8.66342 8.375 8.85419 8.29598 8.99484 8.15533C9.13549 8.01468 9.21451 7.82391 9.21451 7.625C9.21451 7.42609 9.13549 7.23532 8.99484 7.09467C8.85419 6.95402 8.66342 6.875 8.46451 6.875H6.66451C7.62885 5.86727 8.91414 5.22699 10.2994 5.06425C11.6847 4.90151 13.0834 5.22648 14.255 5.98328C15.4266 6.74009 16.298 7.88143 16.7193 9.21109C17.1405 10.5408 17.0854 11.9756 16.5633 13.269C16.0413 14.5625 15.0849 15.6336 13.8586 16.2982C12.6324 16.9629 11.2129 17.1796 9.84418 16.911C8.47548 16.6424 7.24311 15.9054 6.35895 14.8266C5.4748 13.7479 4.9941 12.3948 4.99951 11C4.99951 10.8011 4.92049 10.6103 4.77984 10.4697C4.63919 10.329 4.44842 10.25 4.24951 10.25C4.0506 10.25 3.85983 10.329 3.71918 10.4697C3.57853 10.6103 3.49951 10.8011 3.49951 11C3.49951 12.4834 3.93938 13.9334 4.76349 15.1668C5.5876 16.4001 6.75894 17.3614 8.12939 17.9291C9.49983 18.4968 11.0078 18.6453 12.4627 18.3559C13.9175 18.0665 15.2539 17.3522 16.3028 16.3033C17.3517 15.2544 18.066 13.918 18.3554 12.4632C18.6448 11.0083 18.4963 9.50032 17.9286 8.12987C17.361 6.75943 16.3997 5.58809 15.1663 4.76398C13.9329 3.93987 12.4829 3.5 10.9995 3.5ZM10.9995 8C10.8006 8 10.6098 8.07902 10.4692 8.21967C10.3285 8.36032 10.2495 8.55109 10.2495 8.75V11C10.2495 11.1989 10.3285 11.3897 10.4692 11.5303C10.6098 11.671 10.8006 11.75 10.9995 11.75H12.4995C12.6984 11.75 12.8892 11.671 13.0298 11.5303C13.1705 11.3897 13.2495 11.1989 13.2495 11C13.2495 10.8011 13.1705 10.6103 13.0298 10.4697C12.8892 10.329 12.6984 10.25 12.4995 10.25H11.7495V8.75C11.7495 8.55109 11.6705 8.36032 11.5298 8.21967C11.3892 8.07902 11.1984 8 10.9995 8Z" fill="#8B8A89"/>
</svg>
