<svg width="19" height="18" viewBox="0 0 19 18" fill="none" xmlns="http://www.w3.org/2000/svg">
<path d="M15.8 6.29981C17.2912 6.29981 18.5 7.50864 18.5 8.99981C18.5 10.491 17.2912 11.6998 15.8 11.6998L3.2 11.6998C1.70883 11.6998 0.5 10.491 0.5 8.9998C0.5 7.50864 1.70883 6.2998 3.2 6.2998L15.8 6.29981Z" fill="#D0D0CD"/>
<path d="M6.80029 2.7C6.80029 1.20883 8.00912 0 9.50029 0C10.9915 0 12.2003 1.20883 12.2003 2.7V15.3C12.2003 16.7912 10.9915 18 9.50029 18C8.00912 18 6.80029 16.7912 6.80029 15.3V2.7Z" fill="#91918E"/>
<path d="M6.80029 2.7C6.80029 1.20883 8.00912 0 9.50029 0C10.9915 0 12.2003 1.20883 12.2003 2.7V15.3C12.2003 16.7912 10.9915 18 9.50029 18C8.00912 18 6.80029 16.7912 6.80029 15.3V2.7Z" fill="#91918E" style="mix-blend-mode:screen"/>
<path d="M12.0462 2.6353C13.1006 1.58128 14.8102 1.58112 15.8646 2.6353C16.919 3.68975 16.919 5.40019 15.8646 6.45464L13.3187 8.99956L15.8646 11.5455C16.9189 12.5998 16.9188 14.3094 15.8646 15.3638C14.8101 16.4183 13.1007 16.4182 12.0462 15.3638L9.50031 12.8179L6.95441 15.3638C5.89996 16.4183 4.1905 16.4183 3.13605 15.3638C2.08174 14.3094 2.08165 12.5999 3.13605 11.5455L5.68097 8.99956L3.13605 6.45464C2.0816 5.40019 2.0816 3.68975 3.13605 2.6353C4.19042 1.58117 5.90001 1.58123 6.95441 2.6353L9.50031 5.1812L12.0462 2.6353Z" fill="#91918E"/>
<path d="M12.0462 2.6353C13.1006 1.58128 14.8102 1.58112 15.8646 2.6353C16.919 3.68975 16.919 5.40019 15.8646 6.45464L13.3187 8.99956L15.8646 11.5455C16.9189 12.5998 16.9188 14.3094 15.8646 15.3638C14.8101 16.4183 13.1007 16.4182 12.0462 15.3638L9.50031 12.8179L6.95441 15.3638C5.89996 16.4183 4.1905 16.4183 3.13605 15.3638C2.08174 14.3094 2.08165 12.5999 3.13605 11.5455L5.68097 8.99956L3.13605 6.45464C2.0816 5.40019 2.0816 3.68975 3.13605 2.6353C4.19042 1.58117 5.90001 1.58123 6.95441 2.6353L9.50031 5.1812L12.0462 2.6353Z" fill="#91918E" style="mix-blend-mode:overlay"/>
<path fill-rule="evenodd" clip-rule="evenodd" d="M9.50015 4.69816C9.30133 4.69816 9.14015 4.85933 9.14015 5.05816V7.78339C9.14015 7.89244 9.14015 7.94696 9.11859 7.97221C9.09988 7.99411 9.07181 8.00574 9.04309 8.00348C9.00999 8.00087 8.97144 7.96232 8.89433 7.88521L5.5545 4.54538C5.41391 4.40479 5.18597 4.40479 5.04538 4.54538C4.9048 4.68597 4.9048 4.91391 5.04538 5.0545L8.38522 8.39433C8.46232 8.47144 8.50088 8.50999 8.50348 8.54309C8.50574 8.57181 8.49412 8.59988 8.47221 8.61859C8.44696 8.64015 8.39244 8.64015 8.28339 8.64015H5.58515C5.38633 8.64015 5.22515 8.80133 5.22515 9.00015C5.22515 9.19898 5.38633 9.36015 5.58515 9.36015H8.28339C8.39244 9.36015 8.44696 9.36015 8.47221 9.38172C8.49412 9.40043 8.50574 9.4285 8.50348 9.45722C8.50088 9.49032 8.46232 9.52887 8.38522 9.60598L5.04538 12.9458C4.90479 13.0864 4.90479 13.3143 5.04538 13.4549C5.18597 13.5955 5.41391 13.5955 5.5545 13.4549L8.89433 10.1151C8.97144 10.038 9.00999 9.99944 9.04309 9.99683C9.07181 9.99457 9.09988 10.0062 9.11859 10.0281C9.14015 10.0534 9.14015 10.1079 9.14015 10.2169V12.9422C9.14015 13.141 9.30133 13.3022 9.50015 13.3022C9.69898 13.3022 9.86015 13.141 9.86015 12.9422V10.2169C9.86015 10.1079 9.86015 10.0533 9.88172 10.0281C9.90043 10.0062 9.92849 9.99457 9.95722 9.99683C9.99032 9.99943 10.0289 10.038 10.106 10.1151L13.4458 13.4549C13.5864 13.5955 13.8143 13.5955 13.9549 13.4549C14.0955 13.3143 14.0955 13.0864 13.9549 12.9458L10.6151 9.60598C10.538 9.52887 10.4994 9.49032 10.4968 9.45722C10.4946 9.4285 10.5062 9.40043 10.5281 9.38172C10.5533 9.36016 10.6079 9.36016 10.7169 9.36016H13.4152C13.614 9.36016 13.7752 9.19898 13.7752 9.00016C13.7752 8.80133 13.614 8.64016 13.4152 8.64016H10.7169C10.6079 8.64016 10.5534 8.64016 10.5281 8.61859C10.5062 8.59988 10.4946 8.57181 10.4968 8.54309C10.4994 8.50999 10.538 8.47144 10.6151 8.39433L13.9549 5.0545C14.0955 4.91391 14.0955 4.68597 13.9549 4.54538C13.8143 4.40479 13.5864 4.40479 13.4458 4.54538L10.106 7.88522C10.0289 7.96232 9.99032 8.00088 9.95722 8.00348C9.92849 8.00574 9.90043 7.99412 9.88172 7.97221C9.86015 7.94696 9.86015 7.89244 9.86015 7.78339V5.05816C9.86015 4.85933 9.69898 4.69816 9.50015 4.69816Z" fill="#F3F4F7"/>
</svg>
