<svg width="76" height="20" viewBox="0 0 76 20" fill="none" xmlns="http://www.w3.org/2000/svg">
<g clip-path="url(#clip0_487_10938)">
<path d="M8.65967 9.55653L10.0658 11.1166L11.9568 12.2894L12.2857 9.56637L11.9568 6.90479L10.0296 7.93504L8.65967 9.55653Z" fill="#00832D"/>
<path d="M0.5 12.0361V14.3565C0.5 14.8864 0.943082 15.3165 1.48905 15.3165H3.87968L4.37471 13.5633L3.87968 12.0361L2.23954 11.5557L0.5 12.0361Z" fill="#0066DA"/>
<path d="M3.87968 3.79688L0.5 7.07725L2.23965 7.55659L3.87968 7.07725L4.3657 5.57088L3.87968 3.79688Z" fill="#E94235"/>
<path d="M0.5 12.0371H3.87963V7.07715H0.5V12.0371Z" fill="#2684FC"/>
<path d="M14.1156 5.18577L11.9565 6.90492V12.2895L14.1245 14.0153C14.449 14.262 14.9237 14.0372 14.9237 13.6367V5.55666C14.9237 5.15181 14.4377 4.92802 14.1155 5.18582" fill="#00AC47"/>
<path d="M8.65992 9.55664V12.0361H3.87988V15.3164H10.9681C11.514 15.3164 11.9571 14.8863 11.9571 14.3565V12.2895L8.65992 9.55664Z" fill="#00AC47"/>
<path d="M10.9681 3.79688H3.87988V7.07725H8.65992V9.55667L11.9571 6.90487V4.75691C11.9571 4.22699 11.514 3.79693 10.9681 3.79693" fill="#FFBA00"/>
</g>
<g clip-path="url(#clip1_487_10938)">
<path d="M34.8951 8.00098H38.5113C38.853 8.00098 39.1299 8.28284 39.1299 8.63047V11.9822C39.1299 13.2599 38.112 14.2958 36.8564 14.2958H36.8456C35.59 14.2959 34.5719 13.2603 34.5718 11.9826V8.33003C34.5718 8.28681 34.5801 8.24402 34.5963 8.20409C34.6126 8.16416 34.6364 8.12788 34.6664 8.09732C34.6964 8.06677 34.7321 8.04253 34.7713 8.026C34.8106 8.00946 34.8526 8.00096 34.8951 8.00098Z" fill="#5059C9"/>
<path d="M37.3387 7.33821C38.1478 7.33821 38.8038 6.67072 38.8038 5.84733C38.8038 5.02394 38.1478 4.35645 37.3387 4.35645C36.5295 4.35645 35.8735 5.02394 35.8735 5.84733C35.8735 6.67072 36.5295 7.33821 37.3387 7.33821Z" fill="#5059C9"/>
<path d="M32.7808 7.33822C33.9496 7.33822 34.8971 6.37407 34.8971 5.18474C34.8971 3.9954 33.9496 3.03125 32.7808 3.03125C31.612 3.03125 30.6646 3.9954 30.6646 5.18474C30.6646 6.37407 31.612 7.33822 32.7808 7.33822Z" fill="#7B83EB"/>
<path d="M35.6022 8.00098H29.633C29.2954 8.00949 29.0283 8.29458 29.0362 8.6381V12.461C28.989 14.5224 30.5918 16.2331 32.6175 16.2836C34.6433 16.2331 36.2461 14.5224 36.199 12.461V8.6381C36.2068 8.29458 35.9398 8.00949 35.6022 8.00098Z" fill="#7B83EB"/>
<path opacity="0.1" d="M32.9433 8.00098V13.3581C32.9426 13.4783 32.9069 13.5956 32.8409 13.6952C32.7748 13.7948 32.6814 13.8723 32.5722 13.9181C32.5011 13.9487 32.4247 13.9644 32.3475 13.9644H29.3228C29.2805 13.8551 29.2414 13.7457 29.2088 13.6332C29.0949 13.253 29.0367 12.8578 29.0363 12.4603V8.63709C29.0285 8.29413 29.2951 8.00949 29.6321 8.00103L32.9433 8.00098Z" fill="black"/>
<path opacity="0.2" d="M32.6176 8.00098V13.6895C32.6176 13.768 32.6021 13.8457 32.5721 13.9181C32.5271 14.0292 32.4509 14.1243 32.353 14.1915C32.2551 14.2587 32.1399 14.295 32.0218 14.2958H29.4758C29.4205 14.1864 29.3684 14.0771 29.3228 13.9644C29.279 13.8562 29.241 13.7456 29.2088 13.6332C29.0949 13.253 29.0367 12.8578 29.0363 12.4603V8.63709C29.0285 8.29413 29.2951 8.00949 29.6321 8.00103L32.6176 8.00098Z" fill="black"/>
<path opacity="0.2" d="M32.6177 8.00098V13.0269C32.6152 13.3607 32.3499 13.6307 32.0219 13.6332H29.2088C29.0949 13.253 29.0367 12.8578 29.0363 12.4603V8.63709C29.0285 8.29413 29.2951 8.00949 29.6321 8.00103L32.6177 8.00098Z" fill="black"/>
<path opacity="0.2" d="M32.2921 8.00098V13.0269C32.2896 13.3607 32.0243 13.6307 31.6963 13.6332H29.2088C29.0949 13.253 29.0367 12.8578 29.0363 12.4603V8.63709C29.0285 8.29413 29.2951 8.00949 29.6321 8.00103L32.2921 8.00098Z" fill="black"/>
<path opacity="0.1" d="M32.9431 6.28818V7.33175C32.8878 7.33509 32.8357 7.33843 32.7803 7.33843C32.725 7.33843 32.6729 7.33509 32.6175 7.33175C32.5076 7.32433 32.3987 7.3066 32.292 7.27878C31.9669 7.20044 31.6647 7.04494 31.4101 6.82498C31.1554 6.60502 30.9556 6.32685 30.8268 6.01322C30.7819 5.90638 30.747 5.79543 30.7227 5.68188H32.3473C32.6758 5.68316 32.9419 5.95384 32.9431 6.28818Z" fill="black"/>
<path opacity="0.2" d="M32.6178 6.61942V7.33172C32.5079 7.3243 32.3989 7.30656 32.2922 7.27874C31.9672 7.2004 31.665 7.04489 31.4104 6.82493C31.1557 6.60497 30.9559 6.32681 30.8271 6.01318H32.022C32.3505 6.01441 32.6165 6.28514 32.6178 6.61942Z" fill="black"/>
<path opacity="0.2" d="M32.6178 6.61942V7.33172C32.5079 7.3243 32.3989 7.30656 32.2922 7.27874C31.9672 7.2004 31.665 7.04489 31.4104 6.82493C31.1557 6.60497 30.9559 6.32681 30.8271 6.01318H32.022C32.3505 6.01441 32.6165 6.28514 32.6178 6.61942Z" fill="black"/>
<path opacity="0.2" d="M32.2923 6.61947V7.2788C31.9672 7.20046 31.665 7.04495 31.4104 6.82498C31.1557 6.60501 30.9559 6.32683 30.8271 6.01318H31.6965C32.025 6.01446 32.291 6.28519 32.2923 6.61947Z" fill="black"/>
<path d="M25.7262 6.01324H31.6953C32.025 6.01324 32.2922 6.28514 32.2922 6.62053V12.6946C32.2922 13.03 32.025 13.3019 31.6954 13.3019H25.7262C25.3966 13.3019 25.1294 13.03 25.1294 12.6946V6.62059C25.1294 6.28508 25.3966 6.01324 25.7262 6.01324Z" fill="url(#paint0_linear_487_10938)"/>
<path d="M30.2823 8.325H29.089V11.6314H28.3288V8.325H27.1411V7.68359H30.2823V8.325Z" fill="white"/>
</g>
<g clip-path="url(#clip2_487_10938)">
<path d="M55.2163 12.4488H50.5889C50.2859 12.4488 49.9902 12.2845 49.8497 12.0083C49.6872 11.6873 49.7462 11.3066 49.9975 11.0603L53.2205 7.80559H50.9068C50.271 7.80559 49.761 7.28302 49.761 6.64846H54.0262C54.3293 6.64846 54.6249 6.81271 54.7654 7.08892C54.928 7.40989 54.8689 7.79061 54.6176 8.03692L51.3946 11.2917H54.0632C54.6989 11.2917 55.2163 11.8143 55.2163 12.4488ZM73.5337 6.56641C72.8684 6.56641 72.2771 6.85753 71.8631 7.32035C71.4492 6.85753 70.8578 6.56641 70.1925 6.56641C68.9655 6.56641 67.9601 7.62641 67.9601 8.86559V12.4488C68.5958 12.4488 69.1059 11.9262 69.1059 11.2917V8.85815C69.1059 8.26092 69.5642 7.75333 70.1555 7.73097C70.7765 7.70856 71.2865 8.20866 71.2865 8.82825V11.2917C71.2865 11.9337 71.804 12.4488 72.4323 12.4488V8.85066C72.4323 8.25348 72.8906 7.74584 73.4819 7.72348C74.1029 7.70107 74.6129 8.20123 74.6129 8.82082V11.2842C74.6129 11.9263 75.1304 12.4413 75.7587 12.4413V8.8582C75.7661 7.62641 74.7608 6.56641 73.5337 6.56641ZM61.0116 9.55236C61.0116 11.2021 59.6885 12.5383 58.0548 12.5383C56.4212 12.5383 55.0981 11.2021 55.0981 9.55236C55.0981 7.90261 56.4212 6.56641 58.0548 6.56641C59.6885 6.56641 61.0116 7.90261 61.0116 9.55236ZM59.8659 9.55236C59.8659 8.54461 59.0527 7.72348 58.0548 7.72348C57.0569 7.72348 56.2438 8.54461 56.2438 9.55236C56.2438 10.5602 57.0569 11.3813 58.0548 11.3813C59.0527 11.3813 59.8659 10.5602 59.8659 9.55236ZM67.3835 9.55236C67.3835 11.2021 66.0604 12.5383 64.4267 12.5383C62.7931 12.5383 61.4699 11.2021 61.4699 9.55236C61.4699 7.90261 62.7931 6.56641 64.4267 6.56641C66.0604 6.56641 67.3836 7.90261 67.3836 9.55236M66.2378 9.55236C66.2378 8.54461 65.4247 7.72348 64.4268 7.72348C63.4289 7.72348 62.6158 8.54461 62.6158 9.55236C62.6158 10.5602 63.4289 11.3813 64.4268 11.3813C65.4247 11.3813 66.2378 10.5602 66.2378 9.55236Z" fill="#0B5CFF"/>
</g>
<defs>
<linearGradient id="paint0_linear_487_10938" x1="149.562" y1="-41.4365" x2="629.303" y2="775.095" gradientUnits="userSpaceOnUse">
<stop stop-color="#5A62C3"/>
<stop offset="0.5" stop-color="#4D55BD"/>
<stop offset="1" stop-color="#3940AB"/>
</linearGradient>
<clipPath id="clip0_487_10938">
<rect width="14" height="11.5391" fill="white" transform="translate(0.5 3.79688)"/>
</clipPath>
<clipPath id="clip1_487_10938">
<rect width="14" height="13.0703" fill="white" transform="translate(25.1294 3.03125)"/>
</clipPath>
<clipPath id="clip2_487_10938">
<rect width="26" height="6" fill="white" transform="translate(49.7588 6.56641)"/>
</clipPath>
</defs>
</svg>
