<svg width="14" height="15" viewBox="0 0 14 15" fill="none" xmlns="http://www.w3.org/2000/svg">
<path d="M0.490234 7.50492C0.490234 5.72532 1.19718 4.0186 2.45555 2.76024C3.71392 1.50187 5.42063 0.794922 7.20023 0.794922C8.97984 0.794922 10.6866 1.50187 11.9449 2.76024C13.2033 4.0186 13.9102 5.72532 13.9102 7.50492C13.9102 9.28452 13.2033 10.9912 11.9449 12.2496C10.6866 13.508 8.97984 14.2149 7.20023 14.2149C5.42063 14.2149 3.71392 13.508 2.45555 12.2496C1.19718 10.9912 0.490234 9.28452 0.490234 7.50492ZM3.23847 3.5326C3.72247 3.75436 4.30327 3.94004 4.95711 4.07116C5.03631 3.72796 5.12666 3.4094 5.22815 3.11548C5.34575 2.76456 5.49663 2.42569 5.67871 2.10348C4.757 2.36456 3.91711 2.85644 3.23847 3.5326ZM2.52215 4.40732C2.016 5.16943 1.70503 6.04432 1.61663 6.95492H4.60511C4.62447 6.32572 4.67639 5.72028 4.75735 5.15268C3.91079 4.9846 3.14959 4.73028 2.52215 4.40732ZM1.61663 8.05492C1.7053 8.9656 2.01657 9.84049 2.52303 10.6025C3.14959 10.2796 3.91079 10.0252 4.75823 9.85628C4.67475 9.25903 4.62363 8.6577 4.60511 8.05492H1.61663ZM5.70599 8.05492C5.72447 8.63308 5.77287 9.18396 5.84503 9.69348C6.74611 9.60048 7.65436 9.60048 8.55544 9.69348C8.62759 9.18308 8.67599 8.63308 8.69448 8.05492H5.70599ZM9.79535 8.05492C9.77716 8.65798 9.72634 9.2596 9.64312 9.85716C10.3867 10.0059 11.0643 10.2197 11.6442 10.4881C11.7239 10.5239 11.7935 10.579 11.8466 10.6483C12.3711 9.87586 12.6933 8.98418 12.7838 8.05492H9.79535ZM12.7838 6.95492C12.6952 6.04425 12.3839 5.16935 11.8774 4.40732C11.2509 4.73028 10.4897 4.9846 9.64223 5.15268C9.72407 5.72028 9.776 6.32572 9.79535 6.95492H12.7838ZM8.69448 6.95492C8.67821 6.4066 8.63179 5.85959 8.55544 5.31636C7.65436 5.40936 6.74611 5.40936 5.84503 5.31636C5.77287 5.82676 5.72447 6.37676 5.70599 6.95492H8.69448ZM3.23847 11.4772C3.91711 12.1534 4.757 12.6453 5.67871 12.9064C5.49663 12.5842 5.34575 12.2453 5.22815 11.8944C5.12151 11.5807 5.03105 11.2617 4.95711 10.9387C4.36562 11.0523 3.78901 11.233 3.23847 11.4772ZM11.162 11.4772C10.6114 11.2333 10.0348 11.0529 9.44335 10.9396C9.36415 11.2822 9.27381 11.6004 9.17231 11.8944C9.05472 12.2453 8.90384 12.5842 8.72176 12.9064C9.64347 12.6453 10.4834 12.1534 11.162 11.4772ZM8.13215 11.5362C8.21194 11.3045 8.28498 11.0522 8.35127 10.7794C7.58599 10.7057 6.81541 10.7054 6.05007 10.7785C6.11519 11.0519 6.18794 11.3045 6.26831 11.5362C6.44255 12.0422 6.63792 12.4118 6.82712 12.6441C7.02071 12.8808 7.14919 12.9099 7.20023 12.9099C7.25127 12.9099 7.38063 12.8808 7.57335 12.6441C7.76255 12.4118 7.95791 12.0422 8.13215 11.5362ZM11.162 3.5326C10.4834 2.85644 9.64347 2.36456 8.72176 2.10348C8.89423 2.40004 9.04383 2.74236 9.17231 3.11548C9.27381 3.4094 9.36415 3.72796 9.44335 4.07116C10.0348 3.95758 10.6115 3.77689 11.162 3.5326ZM7.20023 4.28588C7.59682 4.2853 7.9805 4.26711 8.35127 4.23132C8.29086 3.97528 8.21773 3.72241 8.13215 3.47364C7.95791 2.96764 7.76255 2.59804 7.57335 2.36572C7.37975 2.129 7.25127 2.09996 7.20023 2.09996C7.14919 2.09996 7.02071 2.129 6.82712 2.36572C6.63792 2.59804 6.44255 2.96764 6.26831 3.47364C6.18853 3.70538 6.11578 3.95794 6.05007 4.23132C6.42026 4.26711 6.80365 4.2853 7.20023 4.28588Z" fill="#474644" fill-opacity="0.6"/>
</svg>
