<svg width="13" height="12" viewBox="0 0 13 12" fill="none" xmlns="http://www.w3.org/2000/svg">
<g clip-path="url(#clip0_500_1511)">
<path d="M1.79414 9.86565L2.33828 10.7902C2.45135 10.9849 2.61387 11.1379 2.80469 11.2491C3.35121 10.5666 3.73165 10.0429 3.946 9.67794C4.16353 9.30757 4.43088 8.72825 4.74805 7.93997C3.89322 7.82927 3.24545 7.77393 2.80474 7.77393C2.38172 7.77393 1.73392 7.82927 0.861328 7.93997C0.861328 8.15547 0.917863 8.37097 1.03093 8.56565L1.79414 9.86565Z" fill="#0066DA"/>
<path d="M11.2566 11.2491C11.4474 11.1379 11.61 10.9849 11.723 10.7903L11.9491 10.4079L13.0304 8.56565C13.1414 8.37519 13.1998 8.1595 13.1999 7.93997C12.3223 7.82927 11.6757 7.77393 11.2602 7.77393C10.8136 7.77393 10.1669 7.82927 9.32031 7.93997C9.63372 8.73258 9.89755 9.3119 10.1118 9.67794C10.3279 10.0472 10.7095 10.571 11.2566 11.2491Z" fill="#EA4335"/>
<path d="M7.03076 4.04703C7.66311 3.29574 8.09889 2.71641 8.33811 2.30906C8.53077 1.98105 8.74277 1.45733 8.97412 0.737896C8.78331 0.626662 8.56425 0.571045 8.33811 0.571045H5.72341C5.49727 0.571045 5.27826 0.633632 5.0874 0.737896C5.38173 1.563 5.63145 2.15021 5.83658 2.49952C6.0633 2.88557 6.46136 3.40141 7.03076 4.04703Z" fill="#00832D"/>
<path d="M9.31363 7.93994H4.74849L2.80518 11.2491C2.99594 11.3603 3.215 11.4159 3.44114 11.4159H10.621C10.8471 11.4159 11.0662 11.3533 11.257 11.249L9.31363 7.93994Z" fill="#2684FC"/>
<path d="M7.03062 4.04688L5.08731 0.737793C4.89645 0.849027 4.73392 1.00194 4.62085 1.19662L1.03093 7.31434C0.919948 7.5048 0.861481 7.72048 0.861328 7.94002H4.74805L7.03062 4.04688Z" fill="#00AC47"/>
<path d="M11.235 4.2555L9.43999 1.19662C9.32697 1.00194 9.1644 0.849027 8.97358 0.737793L7.03027 4.04693L9.3128 7.94006H13.1925C13.1925 7.72452 13.1359 7.50907 13.0229 7.31439L11.235 4.2555Z" fill="#FFBA00"/>
</g>
<defs>
<clipPath id="clip0_500_1511">
<rect width="12.138" height="10.8579" fill="white" transform="translate(0.861816 0.571045)"/>
</clipPath>
</defs>
</svg>
