<svg width="28" height="29" viewBox="0 0 28 29" fill="none" xmlns="http://www.w3.org/2000/svg">
<path d="M23.8 10.2998C26.1196 10.2998 28 12.1802 28 14.4998C28 16.8194 26.1196 18.6998 23.8 18.6998L4.2 18.6998C1.8804 18.6998 -1.01393e-07 16.8194 0 14.4998C1.01393e-07 12.1802 1.8804 10.2998 4.2 10.2998L23.8 10.2998Z" fill="#888870"/>
<path d="M18.2002 24.3C18.2002 26.6196 16.3198 28.5 14.0002 28.5C11.6806 28.5 9.80019 26.6196 9.80019 24.3L9.8002 4.7C9.8002 2.3804 11.6806 0.5 14.0002 0.5C16.3198 0.5 18.2002 2.3804 18.2002 4.7L18.2002 24.3Z" fill="#888870"/>
<path d="M24.1695 18.729C25.8097 20.3692 25.8097 23.0285 24.1695 24.6687C22.5293 26.3089 19.87 26.3089 18.2298 24.6687L4.37048 10.8094C2.73028 9.16925 2.73028 6.50995 4.37048 4.86975C6.01069 3.22955 8.66998 3.22955 10.3102 4.86975L24.1695 18.729Z" fill="#EDEDDF"/>
<path d="M10.3105 24.669C8.6703 26.3092 6.01101 26.3092 4.37081 24.669C2.73061 23.0288 2.73061 20.3695 4.37081 18.7293L18.2301 4.87C19.8703 3.22979 22.5296 3.22979 24.1698 4.87C25.81 6.5102 25.81 9.16949 24.1698 10.8097L10.3105 24.669Z" fill="#EDEDDF"/>
<path fill-rule="evenodd" clip-rule="evenodd" d="M14.0946 7.90167C13.7854 7.90167 13.5346 8.15239 13.5346 8.46167V12.7009C13.5346 12.8705 13.5346 12.9554 13.5011 12.9946C13.472 13.0287 13.4283 13.0468 13.3837 13.0433C13.3322 13.0392 13.2722 12.9793 13.1522 12.8593L7.95696 7.66402C7.73826 7.44533 7.38369 7.44533 7.165 7.66402C6.94631 7.88271 6.94631 8.23729 7.165 8.45598L12.3603 13.6513C12.4802 13.7712 12.5402 13.8312 12.5443 13.8827C12.5478 13.9274 12.5297 13.971 12.4956 14.0001C12.4563 14.0337 12.3715 14.0337 12.2019 14.0337H8.00464C7.69536 14.0337 7.44464 14.2844 7.44464 14.5937C7.44464 14.9029 7.69536 15.1537 8.00464 15.1537H12.2019C12.3715 15.1537 12.4563 15.1537 12.4956 15.1872C12.5297 15.2163 12.5478 15.26 12.5443 15.3046C12.5402 15.3561 12.4802 15.4161 12.3603 15.5361L7.165 20.7314C6.9463 20.95 6.9463 21.3046 7.165 21.5233C7.38369 21.742 7.73826 21.742 7.95696 21.5233L13.1522 16.328C13.2722 16.2081 13.3322 16.1481 13.3837 16.144C13.4283 16.1405 13.472 16.1586 13.5011 16.1927C13.5346 16.232 13.5346 16.3168 13.5346 16.4864V20.7257C13.5346 21.0349 13.7854 21.2857 14.0946 21.2857C14.4039 21.2857 14.6546 21.0349 14.6546 20.7257V16.4864C14.6546 16.3168 14.6546 16.232 14.6882 16.1927C14.7173 16.1586 14.7609 16.1405 14.8056 16.144C14.8571 16.1481 14.9171 16.2081 15.037 16.328L20.2323 21.5233C20.451 21.742 20.8056 21.742 21.0243 21.5233C21.243 21.3046 21.243 20.95 21.0243 20.7314L15.829 15.5361C15.709 15.4161 15.6491 15.3561 15.645 15.3046C15.6415 15.26 15.6596 15.2163 15.6937 15.1872C15.7329 15.1537 15.8178 15.1537 15.9874 15.1537H20.1846C20.4939 15.1537 20.7446 14.9029 20.7446 14.5937C20.7446 14.2844 20.4939 14.0337 20.1846 14.0337H15.9874C15.8178 14.0337 15.7329 14.0337 15.6937 14.0001C15.6596 13.971 15.6415 13.9274 15.645 13.8827C15.6491 13.8312 15.7091 13.7712 15.829 13.6513L21.0243 8.45598C21.243 8.23729 21.243 7.88271 21.0243 7.66402C20.8056 7.44533 20.451 7.44533 20.2323 7.66402L15.037 12.8593C14.9171 12.9793 14.8571 13.0392 14.8056 13.0433C14.7609 13.0468 14.7173 13.0287 14.6882 12.9946C14.6546 12.9554 14.6546 12.8706 14.6546 12.7009V8.46167C14.6546 8.15239 14.4039 7.90167 14.0946 7.90167Z" fill="#888870"/>
</svg>
