<svg width="15" height="13" viewBox="0 0 15 13" fill="none" xmlns="http://www.w3.org/2000/svg">
<g clip-path="url(#clip0_450_10857)">
<path d="M8.91797 6.55611L10.3687 8.16563L12.3196 9.37558L12.659 6.56627L12.3196 3.82031L10.3313 4.88323L8.91797 6.55611Z" fill="#00832D"/>
<path d="M0.5 9.11437V11.5083C0.5 12.0549 0.957127 12.4987 1.5204 12.4987H3.98681L4.49753 10.6899L3.98681 9.11437L2.29468 8.61865L0.5 9.11437Z" fill="#0066DA"/>
<path d="M3.98681 0.614014L0.5 3.99837L2.29479 4.4929L3.98681 3.99837L4.48823 2.44425L3.98681 0.614014Z" fill="#E94235"/>
<path d="M0.5 9.11545H3.98675V3.99829H0.5V9.11545Z" fill="#2684FC"/>
<path d="M14.5473 2.04692L12.3198 3.82057V9.37578L14.5565 11.1563C14.8913 11.4109 15.3811 11.1789 15.3811 10.7658V2.42957C15.3811 2.01188 14.8796 1.78101 14.5472 2.04698" fill="#00AC47"/>
<path d="M8.91886 6.5564V9.11441H3.9873V12.4988H11.3002C11.8634 12.4988 12.3205 12.055 12.3205 11.5084V9.37587L8.91886 6.5564Z" fill="#00AC47"/>
<path d="M11.3002 0.614014H3.9873V3.99837H8.91886V6.55639L12.3206 3.82053V1.60448C12.3206 1.05776 11.8634 0.61407 11.3002 0.61407" fill="#FFBA00"/>
</g>
<defs>
<clipPath id="clip0_450_10857">
<rect width="14.4438" height="11.9048" fill="white" transform="translate(0.5 0.614014)"/>
</clipPath>
</defs>
</svg>
