<svg width="20" height="20" viewBox="0 0 20 20" fill="none" xmlns="http://www.w3.org/2000/svg">
<path d="M17 7C18.6569 7 20 8.34315 20 10C20 11.6569 18.6569 13 17 13L3 13C1.34315 13 -7.24234e-08 11.6569 0 10C7.24234e-08 8.34315 1.34315 7 3 7L17 7Z" fill="#888870"/>
<path d="M13 17C13 18.6569 11.6569 20 10 20C8.34314 20 7 18.6569 7 17L7 3C7 1.34315 8.34315 -2.75981e-07 10 -1.31134e-07C11.6569 1.37126e-08 13 1.34315 13 3L13 17Z" fill="#888870"/>
<path d="M17.264 13.0208C18.4356 14.1924 18.4356 16.0919 17.264 17.2635C16.0924 18.435 14.1929 18.435 13.0213 17.2635L3.12184 7.36396C1.95027 6.19239 1.95027 4.29289 3.12184 3.12132C4.29342 1.94975 6.19291 1.94975 7.36448 3.12132L17.264 13.0208Z" fill="#EDEDDF"/>
<path d="M7.36493 17.2635C6.19335 18.4351 4.29386 18.4351 3.12229 17.2635C1.95071 16.0919 1.95071 14.1924 3.12229 13.0208L13.0218 3.12136C14.1934 1.94978 16.0928 1.94978 17.2644 3.12136C18.436 4.29293 18.436 6.19242 17.2644 7.364L7.36493 17.2635Z" fill="#EDEDDF"/>
<path fill-rule="evenodd" clip-rule="evenodd" d="M10.0679 5.2869C9.84697 5.2869 9.66788 5.46599 9.66788 5.6869V8.71494C9.66788 8.83611 9.66788 8.89669 9.64392 8.92474C9.62313 8.94908 9.59195 8.962 9.56003 8.95949C9.52326 8.95659 9.48042 8.91375 9.39474 8.82808L5.68382 5.11716C5.52761 4.96095 5.27435 4.96095 5.11814 5.11716C4.96193 5.27337 4.96193 5.52663 5.11814 5.68284L8.82906 9.39377C8.91473 9.47944 8.95757 9.52228 8.96047 9.55906C8.96298 9.59097 8.95006 9.62216 8.92572 9.64294C8.89767 9.6669 8.83708 9.6669 8.71592 9.6669H5.71788C5.49696 9.6669 5.31788 9.84599 5.31788 10.0669C5.31788 10.2878 5.49696 10.4669 5.71788 10.4669H8.71592C8.83709 10.4669 8.89767 10.4669 8.92572 10.4909C8.95006 10.5117 8.96298 10.5428 8.96047 10.5747C8.95757 10.6115 8.91474 10.6544 8.82906 10.74L5.11813 14.451C4.96192 14.6072 4.96192 14.8604 5.11813 15.0167C5.27434 15.1729 5.52761 15.1729 5.68382 15.0167L9.39474 11.3057C9.48042 11.2201 9.52326 11.1772 9.56003 11.1743C9.59195 11.1718 9.62313 11.1847 9.64392 11.2091C9.66788 11.2371 9.66788 11.2977 9.66788 11.4189V14.4469C9.66788 14.6678 9.84697 14.8469 10.0679 14.8469C10.2888 14.8469 10.4679 14.6678 10.4679 14.4469V11.4189C10.4679 11.2977 10.4679 11.2371 10.4918 11.2091C10.5126 11.1847 10.5438 11.1718 10.5757 11.1743C10.6125 11.1772 10.6553 11.22 10.741 11.3057L14.4519 15.0167C14.6082 15.1729 14.8614 15.1729 15.0176 15.0167C15.1738 14.8604 15.1738 14.6072 15.0176 14.451L11.3067 10.74C11.221 10.6544 11.1782 10.6115 11.1753 10.5748C11.1728 10.5428 11.1857 10.5117 11.21 10.4909C11.2381 10.4669 11.2987 10.4669 11.4198 10.4669H14.4179C14.6388 10.4669 14.8179 10.2878 14.8179 10.0669C14.8179 9.84599 14.6388 9.6669 14.4179 9.6669H11.4198C11.2987 9.6669 11.2381 9.6669 11.21 9.64295C11.1857 9.62216 11.1728 9.59097 11.1753 9.55906C11.1782 9.52228 11.221 9.47944 11.3067 9.39377L15.0176 5.68284C15.1738 5.52663 15.1738 5.27337 15.0176 5.11716C14.8614 4.96095 14.6082 4.96095 14.4519 5.11716L10.741 8.82808C10.6553 8.91376 10.6125 8.9566 10.5757 8.95949C10.5438 8.962 10.5126 8.94908 10.4918 8.92474C10.4679 8.89669 10.4679 8.83611 10.4679 8.71495V5.6869C10.4679 5.46599 10.2888 5.2869 10.0679 5.2869Z" fill="#888870"/>
</svg>
