<svg width="15" height="14" viewBox="0 0 15 14" fill="none" xmlns="http://www.w3.org/2000/svg">
<g clip-path="url(#clip0_450_10866)">
<path d="M10.3389 5.00098H13.9551C14.2968 5.00098 14.5738 5.28284 14.5738 5.63047V8.98224C14.5738 10.2599 13.5559 11.2958 12.3002 11.2958H12.2895C11.0339 11.2959 10.0158 10.2603 10.0156 8.98257V5.33003C10.0156 5.28681 10.024 5.24402 10.0402 5.20409C10.0564 5.16416 10.0802 5.12788 10.1103 5.09732C10.1403 5.06677 10.1759 5.04253 10.2152 5.026C10.2544 5.00946 10.2965 5.00096 10.3389 5.00098Z" fill="#5059C9"/>
<path d="M12.7825 4.33821C13.5917 4.33821 14.2476 3.67072 14.2476 2.84733C14.2476 2.02394 13.5917 1.35645 12.7825 1.35645C11.9733 1.35645 11.3174 2.02394 11.3174 2.84733C11.3174 3.67072 11.9733 4.33821 12.7825 4.33821Z" fill="#5059C9"/>
<path d="M8.2247 4.33822C9.39349 4.33822 10.341 3.37407 10.341 2.18474C10.341 0.995399 9.39349 0.03125 8.2247 0.03125C7.0559 0.03125 6.1084 0.995399 6.1084 2.18474C6.1084 3.37407 7.0559 4.33822 8.2247 4.33822Z" fill="#7B83EB"/>
<path d="M11.046 5.00098H5.07682C4.73924 5.00949 4.4722 5.29458 4.48002 5.6381V9.46098C4.43288 11.5224 6.0356 13.2331 8.06139 13.2836C10.0872 13.2331 11.6899 11.5224 11.6428 9.46098V5.6381C11.6506 5.29458 11.3836 5.00949 11.046 5.00098Z" fill="#7B83EB"/>
<path opacity="0.1" d="M8.38719 5.00098V10.3581C8.38641 10.4783 8.35076 10.5956 8.28473 10.6952C8.21869 10.7948 8.12522 10.8723 8.01602 10.9181C7.94493 10.9487 7.86853 10.9644 7.79137 10.9644H4.76666C4.72433 10.8551 4.68528 10.7457 4.65269 10.6332C4.53871 10.253 4.48057 9.85778 4.48015 9.46032V5.63709C4.47233 5.29413 4.73893 5.00949 5.07597 5.00103L8.38719 5.00098Z" fill="black"/>
<path opacity="0.2" d="M8.06147 5.00098V10.6895C8.06147 10.768 8.04599 10.8457 8.01591 10.9181C7.97096 11.0292 7.89474 11.1243 7.79685 11.1915C7.69895 11.2587 7.58373 11.295 7.46565 11.2958H4.91967C4.86433 11.1864 4.81221 11.0771 4.76666 10.9644C4.72289 10.8562 4.68485 10.7456 4.65269 10.6332C4.53871 10.253 4.48057 9.85778 4.48015 9.46032V5.63709C4.47233 5.29413 4.73893 5.00949 5.07597 5.00103L8.06147 5.00098Z" fill="black"/>
<path opacity="0.2" d="M8.06152 5.00098V10.0269C8.05906 10.3607 7.79377 10.6307 7.4657 10.6332H4.65269C4.53871 10.253 4.48057 9.85778 4.48015 9.46032V5.63709C4.47233 5.29413 4.73893 5.00949 5.07597 5.00103L8.06152 5.00098Z" fill="black"/>
<path opacity="0.2" d="M7.73597 5.00098V10.0269C7.73345 10.3607 7.46816 10.6307 7.14015 10.6332H4.65269C4.53871 10.253 4.48057 9.85778 4.48015 9.46032V5.63709C4.47233 5.29413 4.73893 5.00949 5.07597 5.00103L7.73597 5.00098Z" fill="black"/>
<path opacity="0.1" d="M8.38698 3.28818V4.33175C8.33164 4.33509 8.27952 4.33843 8.22418 4.33843C8.16883 4.33843 8.11671 4.33509 8.06137 4.33175C7.95148 4.32433 7.8425 4.3066 7.73582 4.27878C7.41079 4.20044 7.10859 4.04494 6.85394 3.82498C6.59929 3.60502 6.39943 3.32685 6.27068 3.01322C6.22573 2.90638 6.19085 2.79543 6.1665 2.68188H7.79116C8.11967 2.68316 8.38572 2.95384 8.38698 3.28818Z" fill="black"/>
<path opacity="0.2" d="M8.06163 3.61942V4.33172C7.95174 4.3243 7.84276 4.30656 7.73607 4.27874C7.41105 4.2004 7.10887 4.04489 6.85423 3.82493C6.59959 3.60497 6.39973 3.32681 6.271 3.01318H7.46581C7.79437 3.01441 8.06037 3.28514 8.06163 3.61942Z" fill="black"/>
<path opacity="0.2" d="M8.06163 3.61942V4.33172C7.95174 4.3243 7.84276 4.30656 7.73607 4.27874C7.41105 4.2004 7.10887 4.04489 6.85423 3.82493C6.59959 3.60497 6.39973 3.32681 6.271 3.01318H7.46581C7.79437 3.01441 8.06037 3.28514 8.06163 3.61942Z" fill="black"/>
<path opacity="0.2" d="M7.73613 3.61947V4.2788C7.41109 4.20046 7.10889 4.04495 6.85424 3.82498C6.5996 3.60501 6.39973 3.32683 6.271 3.01318H7.14031C7.46887 3.01446 7.73487 3.28519 7.73613 3.61947Z" fill="black"/>
<path d="M1.17005 3.01324H7.13919C7.46884 3.01324 7.73605 3.28514 7.73605 3.62053V9.69462C7.73605 10.03 7.46884 10.3019 7.13924 10.3019H1.17005C0.840445 10.3019 0.573242 10.03 0.573242 9.69462V3.62059C0.573242 3.28508 0.840445 3.01324 1.17005 3.01324Z" fill="url(#paint0_linear_450_10866)"/>
<path d="M5.72616 5.325H4.53287V8.63141H3.77266V5.325H2.58496V4.68359H5.72616V5.325Z" fill="white"/>
</g>
<defs>
<linearGradient id="paint0_linear_450_10866" x1="125.005" y1="-44.4365" x2="604.747" y2="772.095" gradientUnits="userSpaceOnUse">
<stop stop-color="#5A62C3"/>
<stop offset="0.5" stop-color="#4D55BD"/>
<stop offset="1" stop-color="#3940AB"/>
</linearGradient>
<clipPath id="clip0_450_10866">
<rect width="14" height="13.0703" fill="white" transform="translate(0.573242 0.03125)"/>
</clipPath>
</defs>
</svg>
