<svg width="18" height="18" viewBox="0 0 18 18" fill="none" xmlns="http://www.w3.org/2000/svg">
<path opacity="0.4" d="M15.0302 5.11501L10.7102 2.09251C9.53267 1.26751 7.72518 1.31251 6.59268 2.19001L2.83518 5.12251C2.08518 5.70751 1.49268 6.90751 1.49268 7.85251V13.0275C1.49268 14.94 3.04518 16.5 4.95768 16.5H13.0427C14.9552 16.5 16.5077 14.9475 16.5077 13.035V7.95002C16.5077 6.93751 15.8552 5.69251 15.0302 5.11501Z" fill="#9D9E9F"/>
<path d="M9 14.0625C8.6925 14.0625 8.4375 13.8075 8.4375 13.5V11.25C8.4375 10.9425 8.6925 10.6875 9 10.6875C9.3075 10.6875 9.5625 10.9425 9.5625 11.25V13.5C9.5625 13.8075 9.3075 14.0625 9 14.0625Z" fill="#9D9E9F"/>
</svg>
