<svg width="29" height="28" viewBox="0 0 29 28" fill="none" xmlns="http://www.w3.org/2000/svg">
<path d="M0.5 6C0.5 2.68629 3.18629 0 6.5 0H22.5C25.8137 0 28.5 2.68629 28.5 6V22C28.5 25.3137 25.8137 28 22.5 28H6.5C3.18629 28 0.5 25.3137 0.5 22V6Z" fill="#F3F3F3"/>
<path d="M14.4998 22.3332C19.1022 22.3332 22.8332 18.6022 22.8332 13.9998C22.8332 9.39746 19.1022 5.6665 14.4998 5.6665C9.89746 5.6665 6.1665 9.39746 6.1665 13.9998C6.1665 18.6022 9.89746 22.3332 14.4998 22.3332Z" stroke="#888870" stroke-width="1.5" stroke-linecap="round" stroke-linejoin="round"/>
<path d="M11.1667 6.5H12C10.375 11.3667 10.375 16.6333 12 21.5H11.1667" stroke="#888870" stroke-width="1.5" stroke-linecap="round" stroke-linejoin="round"/>
<path d="M17 6.5C18.625 11.3667 18.625 16.6333 17 21.5" stroke="#888870" stroke-width="1.5" stroke-linecap="round" stroke-linejoin="round"/>
<path d="M7 17.3333V16.5C11.8667 18.125 17.1333 18.125 22 16.5V17.3333" stroke="#888870" stroke-width="1.5" stroke-linecap="round" stroke-linejoin="round"/>
<path d="M7 11.5C11.8667 9.875 17.1333 9.875 22 11.5" stroke="#888870" stroke-width="1.5" stroke-linecap="round" stroke-linejoin="round"/>
</svg>
