<svg width="16" height="16" viewBox="0 0 16 16" fill="none" xmlns="http://www.w3.org/2000/svg">
<path d="M8.00008 1.7749C7.05308 1.7749 6.28308 2.1669 5.76308 2.8149C5.25508 3.4479 5.01608 4.2849 5.01608 5.1519C5.01608 6.0209 5.25508 6.8569 5.76308 7.4899C6.28308 8.1379 7.05308 8.5299 8.00008 8.5299C8.94708 8.5299 9.71709 8.1379 10.2371 7.4899C10.7451 6.8569 10.9851 6.0199 10.9851 5.1519C10.9851 4.2839 10.7451 3.4479 10.2371 2.8149C9.71709 2.1669 8.94708 1.7749 8.00008 1.7749ZM6.73808 3.5969C7.01808 3.2489 7.42808 3.0249 8.00008 3.0249C8.57208 3.0249 8.98308 3.2489 9.26308 3.5969C9.55408 3.9609 9.73508 4.5009 9.73508 5.1519C9.73508 5.8039 9.55508 6.3439 9.26308 6.7079C8.98308 7.0559 8.57308 7.2799 8.00008 7.2799C7.42708 7.2799 7.01808 7.0559 6.73808 6.7079C6.44608 6.3439 6.26608 5.8039 6.26608 5.1519C6.26608 4.5009 6.44608 3.9609 6.73808 3.5969ZM8.00008 9.1779C5.80408 9.1779 3.83408 10.2479 2.99308 11.8909C2.85164 12.1574 2.795 12.4607 2.83074 12.7602C2.86649 13.0598 2.99291 13.3412 3.19308 13.5669C3.54908 13.9809 4.10308 14.2249 4.68008 14.2249H8.97308C8.98564 14.2251 8.99806 14.2222 9.00918 14.2163C9.02031 14.2105 9.02979 14.202 9.03675 14.1915C9.04372 14.1811 9.04795 14.169 9.04906 14.1565C9.05017 14.144 9.04811 14.1314 9.04309 14.1199C8.89516 13.7763 8.79878 13.4127 8.75708 13.0409C8.75487 13.0226 8.74601 13.0058 8.73217 12.9936C8.71834 12.9814 8.70051 12.9748 8.68209 12.9749H4.68008C4.58021 12.9775 4.48089 12.9593 4.38844 12.9214C4.29599 12.8835 4.21243 12.8268 4.14308 12.7549C4.10777 12.7153 4.08362 12.6669 4.07308 12.6149C4.0679 12.5614 4.07943 12.5076 4.10608 12.4609C4.68908 11.3209 6.16808 10.4279 8.00008 10.4279C8.43708 10.4279 8.85508 10.4789 9.24508 10.5719C9.26034 10.5756 9.27636 10.5744 9.29089 10.5684C9.30542 10.5625 9.31773 10.5522 9.32609 10.5389C9.53881 10.2022 9.80186 9.89999 10.1061 9.6429C10.1162 9.63434 10.1238 9.62327 10.1282 9.6108C10.1326 9.59834 10.1337 9.58493 10.1312 9.57194C10.1288 9.55894 10.123 9.54682 10.1143 9.53681C10.1057 9.52679 10.0946 9.51924 10.0821 9.5149C9.41106 9.28997 8.7078 9.17614 8.00008 9.1779Z" fill="#474644" fill-opacity="0.6"/>
<path d="M12.6001 9.52491C12.1186 9.52363 11.6436 9.63598 11.2137 9.85283C10.7838 10.0697 10.4112 10.3849 10.1261 10.7729C9.88517 11.0979 9.71111 11.4675 9.61395 11.8602C9.5168 12.253 9.49849 12.6611 9.56008 13.0609C9.67017 13.7883 10.0375 14.4521 10.5953 14.9317C11.1531 15.4114 11.8644 15.6751 12.6001 15.6749C13.4156 15.6749 14.1978 15.3509 14.7744 14.7743C15.3511 14.1976 15.6751 13.4155 15.6751 12.5999C15.6751 11.7844 15.3511 11.0022 14.7744 10.4256C14.1978 9.84889 13.4156 9.52491 12.6001 9.52491ZM12.1751 10.9329C12.1751 10.8202 12.2199 10.7121 12.2996 10.6324C12.3793 10.5527 12.4874 10.5079 12.6001 10.5079C12.7128 10.5079 12.8209 10.5527 12.9006 10.6324C12.9803 10.7121 13.0251 10.8202 13.0251 10.9329V12.0999C13.0251 12.1409 13.0591 12.1749 13.1001 12.1749H14.2671C14.3798 12.1749 14.4879 12.2197 14.5676 12.2994C14.6473 12.3791 14.6921 12.4872 14.6921 12.5999C14.6921 12.7126 14.6473 12.8207 14.5676 12.9004C14.4879 12.9801 14.3798 13.0249 14.2671 13.0249H13.1001C13.0802 13.0249 13.0611 13.0328 13.047 13.0469C13.033 13.0609 13.0251 13.08 13.0251 13.0999V14.2659C13.0251 14.3786 12.9803 14.4867 12.9006 14.5664C12.8209 14.6461 12.7128 14.6909 12.6001 14.6909C12.4874 14.6909 12.3793 14.6461 12.2996 14.5664C12.2199 14.4867 12.1751 14.3786 12.1751 14.2659V13.0999C12.1751 13.08 12.1672 13.0609 12.1531 13.0469C12.1391 13.0328 12.12 13.0249 12.1001 13.0249H10.9341C10.8214 13.0249 10.7133 12.9801 10.6336 12.9004C10.5539 12.8207 10.5091 12.7126 10.5091 12.5999C10.5091 12.4872 10.5539 12.3791 10.6336 12.2994C10.7133 12.2197 10.8214 12.1749 10.9341 12.1749H12.1001C12.12 12.1749 12.1391 12.167 12.1531 12.1529C12.1672 12.1389 12.1751 12.1198 12.1751 12.0999V10.9329Z" fill="#474644" fill-opacity="0.6"/>
</svg>
