<svg width="18" height="18" viewBox="0 0 18 18" fill="none" xmlns="http://www.w3.org/2000/svg">
<path d="M12.9677 3.10499L12.9152 5.94748C12.9077 6.33748 13.1552 6.85499 13.4702 7.08749L15.3302 8.49749C16.5227 9.39749 16.3277 10.5 14.9027 10.95L12.4802 11.7075C12.0752 11.835 11.6477 12.2775 11.5427 12.69L10.9652 14.895C10.5077 16.635 9.36768 16.8075 8.42268 15.2775L7.10268 13.14C6.86268 12.75 6.29268 12.4575 5.84268 12.48L3.33771 12.6075C1.54521 12.6975 1.0352 11.6625 2.2052 10.2975L3.69019 8.57248C3.96769 8.24998 4.09518 7.64999 3.96768 7.24499L3.21022 4.82248C2.76772 3.39748 3.56271 2.60999 4.98021 3.07499L7.19272 3.80249C7.56772 3.92249 8.13021 3.83999 8.44521 3.60749L10.7552 1.94248C12.0002 1.04248 12.9977 1.56749 12.9677 3.10499Z" fill="#9D9E9F"/>
<path opacity="0.4" d="M16.0798 15.3525L13.8072 13.08C13.5897 12.8625 13.2297 12.8625 13.0122 13.08C12.7947 13.2975 12.7947 13.6575 13.0122 13.875L15.2848 16.1475C15.3973 16.26 15.5397 16.3125 15.6822 16.3125C15.8247 16.3125 15.9673 16.26 16.0798 16.1475C16.2973 15.93 16.2973 15.57 16.0798 15.3525Z" fill="#9D9E9F"/>
</svg>
