<svg width="21" height="20" viewBox="0 0 21 20" fill="none" xmlns="http://www.w3.org/2000/svg">
<mask id="path-1-outside-1_450_14203" maskUnits="userSpaceOnUse" x="1.5835" y="1.5" width="18" height="17" fill="black">
<rect fill="white" x="1.5835" y="1.5" width="18" height="17"/>
<path d="M15.9202 6.09C16.1113 6.09 16.2707 6.02528 16.3985 5.89583C16.5263 5.76583 16.5902 5.60528 16.5902 5.41417C16.5902 5.2225 16.5252 5.06278 16.3952 4.935C16.2657 4.80722 16.1054 4.74333 15.9143 4.74333C15.7227 4.74333 15.5629 4.80833 15.4352 4.93833C15.3074 5.06778 15.2435 5.22806 15.2435 5.41917C15.2435 5.61083 15.3082 5.77056 15.4377 5.89833C15.5677 6.02611 15.7291 6.09 15.9202 6.09ZM12.586 6.09C12.7777 6.09 12.9374 6.02528 13.0652 5.89583C13.1929 5.76583 13.2568 5.60528 13.2568 5.41417C13.2568 5.2225 13.1918 5.06278 13.0618 4.935C12.9324 4.80722 12.7721 4.74333 12.581 4.74333C12.3893 4.74333 12.2296 4.80833 12.1018 4.93833C11.9741 5.06778 11.9102 5.22806 11.9102 5.41917C11.9102 5.61083 11.9749 5.77056 12.1043 5.89833C12.2343 6.02611 12.3949 6.09 12.586 6.09ZM14.2502 7.66C13.9224 7.66 13.6068 7.71583 13.3035 7.8275C13.0002 7.93917 12.7541 8.1275 12.5652 8.3925C12.4852 8.51028 12.4866 8.62806 12.5693 8.74583C12.6521 8.86361 12.7768 8.92278 12.9435 8.92333H15.5585C15.7146 8.92333 15.8341 8.86417 15.9168 8.74583C15.9996 8.6275 16.001 8.50972 15.921 8.3925C15.7327 8.1275 15.4891 7.93917 15.1902 7.8275C14.8907 7.71639 14.5774 7.66 14.2502 7.66ZM6.75433 17.5C5.59766 17.5 4.6135 17.095 3.80183 16.285C2.98961 15.4744 2.5835 14.4906 2.5835 13.3333V9.68C2.5835 9.30944 2.71544 8.9925 2.97933 8.72917C3.24322 8.46583 3.55988 8.33389 3.92933 8.33333H9.571C9.941 8.33333 10.2577 8.46528 10.521 8.72917C10.7843 8.99306 10.9163 9.30972 10.9168 9.67917V13.3333C10.9168 14.4906 10.5121 15.4744 9.70266 16.285C8.89322 17.0956 7.91044 17.5006 6.75433 17.5ZM6.75016 16.6667C7.66683 16.6667 8.45155 16.3403 9.10433 15.6875C9.75711 15.0347 10.0835 14.25 10.0835 13.3333V9.68C10.0835 9.53 10.0354 9.40694 9.93933 9.31083C9.84322 9.21472 9.72044 9.16667 9.571 9.16667H3.92933C3.77988 9.16667 3.65711 9.21472 3.561 9.31083C3.46489 9.40694 3.41683 9.53 3.41683 9.68V13.3333C3.41683 14.25 3.74322 15.0347 4.396 15.6875C5.04877 16.3403 5.8335 16.6667 6.75016 16.6667ZM18.4168 3.84583V7.5C18.4168 8.69222 17.9946 9.6875 17.1502 10.4858C16.3057 11.2842 15.2946 11.6831 14.1168 11.6825C13.8735 11.6825 13.6338 11.6608 13.3977 11.6175C13.1616 11.5731 12.9324 11.5003 12.7102 11.3992C12.5946 11.3508 12.5204 11.2681 12.4877 11.1508C12.4543 11.0331 12.4671 10.9164 12.526 10.8008C12.5849 10.6853 12.6704 10.6131 12.7827 10.5842C12.8949 10.5553 13.0032 10.5647 13.1077 10.6125C13.2927 10.6969 13.4838 10.7547 13.681 10.7858C13.8782 10.8169 14.0749 10.8328 14.271 10.8333C15.1877 10.8333 15.9691 10.5069 16.6152 9.85417C17.2613 9.20139 17.5841 8.41667 17.5835 7.5V3.84667C17.5835 3.69667 17.5354 3.57361 17.4393 3.4775C17.3432 3.38139 17.2204 3.33333 17.071 3.33333H11.4293C11.2799 3.33333 11.1571 3.38139 11.061 3.4775C10.9649 3.57361 10.9168 3.69667 10.9168 3.84667V6.66667C10.9168 6.785 10.8768 6.88389 10.7968 6.96333C10.7168 7.04278 10.6177 7.08278 10.4993 7.08333C10.381 7.08389 10.2821 7.04389 10.2027 6.96333C10.1232 6.88278 10.0835 6.78389 10.0835 6.66667V3.84667C10.0835 3.47611 10.2154 3.15917 10.4793 2.89583C10.7432 2.6325 11.0599 2.50056 11.4293 2.5H17.071C17.441 2.5 17.7577 2.63194 18.021 2.89583C18.2843 3.15972 18.4163 3.47639 18.4168 3.84583ZM5.086 11.9233C5.27766 11.9233 5.43739 11.8583 5.56516 11.7283C5.69294 11.5989 5.75683 11.4386 5.75683 11.2475C5.75683 11.0558 5.69211 10.8961 5.56266 10.7683C5.43266 10.6406 5.27211 10.5767 5.081 10.5767C4.88933 10.5767 4.72961 10.6414 4.60183 10.7708C4.47405 10.9008 4.41016 11.0614 4.41016 11.2525C4.41016 11.4442 4.47516 11.6039 4.60516 11.7317C4.73461 11.8594 4.89488 11.9233 5.086 11.9233ZM8.41933 11.9233C8.611 11.9233 8.77072 11.8583 8.8985 11.7283C9.02627 11.5989 9.09016 11.4386 9.09016 11.2475C9.09016 11.0558 9.02544 10.8961 8.896 10.7683C8.766 10.6406 8.60544 10.5767 8.41433 10.5767C8.22266 10.5767 8.06294 10.6414 7.93516 10.7708C7.80738 10.9008 7.7435 11.0614 7.7435 11.2525C7.7435 11.4442 7.8085 11.6039 7.9385 11.7317C8.06794 11.8594 8.22822 11.9233 8.41933 11.9233ZM6.75016 14.7567C7.07516 14.7567 7.38711 14.7014 7.686 14.5908C7.98544 14.4808 8.23238 14.2967 8.42683 14.0383C8.50683 13.9178 8.50794 13.7967 8.43016 13.675C8.35183 13.5539 8.231 13.4933 8.06766 13.4933H5.43266C5.26933 13.4933 5.14877 13.5542 5.071 13.6758C4.99322 13.7969 4.99433 13.9178 5.07433 14.0383C5.26877 14.2972 5.51544 14.4817 5.81433 14.5917C6.11377 14.7017 6.42572 14.7567 6.75016 14.7567Z"/>
</mask>
<path d="M15.9202 6.09C16.1113 6.09 16.2707 6.02528 16.3985 5.89583C16.5263 5.76583 16.5902 5.60528 16.5902 5.41417C16.5902 5.2225 16.5252 5.06278 16.3952 4.935C16.2657 4.80722 16.1054 4.74333 15.9143 4.74333C15.7227 4.74333 15.5629 4.80833 15.4352 4.93833C15.3074 5.06778 15.2435 5.22806 15.2435 5.41917C15.2435 5.61083 15.3082 5.77056 15.4377 5.89833C15.5677 6.02611 15.7291 6.09 15.9202 6.09ZM12.586 6.09C12.7777 6.09 12.9374 6.02528 13.0652 5.89583C13.1929 5.76583 13.2568 5.60528 13.2568 5.41417C13.2568 5.2225 13.1918 5.06278 13.0618 4.935C12.9324 4.80722 12.7721 4.74333 12.581 4.74333C12.3893 4.74333 12.2296 4.80833 12.1018 4.93833C11.9741 5.06778 11.9102 5.22806 11.9102 5.41917C11.9102 5.61083 11.9749 5.77056 12.1043 5.89833C12.2343 6.02611 12.3949 6.09 12.586 6.09ZM14.2502 7.66C13.9224 7.66 13.6068 7.71583 13.3035 7.8275C13.0002 7.93917 12.7541 8.1275 12.5652 8.3925C12.4852 8.51028 12.4866 8.62806 12.5693 8.74583C12.6521 8.86361 12.7768 8.92278 12.9435 8.92333H15.5585C15.7146 8.92333 15.8341 8.86417 15.9168 8.74583C15.9996 8.6275 16.001 8.50972 15.921 8.3925C15.7327 8.1275 15.4891 7.93917 15.1902 7.8275C14.8907 7.71639 14.5774 7.66 14.2502 7.66ZM6.75433 17.5C5.59766 17.5 4.6135 17.095 3.80183 16.285C2.98961 15.4744 2.5835 14.4906 2.5835 13.3333V9.68C2.5835 9.30944 2.71544 8.9925 2.97933 8.72917C3.24322 8.46583 3.55988 8.33389 3.92933 8.33333H9.571C9.941 8.33333 10.2577 8.46528 10.521 8.72917C10.7843 8.99306 10.9163 9.30972 10.9168 9.67917V13.3333C10.9168 14.4906 10.5121 15.4744 9.70266 16.285C8.89322 17.0956 7.91044 17.5006 6.75433 17.5ZM6.75016 16.6667C7.66683 16.6667 8.45155 16.3403 9.10433 15.6875C9.75711 15.0347 10.0835 14.25 10.0835 13.3333V9.68C10.0835 9.53 10.0354 9.40694 9.93933 9.31083C9.84322 9.21472 9.72044 9.16667 9.571 9.16667H3.92933C3.77988 9.16667 3.65711 9.21472 3.561 9.31083C3.46489 9.40694 3.41683 9.53 3.41683 9.68V13.3333C3.41683 14.25 3.74322 15.0347 4.396 15.6875C5.04877 16.3403 5.8335 16.6667 6.75016 16.6667ZM18.4168 3.84583V7.5C18.4168 8.69222 17.9946 9.6875 17.1502 10.4858C16.3057 11.2842 15.2946 11.6831 14.1168 11.6825C13.8735 11.6825 13.6338 11.6608 13.3977 11.6175C13.1616 11.5731 12.9324 11.5003 12.7102 11.3992C12.5946 11.3508 12.5204 11.2681 12.4877 11.1508C12.4543 11.0331 12.4671 10.9164 12.526 10.8008C12.5849 10.6853 12.6704 10.6131 12.7827 10.5842C12.8949 10.5553 13.0032 10.5647 13.1077 10.6125C13.2927 10.6969 13.4838 10.7547 13.681 10.7858C13.8782 10.8169 14.0749 10.8328 14.271 10.8333C15.1877 10.8333 15.9691 10.5069 16.6152 9.85417C17.2613 9.20139 17.5841 8.41667 17.5835 7.5V3.84667C17.5835 3.69667 17.5354 3.57361 17.4393 3.4775C17.3432 3.38139 17.2204 3.33333 17.071 3.33333H11.4293C11.2799 3.33333 11.1571 3.38139 11.061 3.4775C10.9649 3.57361 10.9168 3.69667 10.9168 3.84667V6.66667C10.9168 6.785 10.8768 6.88389 10.7968 6.96333C10.7168 7.04278 10.6177 7.08278 10.4993 7.08333C10.381 7.08389 10.2821 7.04389 10.2027 6.96333C10.1232 6.88278 10.0835 6.78389 10.0835 6.66667V3.84667C10.0835 3.47611 10.2154 3.15917 10.4793 2.89583C10.7432 2.6325 11.0599 2.50056 11.4293 2.5H17.071C17.441 2.5 17.7577 2.63194 18.021 2.89583C18.2843 3.15972 18.4163 3.47639 18.4168 3.84583ZM5.086 11.9233C5.27766 11.9233 5.43739 11.8583 5.56516 11.7283C5.69294 11.5989 5.75683 11.4386 5.75683 11.2475C5.75683 11.0558 5.69211 10.8961 5.56266 10.7683C5.43266 10.6406 5.27211 10.5767 5.081 10.5767C4.88933 10.5767 4.72961 10.6414 4.60183 10.7708C4.47405 10.9008 4.41016 11.0614 4.41016 11.2525C4.41016 11.4442 4.47516 11.6039 4.60516 11.7317C4.73461 11.8594 4.89488 11.9233 5.086 11.9233ZM8.41933 11.9233C8.611 11.9233 8.77072 11.8583 8.8985 11.7283C9.02627 11.5989 9.09016 11.4386 9.09016 11.2475C9.09016 11.0558 9.02544 10.8961 8.896 10.7683C8.766 10.6406 8.60544 10.5767 8.41433 10.5767C8.22266 10.5767 8.06294 10.6414 7.93516 10.7708C7.80738 10.9008 7.7435 11.0614 7.7435 11.2525C7.7435 11.4442 7.8085 11.6039 7.9385 11.7317C8.06794 11.8594 8.22822 11.9233 8.41933 11.9233ZM6.75016 14.7567C7.07516 14.7567 7.38711 14.7014 7.686 14.5908C7.98544 14.4808 8.23238 14.2967 8.42683 14.0383C8.50683 13.9178 8.50794 13.7967 8.43016 13.675C8.35183 13.5539 8.231 13.4933 8.06766 13.4933H5.43266C5.26933 13.4933 5.14877 13.5542 5.071 13.6758C4.99322 13.7969 4.99433 13.9178 5.07433 14.0383C5.26877 14.2972 5.51544 14.4817 5.81433 14.5917C6.11377 14.7017 6.42572 14.7567 6.75016 14.7567Z" fill="#91908F"/>
<path d="M15.9202 6.09C16.1113 6.09 16.2707 6.02528 16.3985 5.89583C16.5263 5.76583 16.5902 5.60528 16.5902 5.41417C16.5902 5.2225 16.5252 5.06278 16.3952 4.935C16.2657 4.80722 16.1054 4.74333 15.9143 4.74333C15.7227 4.74333 15.5629 4.80833 15.4352 4.93833C15.3074 5.06778 15.2435 5.22806 15.2435 5.41917C15.2435 5.61083 15.3082 5.77056 15.4377 5.89833C15.5677 6.02611 15.7291 6.09 15.9202 6.09ZM12.586 6.09C12.7777 6.09 12.9374 6.02528 13.0652 5.89583C13.1929 5.76583 13.2568 5.60528 13.2568 5.41417C13.2568 5.2225 13.1918 5.06278 13.0618 4.935C12.9324 4.80722 12.7721 4.74333 12.581 4.74333C12.3893 4.74333 12.2296 4.80833 12.1018 4.93833C11.9741 5.06778 11.9102 5.22806 11.9102 5.41917C11.9102 5.61083 11.9749 5.77056 12.1043 5.89833C12.2343 6.02611 12.3949 6.09 12.586 6.09ZM14.2502 7.66C13.9224 7.66 13.6068 7.71583 13.3035 7.8275C13.0002 7.93917 12.7541 8.1275 12.5652 8.3925C12.4852 8.51028 12.4866 8.62806 12.5693 8.74583C12.6521 8.86361 12.7768 8.92278 12.9435 8.92333H15.5585C15.7146 8.92333 15.8341 8.86417 15.9168 8.74583C15.9996 8.6275 16.001 8.50972 15.921 8.3925C15.7327 8.1275 15.4891 7.93917 15.1902 7.8275C14.8907 7.71639 14.5774 7.66 14.2502 7.66ZM6.75433 17.5C5.59766 17.5 4.6135 17.095 3.80183 16.285C2.98961 15.4744 2.5835 14.4906 2.5835 13.3333V9.68C2.5835 9.30944 2.71544 8.9925 2.97933 8.72917C3.24322 8.46583 3.55988 8.33389 3.92933 8.33333H9.571C9.941 8.33333 10.2577 8.46528 10.521 8.72917C10.7843 8.99306 10.9163 9.30972 10.9168 9.67917V13.3333C10.9168 14.4906 10.5121 15.4744 9.70266 16.285C8.89322 17.0956 7.91044 17.5006 6.75433 17.5ZM6.75016 16.6667C7.66683 16.6667 8.45155 16.3403 9.10433 15.6875C9.75711 15.0347 10.0835 14.25 10.0835 13.3333V9.68C10.0835 9.53 10.0354 9.40694 9.93933 9.31083C9.84322 9.21472 9.72044 9.16667 9.571 9.16667H3.92933C3.77988 9.16667 3.65711 9.21472 3.561 9.31083C3.46489 9.40694 3.41683 9.53 3.41683 9.68V13.3333C3.41683 14.25 3.74322 15.0347 4.396 15.6875C5.04877 16.3403 5.8335 16.6667 6.75016 16.6667ZM18.4168 3.84583V7.5C18.4168 8.69222 17.9946 9.6875 17.1502 10.4858C16.3057 11.2842 15.2946 11.6831 14.1168 11.6825C13.8735 11.6825 13.6338 11.6608 13.3977 11.6175C13.1616 11.5731 12.9324 11.5003 12.7102 11.3992C12.5946 11.3508 12.5204 11.2681 12.4877 11.1508C12.4543 11.0331 12.4671 10.9164 12.526 10.8008C12.5849 10.6853 12.6704 10.6131 12.7827 10.5842C12.8949 10.5553 13.0032 10.5647 13.1077 10.6125C13.2927 10.6969 13.4838 10.7547 13.681 10.7858C13.8782 10.8169 14.0749 10.8328 14.271 10.8333C15.1877 10.8333 15.9691 10.5069 16.6152 9.85417C17.2613 9.20139 17.5841 8.41667 17.5835 7.5V3.84667C17.5835 3.69667 17.5354 3.57361 17.4393 3.4775C17.3432 3.38139 17.2204 3.33333 17.071 3.33333H11.4293C11.2799 3.33333 11.1571 3.38139 11.061 3.4775C10.9649 3.57361 10.9168 3.69667 10.9168 3.84667V6.66667C10.9168 6.785 10.8768 6.88389 10.7968 6.96333C10.7168 7.04278 10.6177 7.08278 10.4993 7.08333C10.381 7.08389 10.2821 7.04389 10.2027 6.96333C10.1232 6.88278 10.0835 6.78389 10.0835 6.66667V3.84667C10.0835 3.47611 10.2154 3.15917 10.4793 2.89583C10.7432 2.6325 11.0599 2.50056 11.4293 2.5H17.071C17.441 2.5 17.7577 2.63194 18.021 2.89583C18.2843 3.15972 18.4163 3.47639 18.4168 3.84583ZM5.086 11.9233C5.27766 11.9233 5.43739 11.8583 5.56516 11.7283C5.69294 11.5989 5.75683 11.4386 5.75683 11.2475C5.75683 11.0558 5.69211 10.8961 5.56266 10.7683C5.43266 10.6406 5.27211 10.5767 5.081 10.5767C4.88933 10.5767 4.72961 10.6414 4.60183 10.7708C4.47405 10.9008 4.41016 11.0614 4.41016 11.2525C4.41016 11.4442 4.47516 11.6039 4.60516 11.7317C4.73461 11.8594 4.89488 11.9233 5.086 11.9233ZM8.41933 11.9233C8.611 11.9233 8.77072 11.8583 8.8985 11.7283C9.02627 11.5989 9.09016 11.4386 9.09016 11.2475C9.09016 11.0558 9.02544 10.8961 8.896 10.7683C8.766 10.6406 8.60544 10.5767 8.41433 10.5767C8.22266 10.5767 8.06294 10.6414 7.93516 10.7708C7.80738 10.9008 7.7435 11.0614 7.7435 11.2525C7.7435 11.4442 7.8085 11.6039 7.9385 11.7317C8.06794 11.8594 8.22822 11.9233 8.41933 11.9233ZM6.75016 14.7567C7.07516 14.7567 7.38711 14.7014 7.686 14.5908C7.98544 14.4808 8.23238 14.2967 8.42683 14.0383C8.50683 13.9178 8.50794 13.7967 8.43016 13.675C8.35183 13.5539 8.231 13.4933 8.06766 13.4933H5.43266C5.26933 13.4933 5.14877 13.5542 5.071 13.6758C4.99322 13.7969 4.99433 13.9178 5.07433 14.0383C5.26877 14.2972 5.51544 14.4817 5.81433 14.5917C6.11377 14.7017 6.42572 14.7567 6.75016 14.7567Z" stroke="#91908F" stroke-width="0.4" mask="url(#path-1-outside-1_450_14203)"/>
</svg>
