<svg width="16" height="16" viewBox="0 0 16 16" fill="none" xmlns="http://www.w3.org/2000/svg">
<path d="M3.74988 10.305L6.49988 8.765L6.54988 8.63L6.49988 8.555H6.36488L5.90488 8.525C4.48564 8.49415 3.06707 8.43747 1.64988 8.355L1.31488 8.285L1.00488 7.875L1.03488 7.67L1.31488 7.48L1.71488 7.515C3.25488 7.615 4.78988 7.715 6.31988 7.875H6.54988L6.57988 7.78L6.49988 7.73L6.43988 7.67L5.06988 6.74C4.04988 6.09 3.29488 5.525 2.37988 4.9L2.16488 4.63L2.07488 4.04L2.45488 3.62L2.96988 3.655L3.09988 3.69C4.11488 4.49 5.14988 5.26 6.18488 6.02L6.39988 6.2L6.48488 6.14L6.49488 6.095L6.39488 5.935C5.67988 4.635 5.11988 3.625 4.39488 2.455L4.29488 2.095C4.25488 1.945 4.22988 1.82 4.22988 1.67L4.66488 1.08L4.90988 1L5.48988 1.08L5.73488 1.29C6.43488 2.945 7.11488 4.255 7.84988 5.705L7.99488 6.19L8.04488 6.34H8.13988V6.255C8.46488 4.545 8.13988 2.97 8.74988 1.49L9.18488 1.205L9.52488 1.37L9.80488 1.77L9.76488 2.025C9.57988 3.335 9.30488 4.635 9.06488 5.935H9.18488L9.32988 5.79C10.0922 4.75504 10.9119 3.76349 11.7849 2.82L12.1049 2.57H12.7049L13.1499 3.23L12.9499 3.91C12.0938 4.92888 11.315 6.01021 10.6199 7.145L10.6649 7.21L10.7749 7.2C11.9749 6.915 13.1949 6.705 14.4099 6.5L14.8949 6.725L14.9449 6.955L14.7599 7.425C13.2599 7.785 11.7599 8.095 10.2599 8.45L10.2349 8.47L10.2649 8.505C11.6149 8.635 13.0749 8.655 14.2599 8.74L14.7199 9.045L14.9949 9.42L14.9449 9.7L14.2449 10.065C12.7799 9.715 11.6499 9.455 10.2899 9.115H10.1799V9.18C11.2699 10.24 12.4799 11.315 13.4499 12.215L13.5249 12.555L13.3349 12.82L13.1349 12.79C12.1149 12.075 11.1849 11.245 10.2349 10.44H10.1599V10.54L10.4199 10.92C10.9899 11.815 11.7399 12.545 11.8549 13.605L11.7549 13.81L11.4049 13.935L11.0149 13.865C10.1846 12.7366 9.42003 11.5613 8.72488 10.345L8.63988 10.39L8.24988 14.62L8.06488 14.835L7.63988 15L7.28488 14.73L7.09488 14.295C7.3971 12.9762 7.65226 11.647 7.85988 10.31L7.95988 9.945L7.95488 9.92L7.87488 9.93C6.92341 11.3097 5.88287 12.6259 4.75988 13.87L4.51988 13.97L4.09988 13.75L4.13988 13.365L4.37488 13.02C5.40988 11.735 6.14488 10.69 7.14488 9.52V9.425H7.10988L3.40988 11.825L2.75488 11.91L2.46988 11.645L2.50488 11.21L2.63988 11.07L3.75488 10.305H3.74988Z" fill="#D97757"/>
</svg>
