<svg width="13" height="14" viewBox="0 0 13 14" fill="none" xmlns="http://www.w3.org/2000/svg">
<g clip-path="url(#clip0_500_1508)">
<path d="M1.38008 1.13643L8.51317 0.613093C9.38935 0.538399 9.61448 0.588769 10.1654 0.98661L12.4424 2.58017C12.818 2.8542 12.943 2.92894 12.943 3.22733V11.9668C12.943 12.5146 12.7427 12.8385 12.0419 12.8881L3.75852 13.3862C3.23254 13.411 2.98206 13.3363 2.70661 12.9875L1.02988 10.8215C0.72913 10.4228 0.604492 10.1244 0.604492 9.77563V2.00728C0.604492 1.5595 0.804751 1.18598 1.38008 1.13643Z" fill="white"/>
<path d="M8.51317 0.613093L1.38008 1.13643C0.804751 1.18598 0.604492 1.5595 0.604492 2.00728V9.77568C0.604492 10.1244 0.729082 10.4228 1.02988 10.8215L2.70661 12.9875C2.98206 13.3363 3.23254 13.411 3.75852 13.3862L12.0419 12.8881C12.7423 12.8385 12.943 12.5146 12.943 11.9668V3.22733C12.943 2.94431 12.8304 2.86277 12.4991 2.62116L12.442 2.58017L10.1654 0.98661C9.61448 0.588769 9.38939 0.538399 8.51317 0.613093ZM3.94586 3.08431C3.26951 3.12956 3.1161 3.1398 2.73196 2.82944L1.75525 2.05765C1.65596 1.95777 1.7058 1.83309 1.95589 1.80834L8.8131 1.31062C9.38891 1.26068 9.68884 1.46001 9.91402 1.6342L11.0901 2.48073C11.1404 2.50586 11.2654 2.65487 11.115 2.65487L4.03353 3.07833L3.94586 3.08431ZM3.15735 11.8922V4.47294C3.15735 4.14894 3.25746 3.99955 3.55739 3.97436L11.6908 3.50135C11.9667 3.4766 12.0913 3.65074 12.0913 3.97436V11.344C12.0913 11.668 12.041 11.942 11.5907 11.9668L3.80749 12.4151C3.35718 12.4398 3.15735 12.2909 3.15735 11.8922ZM10.8405 4.87074C10.8903 5.09487 10.8405 5.319 10.6149 5.34461L10.2397 5.41844V10.8962C9.91402 11.0703 9.61409 11.1698 9.36351 11.1698C8.96309 11.1698 8.86294 11.0451 8.56301 10.6721L6.10986 6.83782V10.5474L6.88584 10.722C6.88584 10.722 6.88584 11.1703 6.25981 11.1703L4.53367 11.2697C4.4834 11.1698 4.53367 10.9209 4.70863 10.8714L5.15932 10.7472V5.84238L4.53372 5.79201C4.4834 5.56793 4.60843 5.2443 4.95911 5.21912L6.81113 5.09535L9.36356 8.97909V5.54317L8.713 5.46886C8.66273 5.19436 8.86294 4.99504 9.11303 4.97071L10.8405 4.87074Z" fill="#32302C"/>
</g>
<defs>
<clipPath id="clip0_500_1508">
<rect width="12.2575" height="12.832" fill="white" transform="translate(0.604492 0.583984)"/>
</clipPath>
</defs>
</svg>
