<svg width="17" height="17" viewBox="0 0 17 17" fill="none" xmlns="http://www.w3.org/2000/svg">
<path d="M16.5 0.132812H0.5V16.1328H16.5V0.132812Z" fill="white"/>
<path opacity="0.4" d="M15.1667 8.13289C15.1667 9.97289 13.6733 11.4662 11.8333 11.4662C11.8333 9.62623 10.34 8.13289 8.5 8.13289C10.34 8.13289 11.8333 6.63956 11.8333 4.79956C13.6733 4.79956 15.1667 6.29289 15.1667 8.13289Z" fill="#9D9E9F"/>
<path d="M11.8333 11.4661C9.99333 11.4661 8.5 9.97281 8.5 8.13281C10.34 8.13281 11.8333 9.62615 11.8333 11.4661Z" fill="#9D9E9F"/>
<path opacity="0.4" d="M11.8332 11.4661C11.8332 13.3061 10.3398 14.7995 8.49984 14.7995C6.65984 14.7995 5.1665 13.3061 5.1665 11.4661C7.0065 11.4661 8.49984 9.97281 8.49984 8.13281C8.49984 9.97281 9.99317 11.4661 11.8332 11.4661Z" fill="#9D9E9F"/>
<path d="M11.8333 4.79956C11.8333 6.63956 10.34 8.13289 8.5 8.13289C8.5 6.29289 9.99333 4.79956 11.8333 4.79956Z" fill="#9D9E9F"/>
<path opacity="0.4" d="M11.8332 4.7994C9.99317 4.7994 8.49984 6.29273 8.49984 8.13273C8.49984 6.29273 7.0065 4.7994 5.1665 4.7994C5.1665 2.9594 6.65984 1.46606 8.49984 1.46606C10.3398 1.46606 11.8332 2.9594 11.8332 4.7994Z" fill="#9D9E9F"/>
<path d="M8.49984 8.13281C8.49984 9.97281 7.0065 11.4661 5.1665 11.4661C5.1665 9.62615 6.65984 8.13281 8.49984 8.13281Z" fill="#9D9E9F"/>
<path d="M8.49984 8.13289C6.65984 8.13289 5.1665 6.63956 5.1665 4.79956C7.0065 4.79956 8.49984 6.29289 8.49984 8.13289Z" fill="#9D9E9F"/>
<path opacity="0.4" d="M8.50016 8.13289C6.66016 8.13289 5.16683 9.62623 5.16683 11.4662C3.32683 11.4662 1.8335 9.97289 1.8335 8.13289C1.8335 6.29289 3.32683 4.79956 5.16683 4.79956C5.16683 6.63956 6.66016 8.13289 8.50016 8.13289Z" fill="#9D9E9F"/>
</svg>
