<svg width="16" height="16" viewBox="0 0 16 16" fill="none" xmlns="http://www.w3.org/2000/svg">
<path d="M13.6 5.6001C14.9255 5.6001 16 6.67461 16 8.0001C16 9.32558 14.9255 10.4001 13.6 10.4001L2.4 10.4001C1.07452 10.4001 -5.79387e-08 9.32558 0 8.0001C5.79387e-08 6.67461 1.07452 5.6001 2.4 5.6001L13.6 5.6001Z" fill="#888870"/>
<path d="M10.3999 13.6C10.3999 14.9255 9.32538 16 7.9999 16C6.67442 16 5.5999 14.9255 5.5999 13.6L5.5999 2.4C5.5999 1.07452 6.67442 -2.20785e-07 7.9999 -1.04907e-07C9.32539 1.09701e-08 10.3999 1.07452 10.3999 2.4L10.3999 13.6Z" fill="#888870"/>
<path d="M13.812 10.4165C14.7492 11.3537 14.7492 12.8733 13.812 13.8106C12.8747 14.7478 11.3551 14.7478 10.4179 13.8106L2.49826 5.89097C1.561 4.95371 1.561 3.43412 2.49826 2.49686C3.43551 1.5596 4.95511 1.5596 5.89237 2.49686L13.812 10.4165Z" fill="#EDEDDF"/>
<path d="M5.89214 13.8105C4.95488 14.7478 3.43528 14.7478 2.49802 13.8105C1.56077 12.8732 1.56077 11.3536 2.49802 10.4164L10.4176 2.49679C11.3549 1.55953 12.8745 1.55953 13.8117 2.49679C14.749 3.43405 14.749 4.95365 13.8117 5.8909L5.89214 13.8105Z" fill="#EDEDDF"/>
<path fill-rule="evenodd" clip-rule="evenodd" d="M8.0545 4.22952C7.87777 4.22952 7.7345 4.37279 7.7345 4.54952V6.97195C7.7345 7.06888 7.7345 7.11735 7.71533 7.13979C7.6987 7.15926 7.67375 7.1696 7.64822 7.16759C7.6188 7.16527 7.58453 7.131 7.51599 7.06246L4.54725 4.09373C4.42228 3.96876 4.21967 3.96876 4.0947 4.09373C3.96974 4.21869 3.96974 4.42131 4.0947 4.54627L7.06344 7.51501C7.13198 7.58355 7.16625 7.61782 7.16857 7.64725C7.17058 7.67278 7.16024 7.69772 7.14077 7.71435C7.11833 7.73352 7.06986 7.73352 6.97293 7.73352H4.5745C4.39777 7.73352 4.2545 7.87679 4.2545 8.05352C4.2545 8.23025 4.39777 8.37352 4.5745 8.37352H6.97293C7.06986 8.37352 7.11833 8.37352 7.14077 8.39269C7.16024 8.40932 7.17058 8.43427 7.16857 8.4598C7.16625 8.48922 7.13198 8.52349 7.06344 8.59203L4.0947 11.5608C3.96973 11.6857 3.96973 11.8884 4.0947 12.0133C4.21967 12.1383 4.42228 12.1383 4.54725 12.0133L7.51599 9.04458C7.58453 8.97604 7.6188 8.94177 7.64822 8.93946C7.67375 8.93745 7.6987 8.94778 7.71533 8.96725C7.7345 8.9897 7.7345 9.03816 7.7345 9.13509V11.5575C7.7345 11.7343 7.87777 11.8775 8.0545 11.8775C8.23123 11.8775 8.3745 11.7343 8.3745 11.5575V9.13509C8.3745 9.03816 8.3745 8.98969 8.39367 8.96725C8.4103 8.94778 8.43525 8.93744 8.46078 8.93945C8.4902 8.94177 8.52447 8.97604 8.59301 9.04458L11.5618 12.0133C11.6867 12.1383 11.8893 12.1383 12.0143 12.0133C12.1393 11.8884 12.1393 11.6857 12.0143 11.5608L9.04556 8.59203C8.97702 8.52349 8.94275 8.48922 8.94043 8.4598C8.93842 8.43427 8.94876 8.40932 8.96823 8.39269C8.99067 8.37352 9.03914 8.37352 9.13607 8.37352H11.5345C11.7112 8.37352 11.8545 8.23025 11.8545 8.05352C11.8545 7.87679 11.7112 7.73352 11.5345 7.73352H9.13607C9.03914 7.73352 8.99067 7.73352 8.96823 7.71436C8.94876 7.69772 8.93842 7.67278 8.94043 7.64725C8.94275 7.61782 8.97702 7.58355 9.04556 7.51501L12.0143 4.54627C12.1393 4.42131 12.1393 4.21869 12.0143 4.09373C11.8893 3.96876 11.6867 3.96876 11.5617 4.09373L8.59301 7.06247C8.52447 7.13101 8.4902 7.16528 8.46078 7.16759C8.43525 7.1696 8.4103 7.15927 8.39367 7.13979C8.3745 7.11735 8.3745 7.06889 8.3745 6.97196V4.54952C8.3745 4.37279 8.23123 4.22952 8.0545 4.22952Z" fill="#888870"/>
</svg>
