<svg width="14" height="17" viewBox="0 0 14 17" fill="none" xmlns="http://www.w3.org/2000/svg">
<path d="M13.6319 12.8585C13.3823 13.435 13.087 13.9656 12.7448 14.4535C12.2783 15.1185 11.8964 15.5789 11.602 15.8345C11.1457 16.2541 10.6569 16.469 10.1334 16.4813C9.75755 16.4813 9.30433 16.3743 8.77675 16.1574C8.24744 15.9415 7.76101 15.8345 7.31624 15.8345C6.84978 15.8345 6.3495 15.9415 5.81438 16.1574C5.27846 16.3743 4.84672 16.4874 4.51663 16.4986C4.01462 16.52 3.51423 16.299 3.01477 15.8345C2.69598 15.5565 2.29725 15.0798 1.81958 14.4046C1.30707 13.6835 0.885727 12.8473 0.555635 11.894C0.202119 10.8643 0.0249023 9.86721 0.0249023 8.90189C0.0249023 7.79612 0.263839 6.84241 0.742426 6.0432C1.11855 5.40125 1.61893 4.89485 2.2452 4.52311C2.87147 4.15136 3.54815 3.96192 4.27688 3.9498C4.67561 3.9498 5.1985 4.07314 5.8483 4.31554C6.49626 4.55875 6.91231 4.68209 7.09472 4.68209C7.2311 4.68209 7.69328 4.53787 8.47681 4.25035C9.21775 3.98371 9.8431 3.87331 10.3554 3.9168C11.7436 4.02883 12.7865 4.57607 13.4801 5.56196C12.2386 6.31422 11.6244 7.36784 11.6367 8.71948C11.6479 9.77229 12.0298 10.6484 12.7804 11.344C13.1206 11.6669 13.5005 11.9164 13.9232 12.0936C13.8315 12.3595 13.7347 12.6141 13.6319 12.8585ZM10.4481 0.330094C10.4481 1.15528 10.1466 1.92576 9.54571 2.6389C8.82055 3.48669 7.94343 3.97658 6.99226 3.89928C6.98014 3.80028 6.97311 3.69609 6.97311 3.58661C6.97311 2.79443 7.31797 1.94664 7.93039 1.25345C8.23614 0.902484 8.625 0.610657 9.09655 0.377861C9.56709 0.148538 10.0122 0.0217174 10.4308 0C10.443 0.110315 10.4481 0.220637 10.4481 0.330083V0.330094Z" fill="black"/>
</svg>
