<svg width="18" height="18" viewBox="0 0 18 18" fill="none" xmlns="http://www.w3.org/2000/svg">
<path opacity="0.4" d="M13.1478 5.8275C13.0953 5.82 13.0428 5.82 12.9903 5.8275C11.8278 5.79 10.9053 4.8375 10.9053 3.6675C10.9053 2.475 11.8728 1.5 13.0728 1.5C14.2653 1.5 15.2403 2.4675 15.2403 3.6675C15.2328 4.8375 14.3103 5.79 13.1478 5.8275Z" fill="#9D9E9F"/>
<path opacity="0.4" d="M15.5927 11.0248C14.7527 11.5873 13.5752 11.7973 12.4877 11.6548C12.7727 11.0398 12.9227 10.3573 12.9302 9.63731C12.9302 8.88731 12.7652 8.17482 12.4502 7.55232C13.5602 7.40232 14.7377 7.61231 15.5852 8.17481C16.7702 8.95481 16.7702 10.2373 15.5927 11.0248Z" fill="#9D9E9F"/>
<path opacity="0.4" d="M4.8298 5.8275C4.8823 5.82 4.9348 5.82 4.9873 5.8275C6.1498 5.79 7.0723 4.8375 7.0723 3.6675C7.0723 2.475 6.1048 1.5 4.9048 1.5C3.7123 1.5 2.7373 2.4675 2.7373 3.6675C2.7448 4.8375 3.6673 5.79 4.8298 5.8275Z" fill="#9D9E9F"/>
<path opacity="0.4" d="M4.91234 9.63746C4.91234 10.365 5.06984 11.055 5.35484 11.6775C4.29734 11.79 3.19484 11.565 2.38484 11.0325C1.19984 10.245 1.19984 8.96245 2.38484 8.17495C3.18734 7.63495 4.31984 7.41746 5.38484 7.53746C5.07734 8.16746 4.91234 8.87996 4.91234 9.63746Z" fill="#9D9E9F"/>
<path d="M9.08961 11.9025C9.02961 11.895 8.96211 11.895 8.89461 11.9025C7.51461 11.8575 6.41211 10.725 6.41211 9.33C6.41211 7.905 7.55961 6.75 8.99211 6.75C10.4171 6.75 11.5721 7.905 11.5721 9.33C11.5721 10.725 10.4771 11.8575 9.08961 11.9025Z" fill="#9D9E9F"/>
<path d="M6.65211 13.455C5.51961 14.2125 5.51961 15.4575 6.65211 16.2075C7.94211 17.07 10.0571 17.07 11.3471 16.2075C12.4796 15.45 12.4796 14.205 11.3471 13.455C10.0646 12.5925 7.94961 12.5925 6.65211 13.455Z" fill="#9D9E9F"/>
</svg>
