<svg width="9" height="9" viewBox="0 0 9 9" fill="none" xmlns="http://www.w3.org/2000/svg">
<path d="M4.50018 0.187744C4.63146 0.187744 4.75736 0.239896 4.85019 0.332726C4.94302 0.425557 4.99518 0.551462 4.99518 0.682744V3.63774H7.95018C8.08146 3.63774 8.20736 3.6899 8.30019 3.78273C8.39302 3.87556 8.44518 4.00146 8.44518 4.13274C8.44518 4.26403 8.39302 4.38993 8.30019 4.48276C8.20736 4.57559 8.08146 4.62774 7.95018 4.62774H4.99518V7.58274C4.99518 7.71403 4.94302 7.83993 4.85019 7.93276C4.75736 8.02559 4.63146 8.07774 4.50018 8.07774C4.36889 8.07774 4.24299 8.02559 4.15016 7.93276C4.05733 7.83993 4.00518 7.71403 4.00518 7.58274V4.62774H1.05018C0.918894 4.62774 0.792988 4.57559 0.700158 4.48276C0.607327 4.38993 0.555176 4.26403 0.555176 4.13274C0.555176 4.00146 0.607327 3.87556 0.700158 3.78273C0.792988 3.6899 0.918894 3.63774 1.05018 3.63774H4.00518V0.682744C4.00518 0.551462 4.05733 0.425557 4.15016 0.332726C4.24299 0.239896 4.36889 0.187744 4.50018 0.187744Z" fill="#464440" fill-opacity="0.45"/>
</svg>
