<svg width="35" height="36" viewBox="0 0 35 36" fill="none" xmlns="http://www.w3.org/2000/svg">
<path opacity="0.4" d="M17.4998 3.41602C13.679 3.41602 10.5728 6.52227 10.5728 10.3431C10.5728 14.091 13.504 17.1243 17.3248 17.2556C17.4415 17.241 17.5582 17.241 17.6457 17.2556C17.6748 17.2556 17.6894 17.2556 17.7186 17.2556C17.7332 17.2556 17.7332 17.2556 17.7478 17.2556C21.4811 17.1243 24.4123 14.091 24.4269 10.3431C24.4269 6.52227 21.3207 3.41602 17.4998 3.41602Z" fill="#888870"/>
<path d="M24.9084 21.1359C20.8396 18.4234 14.2042 18.4234 10.1063 21.1359C8.25423 22.3755 7.2334 24.0526 7.2334 25.8464C7.2334 27.6401 8.25423 29.3026 10.0917 30.5276C12.1334 31.8984 14.8167 32.5839 17.5001 32.5839C20.1834 32.5839 22.8667 31.8984 24.9084 30.5276C26.7459 29.288 27.7667 27.6255 27.7667 25.8172C27.7521 24.0234 26.7459 22.3609 24.9084 21.1359Z" fill="#888870"/>
</svg>
