<svg width="18" height="17" viewBox="0 0 18 17" fill="none" xmlns="http://www.w3.org/2000/svg">
<path d="M7.76272 0.0878906C6.66132 0.0880048 5.57608 0.352733 4.59834 0.859788C3.62061 1.36684 2.77901 2.10138 2.1444 3.00156C1.50978 3.90175 1.10073 4.94123 0.951676 6.03249C0.802623 7.12375 0.917933 8.23485 1.2879 9.27224C1.65786 10.3096 2.27165 11.243 3.07759 11.9937C3.88353 12.7443 4.85803 13.2904 5.91905 13.5859C6.98007 13.8813 8.09655 13.9176 9.1745 13.6915C10.2524 13.4655 11.2603 12.9837 12.1132 12.2869L16.4945 16.6671C16.6235 16.796 16.7984 16.8685 16.9807 16.8685C17.1631 16.8685 17.338 16.796 17.4669 16.6671C17.5959 16.5381 17.6683 16.3633 17.6683 16.1809C17.6683 15.9985 17.5959 15.8236 17.4669 15.6947L13.0856 11.3145C13.909 10.307 14.4296 9.0865 14.5868 7.79488C14.7441 6.50326 14.5315 5.19353 13.974 4.01789C13.4164 2.84225 12.5366 1.84898 11.4369 1.1535C10.3373 0.458014 9.06278 0.0888803 7.76162 0.0889905M2.26162 6.96399C2.26162 5.5053 2.84108 4.10635 3.87253 3.0749C4.90398 2.04345 6.30293 1.46399 7.76162 1.46399C9.22031 1.46399 10.6193 2.04345 11.6507 3.0749C12.6822 4.10635 13.2616 5.5053 13.2616 6.96399C13.2616 8.42268 12.6822 9.82163 11.6507 10.8531C10.6193 11.8845 9.22031 12.464 7.76162 12.464C6.30293 12.464 4.90398 11.8845 3.87253 10.8531C2.84108 9.82163 2.26162 8.42268 2.26162 6.96399Z" fill="#474644" fill-opacity="0.6"/>
</svg>
