<svg width="17" height="18" viewBox="0 0 17 18" fill="none" xmlns="http://www.w3.org/2000/svg">
<path d="M8.04053 17.2294H9.55947C10.1836 17.2294 10.6724 16.846 10.8152 16.252L11.1235 14.921L11.319 14.8459L12.4771 15.5602C13.0034 15.891 13.62 15.8084 14.0561 15.3646L15.1089 14.3119C15.5601 13.8683 15.6353 13.2516 15.3044 12.7329L14.5901 11.5824L14.6577 11.3944L15.9887 11.086C16.5752 10.9356 16.9662 10.4469 16.9662 9.83027V8.34892C16.9662 7.73233 16.5827 7.24355 15.9887 7.09316L14.6728 6.77734L14.5976 6.58184L15.3119 5.43135C15.6428 4.9125 15.5601 4.30342 15.1164 3.84473L14.0637 2.792C13.6276 2.35586 13.0109 2.27315 12.492 2.59648L11.3341 3.30332L11.1235 3.2206L10.8152 1.88965C10.6724 1.29561 10.1836 0.912109 9.55947 0.912109H8.04053C7.40889 0.912109 6.92764 1.29561 6.78477 1.88965L6.47647 3.2206L6.26592 3.30332L5.1079 2.59648C4.58154 2.27315 3.96494 2.35586 3.52881 2.792L2.47608 3.84473C2.03243 4.30342 1.94971 4.9125 2.28056 5.43135L3.00244 6.58184L2.91973 6.77734L1.61132 7.09316C1.00977 7.24355 0.633789 7.73233 0.633789 8.34892V9.83027C0.633789 10.4469 1.01729 10.9356 1.61132 11.086L2.93477 11.3944L3.00996 11.5824L2.28809 12.7329C1.95723 13.2516 2.03994 13.8683 2.48359 14.3119L3.53632 15.3646C3.97998 15.8084 4.59658 15.891 5.11543 15.5602L6.27343 14.8459L6.47647 14.921L6.78477 16.252C6.92764 16.846 7.40889 17.2294 8.04053 17.2294ZM8.22099 15.8684C8.09316 15.8684 8.033 15.8084 8.01045 15.6955L7.5668 13.8457C7.08555 13.7329 6.63438 13.5449 6.26592 13.3118L4.6417 14.3119C4.55147 14.3721 4.46123 14.3646 4.36348 14.2743L3.56641 13.4772C3.48369 13.3945 3.47618 13.3043 3.54385 13.2065L4.54395 11.5824C4.3334 11.2289 4.13037 10.7777 4.01757 10.304L2.16026 9.86036C2.04746 9.8378 1.99483 9.77764 1.99483 9.64981V8.52188C1.99483 8.38652 2.04746 8.33389 2.16026 8.30381L4.01757 7.86767C4.13037 7.36387 4.34843 6.89766 4.52891 6.57431L3.53632 4.95762C3.46865 4.85234 3.46865 4.76211 3.55888 4.67188L4.35596 3.88233C4.45371 3.79961 4.52891 3.78457 4.6417 3.84473L6.25839 4.82978C6.59678 4.62675 7.09306 4.41621 7.5668 4.2959L8.01045 2.44609C8.033 2.3333 8.09316 2.27315 8.22099 2.27315H9.37901C9.50684 2.27315 9.567 2.32578 9.58204 2.44609L10.0332 4.31093C10.522 4.42373 10.9656 4.62675 11.3341 4.8373L12.9507 3.85224C13.0636 3.79208 13.1387 3.79961 13.229 3.88984L14.0336 4.6794C14.1238 4.76211 14.1238 4.85234 14.0561 4.95762L13.0636 6.57431C13.244 6.89766 13.4696 7.36387 13.5825 7.86767L15.4322 8.30381C15.5526 8.33389 15.6052 8.38652 15.6052 8.52188V9.64981C15.6052 9.77764 15.545 9.8378 15.4322 9.86036L13.5749 10.304C13.4621 10.7777 13.2591 11.2289 13.056 11.5824L14.0486 13.2065C14.1088 13.3043 14.1088 13.3945 14.0261 13.4698L13.229 14.2743C13.1312 14.3646 13.0411 14.3721 12.9507 14.3119L11.3266 13.3118C10.9581 13.5449 10.5295 13.7329 10.0332 13.8457L9.58204 15.6955C9.567 15.8158 9.50684 15.8684 9.37901 15.8684H8.22099ZM8.8 11.9282C10.3641 11.9282 11.6499 10.6424 11.6499 9.0708C11.6499 7.51425 10.3641 6.22842 8.8 6.22842C7.23593 6.22842 5.94257 7.51425 5.94257 9.0708C5.94257 10.6424 7.22842 11.9282 8.8 11.9282ZM8.8 10.6424C7.94277 10.6424 7.23593 9.93555 7.23593 9.0708C7.23593 8.22109 7.94277 7.52178 8.8 7.52178C9.64218 7.52178 10.3415 8.22109 10.3415 9.0708C10.3415 9.92803 9.64218 10.6424 8.8 10.6424Z" fill="#37352F"/>
</svg>
