<svg width="18" height="18" viewBox="0 0 18 18" fill="none" xmlns="http://www.w3.org/2000/svg">
<path d="M4.73992 10.0238C2.51102 9.10688 3.19305 2.25492 5.48453 2.25C7.8625 2.25352 6.46891 6.34641 4.73992 10.0238Z" fill="#9D9E9F" fill-opacity="0.3"/>
<path d="M16.3125 11.8125H4.49019C4.67722 11.4441 4.86496 11.0651 5.05269 10.6798C6.10316 10.7958 7.34629 10.061 8.76097 8.48461C8.80316 8.60133 8.85027 8.72156 8.9016 8.8432C9.35933 9.91547 9.94996 10.5265 10.6594 10.6608C11.3864 10.8014 12.1064 10.4337 12.8447 9.54844C13.3243 10.1159 14.3086 10.6875 16.3125 10.6875C16.4617 10.6875 16.6048 10.6282 16.7103 10.5227C16.8158 10.4173 16.875 10.2742 16.875 10.125C16.875 9.97582 16.8158 9.83274 16.7103 9.72725C16.6048 9.62176 16.4617 9.5625 16.3125 9.5625C14.1589 9.5625 13.5317 8.81789 13.5 8.42203C13.4966 8.29118 13.4477 8.16562 13.3616 8.06698C13.2756 7.96834 13.1578 7.9028 13.0286 7.88164C12.8995 7.86049 12.767 7.88505 12.6539 7.95109C12.5409 8.01713 12.4545 8.12051 12.4095 8.24344C11.5538 9.52664 11.0468 9.58922 10.8626 9.55547C10.2769 9.44508 9.73199 8.08383 9.54847 7.1993C9.52446 7.08759 9.46699 6.98584 9.38373 6.90759C9.30046 6.82935 9.19533 6.77832 9.08235 6.76129C8.96936 6.74427 8.85386 6.76206 8.75124 6.81229C8.64861 6.86253 8.56371 6.94282 8.50785 7.0425C7.11566 8.77359 6.18191 9.36281 5.59621 9.51328C6.19316 8.18578 6.63894 7.0207 6.92441 6.03984C7.40394 4.39172 7.4391 3.2393 7.03058 2.51719C6.81965 2.14031 6.37738 1.69102 5.49004 1.6875H5.47246C4.34746 1.69523 3.46152 2.76328 3.03824 4.61953C2.78582 5.72414 2.74433 6.9532 2.92363 7.99453C3.10293 9.03586 3.47629 9.7882 4.01699 10.2368C3.75543 10.7803 3.48754 11.3112 3.22738 11.8139H1.68754C1.53835 11.8139 1.39528 11.8732 1.28979 11.9787C1.1843 12.0841 1.12504 12.2272 1.12504 12.3764C1.12504 12.5256 1.1843 12.6687 1.28979 12.7742C1.39528 12.8796 1.53835 12.9389 1.68754 12.9389H2.63043C1.83449 14.4155 1.21574 15.4448 1.2059 15.4617C1.16579 15.5251 1.13876 15.5958 1.12638 15.6697C1.114 15.7437 1.11652 15.8193 1.1338 15.8923C1.15108 15.9652 1.18277 16.034 1.22701 16.0945C1.27124 16.155 1.32713 16.2061 1.39139 16.2447C1.45564 16.2834 1.52697 16.3087 1.60118 16.3194C1.67539 16.3301 1.75097 16.3258 1.8235 16.3068C1.89603 16.2878 1.96404 16.2546 2.02352 16.2089C2.083 16.1633 2.13276 16.1062 2.16988 16.0411C2.18043 16.0228 2.9623 14.7199 3.9066 12.9389H16.3125C16.4617 12.9389 16.6048 12.8796 16.7103 12.7742C16.8158 12.6687 16.875 12.5256 16.875 12.3764C16.875 12.2272 16.8158 12.0841 16.7103 11.9787C16.6048 11.8732 16.4617 11.8139 16.3125 11.8139V11.8125ZM13.5 8.4375V8.42273C13.5005 8.42765 13.5005 8.43259 13.5 8.4375ZM4.13371 4.86984C4.41425 3.64078 4.95566 2.8125 5.48441 2.8125C5.85355 2.8125 5.9766 2.94328 6.04691 3.07055C6.25785 3.44531 6.50535 4.77141 4.52465 9.14344C3.94879 8.34961 3.75261 6.53906 4.13371 4.86984Z" fill="#9D9E9F"/>
</svg>
