<svg width="11" height="12" viewBox="0 0 11 12" fill="none" xmlns="http://www.w3.org/2000/svg">
<g clip-path="url(#clip0_500_1519)">
<path d="M2.34228 7.43691C2.34228 8.06683 1.82855 8.58134 1.19854 8.58134C0.568535 8.58134 0.0541992 8.06683 0.0541992 7.43691C0.0541992 6.80699 0.568707 6.29248 1.19863 6.29248H2.34237L2.34228 7.43691ZM2.91884 7.43691C2.91884 6.80699 3.43335 6.29248 4.06327 6.29248C4.69319 6.29248 5.2077 6.8069 5.2077 7.43691V10.3016C5.2077 10.9316 4.69328 11.4461 4.06327 11.4461C3.43335 11.4461 2.91884 10.9316 2.91884 10.3016V7.43691Z" fill="#DE1C59"/>
<path d="M4.06327 2.84228C3.43335 2.84228 2.91884 2.32855 2.91884 1.69854C2.91884 1.06854 3.43335 0.554199 4.06327 0.554199C4.69319 0.554199 5.2077 1.06871 5.2077 1.69863V2.84237L4.06327 2.84228ZM4.06327 3.41884C4.69319 3.41884 5.2077 3.93335 5.2077 4.56327C5.2077 5.19319 4.69328 5.7077 4.06327 5.7077H1.19854C0.568621 5.7077 0.0541992 5.19328 0.0541992 4.56327C0.0541992 3.93335 0.568707 3.41884 1.19863 3.41884H4.06327Z" fill="#35C5F0"/>
<path d="M8.6579 4.56327C8.6579 3.93335 9.17163 3.41884 9.80164 3.41884C10.4316 3.41884 10.9461 3.93335 10.9461 4.56327C10.9461 5.19319 10.4316 5.7077 9.80164 5.7077H8.6579V4.56327ZM8.08134 4.56327C8.08134 5.19319 7.56683 5.7077 6.93691 5.7077C6.30699 5.7077 5.79248 5.19328 5.79248 4.56327V1.69854C5.79248 1.06862 6.3069 0.554199 6.93691 0.554199C7.56683 0.554199 8.08134 1.06871 8.08134 1.69863V4.56327Z" fill="#2EB57D"/>
<path d="M6.93691 9.1579C7.56683 9.1579 8.08134 9.67163 8.08134 10.3016C8.08134 10.9316 7.56683 11.4461 6.93691 11.4461C6.30699 11.4461 5.79248 10.9316 5.79248 10.3016V9.1579H6.93691ZM6.93691 8.58134C6.30699 8.58134 5.79248 8.06683 5.79248 7.43691C5.79248 6.80699 6.3069 6.29248 6.93691 6.29248H9.80164C10.4316 6.29248 10.9461 6.8069 10.9461 7.43691C10.9461 8.06683 10.4316 8.58134 9.80164 8.58134H6.93691Z" fill="#EBB02E"/>
</g>
<defs>
<clipPath id="clip0_500_1519">
<rect width="11" height="11" fill="white" transform="translate(0 0.5)"/>
</clipPath>
</defs>
</svg>
