<svg width="18" height="18" viewBox="0 0 18 18" fill="none" xmlns="http://www.w3.org/2000/svg">
<g clip-path="url(#clip0_350_21521)">
<path d="M17.8247 9.20768C17.8247 8.59588 17.7751 7.98078 17.6693 7.37891H9.18018V10.8446H14.0415C13.8397 11.9624 13.1916 12.9512 12.2425 13.5795V15.8283H15.1427C16.8458 14.2608 17.8247 11.9459 17.8247 9.20768Z" fill="#4285F4"/>
<path d="M9.17983 18C11.6072 18 13.6542 17.203 15.1457 15.8273L12.2454 13.5786C11.4385 14.1275 10.3968 14.4384 9.18314 14.4384C6.83517 14.4384 4.84435 12.8543 4.13004 10.7246H1.13721V13.0428C2.66504 16.0819 5.77693 18 9.17983 18Z" fill="#34A853"/>
<path d="M4.12708 10.725C3.75008 9.60727 3.75008 8.39691 4.12708 7.27914V4.96094H1.13755C-0.13895 7.50402 -0.13895 10.5002 1.13755 13.0432L4.12708 10.725Z" fill="#FBBC04"/>
<path d="M9.17983 3.56224C10.4629 3.5424 11.7031 4.02523 12.6323 4.9115L15.2019 2.34196C13.5748 0.814129 11.4154 -0.0258495 9.17983 0.000606499C5.77693 0.000606499 2.66504 1.91867 1.13721 4.96111L4.12673 7.27931C4.83774 5.1463 6.83186 3.56224 9.17983 3.56224Z" fill="#EA4335"/>
</g>
<defs>
<clipPath id="clip0_350_21521">
<rect width="18" height="18" fill="white"/>
</clipPath>
</defs>
</svg>
