<svg width="25" height="24" viewBox="0 0 25 24" fill="none" xmlns="http://www.w3.org/2000/svg">
<rect x="0.5" width="24" height="24" rx="12" fill="#888870"/>
<path d="M12.9952 5.90484C12.9302 5.83977 12.853 5.78815 12.768 5.75293C12.683 5.71771 12.592 5.69958 12.5 5.69958C12.408 5.69958 12.3169 5.71771 12.232 5.75293C12.147 5.78815 12.0698 5.83977 12.0048 5.90484L7.68478 10.2248C7.55334 10.3563 7.47949 10.5345 7.47949 10.7204C7.47949 10.9063 7.55334 11.0846 7.68478 11.216C7.81622 11.3475 7.99449 11.4213 8.18038 11.4213C8.36626 11.4213 8.54453 11.3475 8.67598 11.216L11.8008 8.09044V17.64C11.8008 18.0048 12.1144 18.3008 12.5008 18.3008C12.8872 18.3008 13.2008 18.0048 13.2008 17.64V8.08964L16.3256 11.2152C16.3907 11.2803 16.4679 11.3318 16.5529 11.367C16.6379 11.4022 16.7291 11.4203 16.8211 11.4202C16.9131 11.4202 17.0042 11.402 17.0891 11.3668C17.1741 11.3316 17.2513 11.2799 17.3164 11.2148C17.3814 11.1498 17.433 11.0725 17.4682 10.9875C17.5033 10.9025 17.5214 10.8114 17.5214 10.7194C17.5213 10.6273 17.5032 10.5363 17.4679 10.4513C17.4327 10.3663 17.3811 10.2891 17.316 10.224L12.9952 5.90484Z" fill="white"/>
</svg>
