<svg width="25" height="24" viewBox="0 0 25 24" fill="none" xmlns="http://www.w3.org/2000/svg">
<g opacity="0.4">
<rect x="0.5" width="24" height="24" rx="12" fill="#A5A5A5"/>
<path d="M12.9952 5.90496C12.9302 5.83989 12.853 5.78827 12.768 5.75305C12.683 5.71783 12.592 5.69971 12.5 5.69971C12.408 5.69971 12.3169 5.71783 12.232 5.75305C12.147 5.78827 12.0698 5.83989 12.0048 5.90496L7.68478 10.225C7.55334 10.3564 7.47949 10.5347 7.47949 10.7206C7.47949 10.9064 7.55334 11.0847 7.68478 11.2162C7.81622 11.3476 7.99449 11.4214 8.18038 11.4214C8.36626 11.4214 8.54453 11.3476 8.67598 11.2162L11.8008 8.09056V17.6402C11.8008 18.005 12.1144 18.301 12.5008 18.301C12.8872 18.301 13.2008 18.005 13.2008 17.6402V8.08976L16.3256 11.2154C16.3907 11.2804 16.4679 11.332 16.5529 11.3671C16.6379 11.4023 16.7291 11.4204 16.8211 11.4204C16.9131 11.4203 17.0042 11.4022 17.0891 11.3669C17.1741 11.3317 17.2513 11.28 17.3164 11.215C17.3814 11.1499 17.433 11.0726 17.4682 10.9876C17.5033 10.9026 17.5214 10.8115 17.5214 10.7195C17.5213 10.6275 17.5032 10.5364 17.4679 10.4514C17.4327 10.3664 17.3811 10.2892 17.316 10.2242L12.9952 5.90496Z" fill="white"/>
</g>
</svg>
