<svg width="15" height="16" viewBox="0 0 15 16" fill="none" xmlns="http://www.w3.org/2000/svg">
<path opacity="0.4" d="M10.6425 0.5H4.3575C1.6275 0.5 0 2.1275 0 4.8575V11.1425C0 13.8725 1.6275 15.5 4.3575 15.5H10.6425C13.3725 15.5 15 13.8725 15 11.1425V4.8575C15 2.1275 13.3725 0.5 10.6425 0.5Z" fill="#9D9E9F"/>
<path d="M12.2324 5.65259C12.2324 5.96009 11.9849 6.21509 11.6699 6.21509H7.73242C7.42492 6.21509 7.16992 5.96009 7.16992 5.65259C7.16992 5.34509 7.42492 5.09009 7.73242 5.09009H11.6699C11.9849 5.09009 12.2324 5.34509 12.2324 5.65259Z" fill="#9D9E9F"/>
<path d="M5.97742 4.92492L4.28992 6.61242C4.17742 6.72492 4.03492 6.77742 3.89242 6.77742C3.74992 6.77742 3.59992 6.72492 3.49492 6.61242L2.93242 6.04992C2.70742 5.83242 2.70742 5.47242 2.93242 5.25492C3.14992 5.03742 3.50242 5.03742 3.72742 5.25492L3.89242 5.41992L5.18242 4.12992C5.39992 3.91242 5.75242 3.91242 5.97742 4.12992C6.19492 4.34742 6.19492 4.70742 5.97742 4.92492Z" fill="#9D9E9F"/>
<path d="M12.2324 10.9026C12.2324 11.2101 11.9849 11.4651 11.6699 11.4651H7.73242C7.42492 11.4651 7.16992 11.2101 7.16992 10.9026C7.16992 10.5951 7.42492 10.3401 7.73242 10.3401H11.6699C11.9849 10.3401 12.2324 10.5951 12.2324 10.9026Z" fill="#9D9E9F"/>
<path d="M5.97742 10.1749L4.28992 11.8624C4.17742 11.9749 4.03492 12.0274 3.89242 12.0274C3.74992 12.0274 3.59992 11.9749 3.49492 11.8624L2.93242 11.2999C2.70742 11.0824 2.70742 10.7224 2.93242 10.5049C3.14992 10.2874 3.50242 10.2874 3.72742 10.5049L3.89242 10.6699L5.18242 9.37992C5.39992 9.16242 5.75242 9.16242 5.97742 9.37992C6.19492 9.59742 6.19492 9.95742 5.97742 10.1749Z" fill="#9D9E9F"/>
</svg>
