<svg width="36" height="36" viewBox="0 0 36 36" fill="none" xmlns="http://www.w3.org/2000/svg">
<path opacity="0.4" d="M27.4711 19.2246V26.4142C27.4711 28.2663 26.0274 30.2496 24.292 30.8329L19.6399 32.3788C18.8232 32.6559 17.4961 32.6559 16.694 32.3788L12.042 30.8329C10.292 30.2496 8.86279 28.2663 8.86279 26.4142L8.87738 19.2246L15.3232 23.4246C16.8982 24.46 19.494 24.46 21.069 23.4246L27.4711 19.2246Z" fill="#888870"/>
<path d="M29.8045 9.91992L21.069 4.18867C19.494 3.15326 16.8982 3.15326 15.3232 4.18867L6.54404 9.91992C3.72946 11.7428 3.72946 15.8699 6.54404 17.7074L8.87738 19.2241L15.3232 23.4241C16.8982 24.4595 19.494 24.4595 21.069 23.4241L27.4711 19.2241L29.469 17.9116V22.3741C29.469 22.972 29.9649 23.4678 30.5628 23.4678C31.1607 23.4678 31.6565 22.972 31.6565 22.3741V15.1991C32.2399 13.3178 31.642 11.1303 29.8045 9.91992Z" fill="#888870"/>
</svg>
