<svg width="18" height="18" viewBox="0 0 18 18" fill="none" xmlns="http://www.w3.org/2000/svg">
<path opacity="0.4" d="M12.6899 16.4999C10.5899 16.4999 8.87988 14.7974 8.87988 12.6899C8.87988 10.5899 10.5824 8.87988 12.6899 8.87988C14.7899 8.87988 16.4999 10.5824 16.4999 12.6899C16.4999 14.7974 14.7974 16.4999 12.6899 16.4999Z" fill="#9D9E9F"/>
<path opacity="0.4" d="M3.765 1.5H6.705C8.2575 1.5 9.0075 2.24999 8.97001 3.76499V6.705C9.0075 8.2575 8.2575 9.00749 6.705 8.96999H3.765C2.25 8.99999 1.5 8.24999 1.5 6.69749V3.75751C1.5 2.25001 2.25 1.5 3.765 1.5Z" fill="#9D9E9F"/>
<path d="M6.75727 6.19494C6.52477 6.19494 6.30727 6.10493 6.10477 5.95493C6.29227 5.65493 6.42727 5.31744 6.49477 4.94994H6.74977C7.05727 4.94994 7.31227 4.69494 7.31227 4.38744C7.31227 4.07994 7.05727 3.82494 6.74977 3.82494H6.00727C5.99977 3.82494 5.99228 3.82494 5.99228 3.82494H5.97727H5.78228C5.75228 3.53994 5.51977 3.31494 5.22727 3.31494C4.93477 3.31494 4.70227 3.53994 4.67227 3.82494H3.70477C3.39727 3.82494 3.14227 4.07994 3.14227 4.38744C3.14227 4.69494 3.39727 4.94994 3.70477 4.94994H5.33227C5.10727 5.66994 4.46227 6.19494 3.69727 6.19494C3.38977 6.19494 3.13477 6.44994 3.13477 6.75744C3.13477 7.06494 3.38977 7.31994 3.69727 7.31994C4.30477 7.31994 4.86727 7.11744 5.33227 6.77994C5.74477 7.12494 6.23977 7.31994 6.74977 7.31994C7.05727 7.31994 7.31227 7.06494 7.31227 6.75744C7.31227 6.44994 7.06477 6.19494 6.75727 6.19494Z" fill="#9D9E9F"/>
<path d="M6.75 17.0625C3.5475 17.0625 0.9375 14.4525 0.9375 11.25C0.9375 10.9425 1.1925 10.6875 1.5 10.6875C1.8075 10.6875 2.0625 10.9425 2.0625 11.25C2.0625 13.47 3.6075 15.33 5.685 15.8175L5.4825 15.48C5.325 15.21 5.40751 14.865 5.67751 14.7075C5.94001 14.55 6.2925 14.6325 6.45 14.9025L7.2375 16.215C7.3425 16.3875 7.3425 16.605 7.245 16.7775C7.14 16.95 6.9525 17.0625 6.75 17.0625Z" fill="#9D9E9F"/>
<path d="M16.4998 7.3125C16.1923 7.3125 15.9373 7.0575 15.9373 6.75C15.9373 4.53 14.3923 2.67 12.3148 2.1825L12.5173 2.51999C12.6748 2.78999 12.5923 3.13501 12.3223 3.29251C12.0598 3.45001 11.7073 3.3675 11.5498 3.0975L10.7623 1.785C10.6573 1.6125 10.6573 1.395 10.7548 1.2225C10.8523 1.0425 11.0398 0.9375 11.2423 0.9375C14.4448 0.9375 17.0548 3.5475 17.0548 6.75C17.0623 7.0575 16.8073 7.3125 16.4998 7.3125Z" fill="#9D9E9F"/>
<path d="M14.7972 13.7475L13.1922 10.545C13.0947 10.3575 12.8997 10.23 12.6897 10.23C12.4797 10.23 12.2847 10.35 12.1872 10.5375L10.5822 13.74C10.4397 14.0175 10.5522 14.355 10.8372 14.4975C10.9197 14.535 11.0022 14.5575 11.0847 14.5575C11.2872 14.5575 11.4897 14.445 11.5872 14.25L11.7147 13.995H13.6572L13.7847 14.25C13.9272 14.5275 14.2647 14.64 14.5422 14.505C14.8272 14.3625 14.9397 14.025 14.7972 13.7475ZM12.2847 12.87L12.6972 12.0525L13.1097 12.87H12.2847Z" fill="#9D9E9F"/>
</svg>
