<svg width="18" height="19" viewBox="0 0 18 19" fill="none" xmlns="http://www.w3.org/2000/svg">
<path d="M7.92518 8.15467C7.92518 8.02339 7.87303 7.89748 7.7802 7.80465C7.68737 7.71182 7.56146 7.65967 7.43018 7.65967C7.2989 7.65967 7.17299 7.71182 7.08016 7.80465C6.98733 7.89748 6.93518 8.02339 6.93518 8.15467V13.5358C6.93518 13.6008 6.94798 13.6651 6.97286 13.7252C6.99774 13.7853 7.0342 13.8398 7.08016 13.8858C7.12613 13.9318 7.1807 13.9682 7.24075 13.9931C7.30081 14.018 7.36518 14.0308 7.43018 14.0308C7.49518 14.0308 7.55955 14.018 7.61961 13.9931C7.67967 13.9682 7.73423 13.9318 7.7802 13.8858C7.82616 13.8398 7.86263 13.7853 7.8875 13.7252C7.91238 13.6651 7.92518 13.6008 7.92518 13.5358V8.15467ZM11.0644 8.15467C11.0644 8.02339 11.0122 7.89748 10.9194 7.80465C10.8266 7.71182 10.7007 7.65967 10.5694 7.65967C10.4381 7.65967 10.3122 7.71182 10.2194 7.80465C10.1265 7.89748 10.0744 8.02339 10.0744 8.15467V13.5358C10.0744 13.6008 10.0872 13.6651 10.1121 13.7252C10.1369 13.7853 10.1734 13.8398 10.2194 13.8858C10.2653 13.9318 10.3199 13.9682 10.38 13.9931C10.44 14.018 10.5044 14.0308 10.5694 14.0308C10.6344 14.0308 10.6988 14.018 10.7588 13.9931C10.8189 13.9682 10.8734 13.9318 10.9194 13.8858C10.9654 13.8398 11.0018 13.7853 11.0267 13.7252C11.0516 13.6651 11.0644 13.6008 11.0644 13.5358V8.15467Z" fill="#474644" fill-opacity="0.6"/>
<path d="M5.74735 4.03266V5.35026H3.17065C3.02147 5.35026 2.8784 5.40952 2.77291 5.51501C2.66742 5.6205 2.60815 5.76357 2.60815 5.91276C2.60815 6.06194 2.66742 6.20501 2.77291 6.3105C2.8784 6.41599 3.02147 6.47526 3.17065 6.47526H3.97795L4.33165 14.2567C4.35714 14.8179 4.59803 15.3476 5.00422 15.7357C5.4104 16.1238 5.95058 16.3403 6.51235 16.3402H11.4876C12.0492 16.34 12.5891 16.1234 12.9951 15.7354C13.4011 15.3473 13.6419 14.8177 13.6674 14.2567L14.0211 6.47526H14.8293C14.9784 6.47526 15.1215 6.41599 15.227 6.3105C15.3325 6.20501 15.3918 6.06194 15.3918 5.91276C15.3918 5.76357 15.3325 5.6205 15.227 5.51501C15.1215 5.40952 14.9784 5.35026 14.8293 5.35026H12.2526V4.03266C12.2526 3.27486 11.6379 2.66016 10.8801 2.66016H7.11895C6.36115 2.66016 5.74735 3.27486 5.74735 4.03266ZM7.11895 3.78516H10.881C11.016 3.78516 11.1276 3.89586 11.1276 4.03266V5.35026H6.87235V4.03266C6.87235 3.89586 6.98305 3.78516 7.11895 3.78516ZM6.30895 6.47616H12.8952L12.5442 14.2054C12.5319 14.4773 12.4152 14.7341 12.2184 14.9222C12.0216 15.1103 11.7598 15.2152 11.4876 15.2152H6.51235C6.24012 15.2152 5.97835 15.1103 5.78154 14.9222C5.58472 14.7341 5.46803 14.4773 5.45575 14.2054L5.10475 6.47526L6.30895 6.47616Z" fill="#474644" fill-opacity="0.6"/>
</svg>
