<svg width="121" height="34" viewBox="0 0 121 34" fill="none" xmlns="http://www.w3.org/2000/svg">
<path d="M28.5811 11.7676C31.3666 11.7676 33.6248 14.0257 33.6248 16.8113C33.6248 19.5969 31.3666 21.855 28.5811 21.855L5.04372 21.855C2.25815 21.855 -1.21761e-07 19.5969 0 16.8113C1.21761e-07 14.0257 2.25815 11.7676 5.04372 11.7676L28.5811 11.7676Z" fill="#888870"/>
<path d="M21.856 28.5811C21.856 31.3666 19.5978 33.6248 16.8122 33.6248C14.0267 33.6248 11.7685 31.3666 11.7685 28.5811L11.7685 5.04372C11.7685 2.25815 14.0267 -4.6399e-07 16.8122 -2.20468e-07C19.5978 2.30542e-08 21.856 2.25815 21.856 5.04372L21.856 28.5811Z" fill="#888870"/>
<path d="M29.0248 21.8915C30.9945 23.8612 30.9945 27.0547 29.0248 29.0244C27.0551 30.9941 23.8616 30.9941 21.8919 29.0244L5.24849 12.381C3.2788 10.4113 3.2788 7.21778 5.24849 5.24809C7.21819 3.27839 10.4117 3.27839 12.3814 5.24809L29.0248 21.8915Z" fill="#EDEDDF"/>
<path d="M12.3819 29.0243C10.4122 30.994 7.21873 30.994 5.24904 29.0243C3.27934 27.0546 3.27934 23.8611 5.24904 21.8914L21.8925 5.24801C23.8622 3.27831 27.0557 3.27831 29.0254 5.24801C30.995 7.2177 30.995 10.4112 29.0253 12.3809L12.3819 29.0243Z" fill="#EDEDDF"/>
<path fill-rule="evenodd" clip-rule="evenodd" d="M16.9264 8.8886C16.555 8.8886 16.2539 9.18969 16.2539 9.5611V14.652C16.2539 14.8557 16.2539 14.9575 16.2136 15.0047C16.1787 15.0456 16.1262 15.0673 16.0726 15.0631C16.0107 15.0582 15.9387 14.9862 15.7947 14.8422L9.55574 8.60322C9.29311 8.34059 8.86731 8.34059 8.60469 8.60322C8.34206 8.86585 8.34206 9.29165 8.60469 9.55427L14.8436 15.7932C14.9877 15.9373 15.0597 16.0093 15.0646 16.0711C15.0688 16.1248 15.0471 16.1772 15.0061 16.2121C14.959 16.2524 14.8571 16.2524 14.6534 16.2524H9.613C9.24159 16.2524 8.9405 16.5535 8.9405 16.9249C8.9405 17.2963 9.24159 17.5974 9.613 17.5974H14.6534C14.8571 17.5974 14.959 17.5974 15.0061 17.6377C15.0471 17.6727 15.0688 17.7251 15.0646 17.7787C15.0597 17.8406 14.9877 17.9126 14.8436 18.0566L8.60468 24.2956C8.34206 24.5582 8.34206 24.984 8.60468 25.2466C8.86731 25.5093 9.29311 25.5093 9.55574 25.2466L15.7947 19.0077C15.9387 18.8636 16.0107 18.7916 16.0726 18.7868C16.1262 18.7825 16.1787 18.8043 16.2136 18.8452C16.2539 18.8923 16.2539 18.9942 16.2539 19.1979V24.2888C16.2539 24.6602 16.555 24.9613 16.9264 24.9613C17.2978 24.9613 17.5989 24.6602 17.5989 24.2888V19.1979C17.5989 18.9942 17.5989 18.8923 17.6392 18.8452C17.6741 18.8042 17.7265 18.7825 17.7802 18.7868C17.842 18.7916 17.9141 18.8636 18.0581 19.0077L24.2971 25.2466C24.5597 25.5093 24.9855 25.5093 25.2481 25.2466C25.5107 24.984 25.5107 24.5582 25.2481 24.2956L19.0091 18.0566C18.8651 17.9126 18.7931 17.8406 18.7882 17.7787C18.784 17.7251 18.8057 17.6727 18.8466 17.6377C18.8938 17.5974 18.9957 17.5974 19.1994 17.5974H24.2398C24.6112 17.5974 24.9123 17.2963 24.9123 16.9249C24.9123 16.5535 24.6112 16.2524 24.2398 16.2524H19.1994C18.9957 16.2524 18.8938 16.2524 18.8466 16.2122C18.8057 16.1772 18.784 16.1248 18.7882 16.0711C18.7931 16.0093 18.8651 15.9373 19.0092 15.7932L25.2481 9.55427C25.5107 9.29165 25.5107 8.86585 25.2481 8.60322C24.9855 8.34059 24.5597 8.34059 24.2971 8.60322L18.0581 14.8422C17.9141 14.9862 17.842 15.0582 17.7802 15.0631C17.7265 15.0673 17.6741 15.0456 17.6392 15.0047C17.5989 14.9575 17.5989 14.8557 17.5989 14.652V9.5611C17.5989 9.18969 17.2978 8.8886 16.9264 8.8886Z" fill="#888870"/>
<path d="M120.637 16.4975L116.595 16.7462C116.525 16.4007 116.377 16.0897 116.149 15.8133C115.921 15.53 115.62 15.3054 115.247 15.1396C114.881 14.9668 114.442 14.8804 113.931 14.8804C113.246 14.8804 112.669 15.0255 112.2 15.3158C111.73 15.5991 111.495 15.9792 111.495 16.456C111.495 16.8361 111.647 17.1574 111.951 17.42C112.255 17.6826 112.777 17.8934 113.516 18.0523L116.398 18.6328C117.946 18.9506 119.1 19.462 119.86 20.1669C120.62 20.8717 121 21.7977 121 22.9449C121 23.9883 120.692 24.904 120.077 25.6918C119.469 26.4795 118.633 27.0946 117.569 27.5368C116.512 27.9722 115.292 28.1899 113.91 28.1899C111.802 28.1899 110.123 27.7511 108.872 26.8734C107.628 25.9889 106.899 24.7865 106.685 23.2662L111.028 23.0382C111.16 23.6808 111.477 24.1715 111.982 24.5101C112.486 24.8418 113.132 25.0076 113.92 25.0076C114.694 25.0076 115.316 24.8591 115.786 24.5619C116.263 24.2578 116.505 23.8674 116.512 23.3906C116.505 22.9898 116.335 22.6615 116.004 22.4059C115.672 22.1433 115.161 21.9429 114.47 21.8046L111.712 21.2553C110.158 20.9443 109 20.4053 108.24 19.6382C107.487 18.8712 107.11 17.8934 107.11 16.7048C107.11 15.682 107.386 14.8009 107.939 14.0615C108.499 13.3221 109.283 12.752 110.292 12.3512C111.308 11.9504 112.497 11.75 113.858 11.75C115.869 11.75 117.451 12.175 118.606 13.025C119.766 13.875 120.444 15.0324 120.637 16.4975Z" fill="#888870"/>
<path d="M101.656 9.90313C100.999 9.90313 100.436 9.68545 99.966 9.25009C99.503 8.80783 99.2715 8.27918 99.2715 7.66416C99.2715 7.05604 99.503 6.5343 99.966 6.09895C100.436 5.65668 100.999 5.43555 101.656 5.43555C102.312 5.43555 102.872 5.65668 103.335 6.09895C103.805 6.5343 104.04 7.05604 104.04 7.66416C104.04 8.27918 103.805 8.80783 103.335 9.25009C102.872 9.68545 102.312 9.90313 101.656 9.90313Z" fill="#888870"/>
<path d="M99.437 27.8786V11.957H103.853V27.8786H99.437Z" fill="#888870"/>
<path d="M85.6951 18.6742V27.8789H81.2793V11.9573H85.4877V14.7664H85.6743C86.0268 13.8404 86.6176 13.1079 87.4468 12.5689C88.2761 12.023 89.2816 11.75 90.4632 11.75C91.5689 11.75 92.5329 11.9919 93.3552 12.4756C94.1776 12.9593 94.8168 13.6504 95.2729 14.5487C95.729 15.4402 95.957 16.5044 95.957 17.7413V27.8789H91.5413V18.5291C91.5482 17.5547 91.2994 16.7946 90.7949 16.2487C90.2905 15.6958 89.596 15.4194 88.7114 15.4194C88.1172 15.4194 87.592 15.5473 87.1359 15.803C86.6867 16.0586 86.3343 16.4318 86.0786 16.9224C85.8298 17.4062 85.702 17.9901 85.6951 18.6742Z" fill="#888870"/>
<path d="M68.887 28.1795C67.8712 28.1795 66.966 28.0033 66.1713 27.6509C65.3766 27.2915 64.7477 26.7629 64.2847 26.0649C63.8286 25.3601 63.6006 24.4824 63.6006 23.4321C63.6006 22.5475 63.763 21.8047 64.0878 21.2034C64.4126 20.6022 64.8548 20.1185 65.4146 19.7523C65.9743 19.386 66.6101 19.1096 67.3218 18.923C68.0405 18.7364 68.7938 18.6051 69.5815 18.5291C70.5075 18.4324 71.2539 18.3425 71.8205 18.2596C72.3872 18.1698 72.7983 18.0385 73.054 17.8657C73.3097 17.693 73.4376 17.4373 73.4376 17.0987V17.0365C73.4376 16.38 73.2302 15.8721 72.8156 15.5127C72.4079 15.1534 71.8274 14.9737 71.0742 14.9737C70.2795 14.9737 69.6472 15.1499 69.1773 15.5024C68.7074 15.8479 68.3964 16.2832 68.2444 16.8084L64.1603 16.4767C64.3676 15.5093 64.7754 14.6731 65.3835 13.9682C65.9916 13.2565 66.7759 12.7105 67.7365 12.3305C68.7039 11.9435 69.8234 11.75 71.0949 11.75C71.9795 11.75 72.826 11.8537 73.6345 12.061C74.4499 12.2683 75.1721 12.5896 75.8009 13.025C76.4367 13.4603 76.9377 14.0201 77.3039 14.7042C77.6702 15.3814 77.8533 16.1934 77.8533 17.1401V27.8789H73.6656V25.671H73.5412C73.2855 26.1686 72.9435 26.6074 72.515 26.9875C72.0866 27.3606 71.5717 27.6543 70.9705 27.8685C70.3693 28.0758 69.6748 28.1795 68.887 28.1795ZM70.1517 25.132C70.8012 25.132 71.3748 25.0042 71.8723 24.7485C72.3699 24.4859 72.7603 24.1335 73.0437 23.6912C73.327 23.2489 73.4687 22.7479 73.4687 22.1882V20.4986C73.3304 20.5884 73.1404 20.6713 72.8985 20.7474C72.6636 20.8165 72.3975 20.8821 72.1004 20.9443C71.8032 20.9996 71.5061 21.0514 71.2089 21.0998C70.9118 21.1413 70.6423 21.1793 70.4004 21.2138C69.8822 21.2898 69.4295 21.4108 69.0425 21.5766C68.6556 21.7425 68.3549 21.967 68.1407 22.2504C67.9265 22.5268 67.8194 22.8723 67.8194 23.2869C67.8194 23.8881 68.0371 24.3477 68.4724 24.6656C68.9147 24.9765 69.4744 25.132 70.1517 25.132Z" fill="#888870"/>
<path d="M60.7211 6.65039V27.8792H56.8444L47.6086 14.5179H47.4532V27.8792H42.9648V6.65039H46.9038L56.067 20.0013H56.2536V6.65039H60.7211Z" fill="#888870"/>
</svg>
