<svg width="14" height="4" viewBox="0 0 14 4" fill="none" xmlns="http://www.w3.org/2000/svg">
<path d="M1.51969 0.597412C1.33551 0.597412 1.15313 0.633689 0.982974 0.704171C0.812815 0.774653 0.658204 0.877961 0.52797 1.00819C0.397736 1.13843 0.294429 1.29304 0.223946 1.4632C0.153464 1.63336 0.117188 1.81573 0.117188 1.99991C0.117188 2.18409 0.153464 2.36647 0.223946 2.53663C0.294429 2.70679 0.397736 2.86139 0.52797 2.99163C0.658204 3.12186 0.812815 3.22517 0.982974 3.29565C1.15313 3.36614 1.33551 3.40241 1.51969 3.40241C1.89165 3.40241 2.24839 3.25465 2.5114 2.99163C2.77442 2.72861 2.92219 2.37188 2.92219 1.99991C2.92219 1.62795 2.77442 1.27121 2.5114 1.00819C2.24839 0.745175 1.89165 0.597412 1.51969 0.597412ZM6.79969 0.597412C6.42772 0.597412 6.07099 0.745175 5.80797 1.00819C5.54495 1.27121 5.39719 1.62795 5.39719 1.99991C5.39719 2.37188 5.54495 2.72861 5.80797 2.99163C6.07099 3.25465 6.42772 3.40241 6.79969 3.40241C7.17165 3.40241 7.52838 3.25465 7.7914 2.99163C8.05442 2.72861 8.20219 2.37188 8.20219 1.99991C8.20219 1.62795 8.05442 1.27121 7.7914 1.00819C7.52838 0.745175 7.17165 0.597412 6.79969 0.597412ZM12.0797 0.597412C11.7077 0.597412 11.351 0.745175 11.088 1.00819C10.825 1.27121 10.6772 1.62795 10.6772 1.99991C10.6772 2.37188 10.825 2.72861 11.088 2.99163C11.351 3.25465 11.7077 3.40241 12.0797 3.40241C12.4517 3.40241 12.8084 3.25465 13.0714 2.99163C13.3344 2.72861 13.4822 2.37188 13.4822 1.99991C13.4822 1.62795 13.3344 1.27121 13.0714 1.00819C12.8084 0.745175 12.4517 0.597412 12.0797 0.597412Z" fill="#474644" fill-opacity="0.6"/>
</svg>
