<svg width="15" height="16" viewBox="0 0 15 16" fill="none" xmlns="http://www.w3.org/2000/svg">
<path d="M7.68376 1.64001C8.3354 0.98811 9.21931 0.62177 10.1411 0.621582C11.0628 0.621395 11.9469 0.987375 12.5988 1.63901C13.2507 2.29065 13.617 3.17456 13.6172 4.0963C13.6174 5.01805 13.2514 5.90211 12.5998 6.55401L7.22576 11.928C7.03534 12.1184 6.80929 12.2695 6.5605 12.3725C6.31171 12.4756 6.04505 12.5286 5.77576 12.5286C5.50647 12.5286 5.23982 12.4756 4.99103 12.3725C4.74224 12.2695 4.51618 12.1184 4.32576 11.928C4.13535 11.7376 3.9843 11.5115 3.88125 11.2627C3.77819 11.014 3.72515 10.7473 3.72515 10.478C3.72515 10.2087 3.77819 9.94207 3.88125 9.69328C3.9843 9.44449 4.13535 9.21843 4.32576 9.02801L7.01376 6.34201C7.13099 6.22479 7.28998 6.15893 7.45576 6.15893C7.62154 6.15893 7.78054 6.22479 7.89776 6.34201C8.01499 6.45924 8.08084 6.61823 8.08084 6.78401C8.08084 6.94979 8.01499 7.10879 7.89776 7.22601L5.20976 9.91301C5.06935 10.0648 4.99314 10.265 4.99711 10.4717C5.00107 10.6784 5.0849 10.8755 5.23103 11.0218C5.37715 11.168 5.57421 11.252 5.78091 11.2562C5.98761 11.2603 6.18789 11.1843 6.33976 11.044L11.7148 5.67001C11.9244 5.46405 12.0911 5.21861 12.2053 4.94785C12.3195 4.6771 12.379 4.3864 12.3803 4.09255C12.3815 3.79869 12.3246 3.50749 12.2127 3.23577C12.1008 2.96404 11.9362 2.71717 11.7284 2.50942C11.5205 2.30166 11.2736 2.13713 11.0018 2.02532C10.7301 1.91351 10.4389 1.85665 10.145 1.858C9.85116 1.85936 9.56048 1.91891 9.28976 2.03323C9.01905 2.14754 8.77366 2.31434 8.56776 2.52401L3.19376 7.89801C2.84811 8.23545 2.57288 8.63813 2.38401 9.08273C2.19515 9.52733 2.09642 10.005 2.09353 10.488C2.09065 10.9711 2.18368 11.4499 2.36722 11.8967C2.55077 12.3435 2.82118 12.7495 3.16278 13.091C3.50438 13.4325 3.91038 13.7029 4.35723 13.8863C4.80409 14.0698 5.28291 14.1627 5.76595 14.1597C6.24899 14.1568 6.72664 14.0579 7.1712 13.869C7.61576 13.68 8.01839 13.4047 8.35576 13.059L13.0578 8.35701C13.175 8.23979 13.334 8.17393 13.4998 8.17393C13.6655 8.17393 13.8245 8.23979 13.9418 8.35701C14.059 8.47424 14.1248 8.63323 14.1248 8.79901C14.1248 8.96479 14.059 9.12379 13.9418 9.24101L9.23976 13.943C8.32079 14.862 7.07439 15.3783 5.77476 15.3783C4.47513 15.3783 3.22874 14.862 2.30976 13.943C1.39079 13.024 0.874512 11.7776 0.874512 10.478C0.874512 9.17838 1.39079 7.93199 2.30976 7.01301L7.68376 1.64001Z" fill="#474644" fill-opacity="0.6"/>
</svg>
