<svg width="15" height="14" viewBox="0 0 15 14" fill="none" xmlns="http://www.w3.org/2000/svg">
<path d="M9.3135 4.99273L6.4535 7.8594L5.3535 6.7594C5.29373 6.68961 5.22019 6.63293 5.13748 6.59291C5.05477 6.5529 4.96468 6.53041 4.87287 6.52687C4.78106 6.52332 4.6895 6.53879 4.60395 6.57231C4.5184 6.60582 4.4407 6.65666 4.37573 6.72163C4.31076 6.7866 4.25992 6.8643 4.22641 6.94985C4.19289 7.0354 4.17742 7.12695 4.18097 7.21877C4.18451 7.31058 4.207 7.40067 4.24702 7.48338C4.28703 7.56609 4.34371 7.63963 4.4135 7.6994L5.98017 9.27273C6.04246 9.33452 6.11634 9.3834 6.19756 9.41658C6.27879 9.44975 6.36576 9.46657 6.4535 9.46606C6.62839 9.46533 6.79599 9.39589 6.92017 9.27273L10.2535 5.9394C10.316 5.87742 10.3656 5.80369 10.3994 5.72245C10.4333 5.64121 10.4507 5.55407 10.4507 5.46606C10.4507 5.37806 10.4333 5.29092 10.3994 5.20968C10.3656 5.12844 10.316 5.05471 10.2535 4.99273C10.1286 4.86856 9.95962 4.79887 9.7835 4.79887C9.60738 4.79887 9.43841 4.86856 9.3135 4.99273ZM7.50017 0.466064C6.18162 0.466064 4.89269 0.857058 3.79636 1.5896C2.70004 2.32214 1.84555 3.36333 1.34097 4.58151C0.836385 5.79968 0.704362 7.14013 0.961597 8.43333C1.21883 9.72654 1.85377 10.9144 2.78612 11.8468C3.71847 12.7791 4.90636 13.4141 6.19956 13.6713C7.49277 13.9285 8.83322 13.7965 10.0514 13.2919C11.2696 12.7873 12.3108 11.9329 13.0433 10.8365C13.7758 9.7402 14.1668 8.45127 14.1668 7.13273C14.1668 6.25725 13.9944 5.39035 13.6594 4.58151C13.3243 3.77267 12.8333 3.03774 12.2142 2.41869C11.5952 1.79963 10.8602 1.30857 10.0514 0.973534C9.24255 0.638503 8.37565 0.466064 7.50017 0.466064ZM7.50017 12.4661C6.44533 12.4661 5.41419 12.1533 4.53712 11.5672C3.66006 10.9812 2.97648 10.1482 2.57281 9.17371C2.16914 8.19917 2.06352 7.12682 2.26931 6.09225C2.4751 5.05768 2.98305 4.10738 3.72893 3.3615C4.47481 2.61562 5.42512 2.10766 6.45968 1.90188C7.49425 1.69609 8.56661 1.80171 9.54114 2.20537C10.5157 2.60904 11.3486 3.29263 11.9347 4.16969C12.5207 5.04675 12.8335 6.0779 12.8335 7.13273C12.8335 8.54722 12.2716 9.90377 11.2714 10.904C10.2712 11.9042 8.91465 12.4661 7.50017 12.4661Z" fill="#E6E4E0"/>
</svg>
