<svg width="92" height="36" viewBox="0 0 92 36" fill="none" xmlns="http://www.w3.org/2000/svg">
<g clip-path="url(#clip0_487_10937)">
<path d="M16.6597 17.5565L18.0658 19.1166L19.9568 20.2894L20.2857 17.5664L19.9568 14.9048L18.0296 15.935L16.6597 17.5565Z" fill="#00832D"/>
<path d="M8.5 20.0361V22.3565C8.5 22.8864 8.94308 23.3165 9.48905 23.3165H11.8797L12.3747 21.5633L11.8797 20.0361L10.2395 19.5557L8.5 20.0361Z" fill="#0066DA"/>
<path d="M11.8797 11.7969L8.5 15.0772L10.2396 15.5566L11.8797 15.0772L12.3657 13.5709L11.8797 11.7969Z" fill="#E94235"/>
<path d="M8.5 20.0371H11.8796V15.0771H8.5V20.0371Z" fill="#2684FC"/>
<path d="M22.1156 13.1858L19.9565 14.9049V20.2895L22.1245 22.0153C22.449 22.262 22.9237 22.0372 22.9237 21.6367V13.5567C22.9237 13.1518 22.4377 12.928 22.1155 13.1858" fill="#00AC47"/>
<path d="M16.6599 17.5566V20.0361H11.8799V23.3164H18.9681C19.514 23.3164 19.9571 22.8863 19.9571 22.3565V20.2895L16.6599 17.5566Z" fill="#00AC47"/>
<path d="M18.9681 11.7969H11.8799V15.0772H16.6599V17.5567L19.9571 14.9049V12.7569C19.9571 12.227 19.514 11.7969 18.9681 11.7969" fill="#FFBA00"/>
</g>
<g clip-path="url(#clip1_487_10937)">
<path d="M42.8951 16.001H46.5113C46.853 16.001 47.1299 16.2828 47.1299 16.6305V19.9822C47.1299 21.2599 46.112 22.2958 44.8564 22.2958H44.8456C43.59 22.2959 42.5719 21.2603 42.5718 19.9826V16.33C42.5718 16.2868 42.5801 16.244 42.5963 16.2041C42.6126 16.1642 42.6364 16.1279 42.6664 16.0973C42.6964 16.0668 42.7321 16.0425 42.7713 16.026C42.8106 16.0095 42.8526 16.001 42.8951 16.001Z" fill="#5059C9"/>
<path d="M45.3387 15.3382C46.1478 15.3382 46.8038 14.6707 46.8038 13.8473C46.8038 13.0239 46.1478 12.3564 45.3387 12.3564C44.5295 12.3564 43.8735 13.0239 43.8735 13.8473C43.8735 14.6707 44.5295 15.3382 45.3387 15.3382Z" fill="#5059C9"/>
<path d="M40.7808 15.3382C41.9496 15.3382 42.8971 14.3741 42.8971 13.1847C42.8971 11.9954 41.9496 11.0312 40.7808 11.0312C39.612 11.0312 38.6646 11.9954 38.6646 13.1847C38.6646 14.3741 39.612 15.3382 40.7808 15.3382Z" fill="#7B83EB"/>
<path d="M43.6022 16.001H37.633C37.2954 16.0095 37.0283 16.2946 37.0362 16.6381V20.461C36.989 22.5224 38.5918 24.2331 40.6175 24.2836C42.6433 24.2331 44.2461 22.5224 44.199 20.461V16.6381C44.2068 16.2946 43.9398 16.0095 43.6022 16.001Z" fill="#7B83EB"/>
<path opacity="0.1" d="M40.9433 16.001V21.3581C40.9426 21.4783 40.9069 21.5956 40.8409 21.6952C40.7748 21.7948 40.6814 21.8723 40.5722 21.9181C40.5011 21.9487 40.4247 21.9644 40.3475 21.9644H37.3228C37.2805 21.8551 37.2414 21.7457 37.2088 21.6332C37.0949 21.253 37.0367 20.8578 37.0363 20.4603V16.6371C37.0285 16.2941 37.2951 16.0095 37.6321 16.001L40.9433 16.001Z" fill="black"/>
<path opacity="0.2" d="M40.6176 16.001V21.6895C40.6176 21.768 40.6021 21.8457 40.5721 21.9181C40.5271 22.0292 40.4509 22.1243 40.353 22.1915C40.2551 22.2587 40.1399 22.295 40.0218 22.2958H37.4758C37.4205 22.1864 37.3684 22.0771 37.3228 21.9644C37.279 21.8562 37.241 21.7456 37.2088 21.6332C37.0949 21.253 37.0367 20.8578 37.0363 20.4603V16.6371C37.0285 16.2941 37.2951 16.0095 37.6321 16.001L40.6176 16.001Z" fill="black"/>
<path opacity="0.2" d="M40.6177 16.001V21.0269C40.6152 21.3607 40.3499 21.6307 40.0219 21.6332H37.2088C37.0949 21.253 37.0367 20.8578 37.0363 20.4603V16.6371C37.0285 16.2941 37.2951 16.0095 37.6321 16.001L40.6177 16.001Z" fill="black"/>
<path opacity="0.2" d="M40.2921 16.001V21.0269C40.2896 21.3607 40.0243 21.6307 39.6963 21.6332H37.2088C37.0949 21.253 37.0367 20.8578 37.0363 20.4603V16.6371C37.0285 16.2941 37.2951 16.0095 37.6321 16.001L40.2921 16.001Z" fill="black"/>
<path opacity="0.1" d="M40.9431 14.2882V15.3318C40.8878 15.3351 40.8357 15.3384 40.7803 15.3384C40.725 15.3384 40.6729 15.3351 40.6175 15.3318C40.5076 15.3243 40.3987 15.3066 40.292 15.2788C39.9669 15.2004 39.6647 15.0449 39.4101 14.825C39.1554 14.605 38.9556 14.3268 38.8268 14.0132C38.7819 13.9064 38.747 13.7954 38.7227 13.6819H40.3473C40.6758 13.6832 40.9419 13.9538 40.9431 14.2882Z" fill="black"/>
<path opacity="0.2" d="M40.6178 14.6194V15.3317C40.5079 15.3243 40.3989 15.3066 40.2922 15.2787C39.9672 15.2004 39.665 15.0449 39.4104 14.8249C39.1557 14.605 38.9559 14.3268 38.8271 14.0132H40.022C40.3505 14.0144 40.6165 14.2851 40.6178 14.6194Z" fill="black"/>
<path opacity="0.2" d="M40.6178 14.6194V15.3317C40.5079 15.3243 40.3989 15.3066 40.2922 15.2787C39.9672 15.2004 39.665 15.0449 39.4104 14.8249C39.1557 14.605 38.9559 14.3268 38.8271 14.0132H40.022C40.3505 14.0144 40.6165 14.2851 40.6178 14.6194Z" fill="black"/>
<path opacity="0.2" d="M40.2923 14.6195V15.2788C39.9672 15.2005 39.665 15.0449 39.4104 14.825C39.1557 14.605 38.9559 14.3268 38.8271 14.0132H39.6965C40.025 14.0145 40.291 14.2852 40.2923 14.6195Z" fill="black"/>
<path d="M33.7262 14.0132H39.6953C40.025 14.0132 40.2922 14.2851 40.2922 14.6205V20.6946C40.2922 21.03 40.025 21.3019 39.6954 21.3019H33.7262C33.3966 21.3019 33.1294 21.03 33.1294 20.6946V14.6206C33.1294 14.2851 33.3966 14.0132 33.7262 14.0132Z" fill="url(#paint0_linear_487_10937)"/>
<path d="M38.2823 16.325H37.089V19.6314H36.3288V16.325H35.1411V15.6836H38.2823V16.325Z" fill="white"/>
</g>
<g clip-path="url(#clip2_487_10937)">
<path d="M63.2163 20.4488H58.5889C58.2859 20.4488 57.9902 20.2845 57.8497 20.0083C57.6872 19.6873 57.7462 19.3066 57.9975 19.0603L61.2205 15.8056H58.9068C58.271 15.8056 57.761 15.283 57.761 14.6485H62.0262C62.3293 14.6485 62.6249 14.8127 62.7654 15.0889C62.928 15.4099 62.8689 15.7906 62.6176 16.0369L59.3946 19.2917H62.0632C62.6989 19.2917 63.2163 19.8143 63.2163 20.4488ZM81.5337 14.5664C80.8684 14.5664 80.2771 14.8575 79.8631 15.3204C79.4492 14.8575 78.8578 14.5664 78.1925 14.5664C76.9655 14.5664 75.9601 15.6264 75.9601 16.8656V20.4488C76.5958 20.4488 77.1059 19.9262 77.1059 19.2917V16.8582C77.1059 16.2609 77.5642 15.7533 78.1555 15.731C78.7765 15.7086 79.2865 16.2087 79.2865 16.8283V19.2917C79.2865 19.9337 79.804 20.4488 80.4323 20.4488V16.8507C80.4323 16.2535 80.8906 15.7458 81.4819 15.7235C82.1029 15.7011 82.6129 16.2012 82.6129 16.8208V19.2842C82.6129 19.9263 83.1304 20.4413 83.7587 20.4413V16.8582C83.7661 15.6264 82.7608 14.5664 81.5337 14.5664ZM69.0116 17.5524C69.0116 19.2021 67.6885 20.5383 66.0548 20.5383C64.4212 20.5383 63.0981 19.2021 63.0981 17.5524C63.0981 15.9026 64.4212 14.5664 66.0548 14.5664C67.6885 14.5664 69.0116 15.9026 69.0116 17.5524ZM67.8659 17.5524C67.8659 16.5446 67.0527 15.7235 66.0548 15.7235C65.0569 15.7235 64.2438 16.5446 64.2438 17.5524C64.2438 18.5602 65.0569 19.3813 66.0548 19.3813C67.0527 19.3813 67.8659 18.5602 67.8659 17.5524ZM75.3835 17.5524C75.3835 19.2021 74.0604 20.5383 72.4267 20.5383C70.7931 20.5383 69.4699 19.2021 69.4699 17.5524C69.4699 15.9026 70.7931 14.5664 72.4267 14.5664C74.0604 14.5664 75.3836 15.9026 75.3836 17.5524M74.2378 17.5524C74.2378 16.5446 73.4247 15.7235 72.4268 15.7235C71.4289 15.7235 70.6158 16.5446 70.6158 17.5524C70.6158 18.5602 71.4289 19.3813 72.4268 19.3813C73.4247 19.3813 74.2378 18.5602 74.2378 17.5524Z" fill="#0B5CFF"/>
</g>
<defs>
<linearGradient id="paint0_linear_487_10937" x1="157.562" y1="-33.4365" x2="637.303" y2="783.095" gradientUnits="userSpaceOnUse">
<stop stop-color="#5A62C3"/>
<stop offset="0.5" stop-color="#4D55BD"/>
<stop offset="1" stop-color="#3940AB"/>
</linearGradient>
<clipPath id="clip0_487_10937">
<rect width="14" height="11.5391" fill="white" transform="translate(8.5 11.7969)"/>
</clipPath>
<clipPath id="clip1_487_10937">
<rect width="14" height="13.0703" fill="white" transform="translate(33.1294 11.0312)"/>
</clipPath>
<clipPath id="clip2_487_10937">
<rect width="26" height="6" fill="white" transform="translate(57.7588 14.5664)"/>
</clipPath>
</defs>
</svg>
